<svg width="593" height="565" viewBox="0 0 593 565" fill="none" xmlns="http://www.w3.org/2000/svg">
<path fill-rule="evenodd" clip-rule="evenodd" d="M470.991 377.294C492.169 374.801 522.752 388.288 508.678 412.641C497.687 425.233 530.626 439.558 507.657 454.357C485.992 466.186 459.588 464.603 435.648 467.925C417.674 466.122 404.097 491.96 387.098 481.497C378.196 460.456 386.669 436.014 386.019 413.727C384.947 393.969 396.267 381.402 416.581 382.749C434.091 380.848 453.785 378.241 470.991 377.294Z" fill="#FF3E02"/>
<path fill-rule="evenodd" clip-rule="evenodd" d="M448.549 200.924C398.91 202.176 407.275 137.536 454.468 146.934C493.464 154.924 490.627 203.176 448.549 200.924Z" fill="#FF3E02"/>
<path fill-rule="evenodd" clip-rule="evenodd" d="M52.0191 252.307C55.3951 266.009 46.931 345.137 60.5923 342.382C70.8929 338.001 88.859 341.132 92.2797 327.967C103.904 290.192 121.085 253.332 147.231 224.152C178.797 187.798 223.986 165.926 263.053 205.72C374.064 308.003 300.521 257.223 385.655 219.426C411.924 212.743 448.68 262.539 469.203 278.339C491.876 295.329 478.621 305.918 458.446 290.535C447.652 281.505 436.632 272.743 425.893 263.647C412.843 256.061 397.649 226.422 381.895 242.882C362.873 257.769 349.978 302.222 320.039 285.857C282.191 263.154 258.41 214.142 214.516 203.312C155.404 214.325 129.23 279.395 104.868 327.698C102.724 332.127 104.127 334.212 108.975 333.993C237.549 325.545 366.028 317.6 494.924 316.403C569.653 315.768 538.101 306.152 534.487 230.356C529.022 191.021 526.666 151.421 522.646 111.97C524.651 95.7208 512.259 103.972 502.256 103.722C439.148 105.179 376.073 104.406 313.017 108.632C227.203 116.178 140.926 114.58 55.1567 122.444C50.7156 123.199 49.4251 124.648 49.5449 129.383C50.7309 170.398 53.9625 211.251 52.0191 252.307ZM163.631 345.097C158.904 351.826 149.199 345.309 143.383 348.393C117.19 354.021 89.2501 353.331 62.3549 356.634C48.0454 358.619 56.9932 381.482 53.7065 391.734C50.2048 441.162 54.0177 490.719 56.4096 540.117C205.752 540.075 368.371 537.073 521.992 544.955C599 546.472 567.745 547.176 563.36 451.187C558.267 413.642 555.657 375.623 549.525 338.224C545.898 319.081 548.142 321.02 529.808 321.891C518.321 322.436 506.834 322.978 495.344 323.444C405.107 326.295 313.489 334.914 225.042 342.393C220.43 344.613 213.795 342.829 208.767 342.274C195.045 345.251 176.968 353.109 163.502 345.041C164.864 345.918 166.2 346.307 167.793 345.853C166.458 345.305 165.062 345.151 163.631 345.097ZM518.353 88.8609C522.373 79.1127 514.624 36.958 513.373 23.633C478.617 24.6177 443.667 27.0195 408.905 28.775C287.469 34.521 166.125 42.2563 44.5567 44.7086C30.7462 42.5877 10.6112 48.9529 0.47504 38.448C-1.90283 33.4 5.2484 32.4541 8.60442 31.5599C138.469 15.8061 269.851 13.4372 400.432 5.88519C431.105 4.37291 461.775 2.82303 492.448 1.2943C511.579 0.328411 538.574 -5.31767 544.197 19.5439C571.053 190.227 573.311 361.411 591.883 532.833C593.403 545.772 590.73 564.934 573.784 563.987C546.21 561.003 518.539 559.503 490.774 559.767C430.203 558.495 369.59 559.712 308.996 559.71C222.227 558.767 134.491 564.192 48.5621 550.747C33.1581 554.889 40.9035 520.763 37.3021 511.712C35.5572 485.331 32.8117 458.963 32.4606 432.518C34.1069 346.731 27.7166 261.075 27.416 175.282C24.6295 141.122 28.2932 105.501 19.8186 72.2528C15.8555 50.8929 43.7312 58.0595 43.5668 75.463C50.2765 143.613 52.7001 98.951 151.678 100.59C217.349 99.2518 283.725 89.5447 348.492 91.8232C402.555 84.7917 462.085 91.6152 518.353 88.8609Z" fill="black"/>
<path fill-rule="evenodd" clip-rule="evenodd" d="M448.742 45.8959C457.628 39.0603 464.664 52.4641 472.79 44.9675C475.967 42.041 480.057 40.6166 484.371 41.089C494.759 45.4128 472.568 54.5824 481.146 60.4119C484.631 64.3021 493.052 66.8834 491.891 73.0546C486.958 79.3317 478.688 68.6012 473.518 66.4039C467.635 61.2743 463.285 69.2951 458.213 71.4617C454.909 73.1736 446.19 73.8616 448.336 67.8801C456.606 57.8659 462.139 55.2209 448.742 45.8959Z" fill="black"/>
<path fill-rule="evenodd" clip-rule="evenodd" d="M111.063 76.3416C109.676 61.1055 131.722 58.8093 138.414 70.0184C148.046 87.7275 110.645 96.6717 111.063 76.3416Z" fill="black"/>
<path fill-rule="evenodd" clip-rule="evenodd" d="M86.5222 63.269C102.755 63.7525 89.4499 97.3033 76.0239 85.476C65.1047 77.22 73.5314 60.6961 86.5222 63.269Z" fill="black"/>
<path fill-rule="evenodd" clip-rule="evenodd" d="M175 72.5571C174.766 80.4159 162.825 85.8777 157.722 78.5513C149.682 62.9397 172.251 53.645 175 72.5571Z" fill="black"/>
<path fill-rule="evenodd" clip-rule="evenodd" d="M443.618 192.713C477.988 191.407 446.633 159.638 430.793 154.244C406.929 150.766 420.576 196.11 443.618 192.713ZM447.397 212.785C418.686 214.933 395.841 193.99 399.485 166.321C392.779 119.648 457.572 132.325 476.665 157.952C496.42 182.591 478.812 215.998 447.397 212.785Z" fill="black"/>
<path fill-rule="evenodd" clip-rule="evenodd" d="M475.014 465.454C475.03 465.674 475.045 465.894 475.06 466.114C498.043 464.613 513.879 474.475 501.981 442.992C484.085 355.001 478.431 375.848 399.085 384.182C387.582 390.561 394.681 441.672 392.507 456.724C393.792 466.248 395.273 473.743 406.306 472.062C429.233 470.324 452.11 467.569 475.014 465.454ZM367.086 407.485C366.373 384.602 369.607 366.988 395.507 365.636C421.363 364.328 450.443 357.163 474.96 367.495C479.015 371.508 483.511 372.141 488.954 371.856C511.365 365.633 524.816 460.961 518.394 475.177C516.444 480.875 509.832 479.687 505.038 479.802C481.041 478.843 457.46 483.034 433.74 485.5C362.766 500.933 369.286 463.603 367.086 407.485Z" fill="black"/>
<path fill-rule="evenodd" clip-rule="evenodd" d="M136 422.802C139.638 403.839 150.449 383.542 169.165 376.11C188.697 366.171 193.699 411.735 210.84 400.597C255.568 338.395 245.515 401.223 266.031 393.146C275.568 385.078 294.226 359.623 305.476 376.872C306.226 386.069 314.202 397.744 309.553 406.019C302.924 407.713 298.28 400.382 295.574 395.358C284.628 389.008 268.758 428.611 251.132 409.883C245.954 406.807 242.11 391.802 235.014 397.823C195.352 460.138 182.665 381.749 167.329 400.509C159.098 407.587 146.567 443.119 136 422.802Z" fill="black"/>
<path fill-rule="evenodd" clip-rule="evenodd" d="M263.917 450.693C273.927 452.483 297.067 445.408 299 458.353C298.673 460.953 296.809 462.387 292.327 462.597C248.099 462.484 204.01 468.033 159.785 466.829C142.743 451.92 253.091 452.069 263.909 450L263.917 450.693Z" fill="black"/>
<path fill-rule="evenodd" clip-rule="evenodd" d="M231.848 487C311.216 488.636 193.169 505.537 174.506 498.134C168.143 487.896 223.791 487.312 231.848 487.076C231.848 487.05 231.848 487.025 231.848 487Z" fill="black"/>
<path fill-rule="evenodd" clip-rule="evenodd" d="M472.978 437.66C474.337 463.627 411.625 442.225 432.119 431.359C444.83 438.215 456.734 439.211 468.192 429.197C473.44 427.805 472.355 434.12 472.978 437.66Z" fill="black"/>
<path fill-rule="evenodd" clip-rule="evenodd" d="M451.006 403.416C452.043 380.088 484.933 406.595 471.985 413.55C461.907 418.12 450.707 417.122 451.006 403.416Z" fill="black"/>
<path fill-rule="evenodd" clip-rule="evenodd" d="M414.094 406.407C412.613 395.711 429.138 397.664 430.898 405.512C432.587 417.188 412.792 418.775 414.094 406.407Z" fill="black"/>
</svg>
