<?xml version="1.0" encoding="UTF-8"?>
<svg id="Layer_1" data-name="Layer 1" xmlns="http://www.w3.org/2000/svg" version="1.1" viewBox="0 0 338.6 265.9">
  <defs>
    <style>
      .cls-1 {
        fill: #ff3e02;
      }

      .cls-1, .cls-2, .cls-3 {
        stroke-width: 0px;
      }

      .cls-2 {
        fill: #000;
      }

      .cls-3 {
        fill: #fff;
      }
    </style>
  </defs>
  <path class="cls-2" d="M30.2,45.4c-3.7,6.5-4.4,15.4-5.8,22.7s-2.9,16.7-4.2,25.1c-2.5,16.5-4.6,33-6.2,49.6-1.7,16.5-2.9,33-3.7,49.6s-2.2,34.1-.9,50.9,1,5.4,3.6,5.9,4.1-2.3,4.3-4.5c1.1-16.2.7-32.5,1.4-48.6.7-16.7,1.9-33.4,3.5-50.1s3.6-32.5,5.9-48.7,2.5-16.2,3.8-24.2,3.9-16.7,3.3-24.7-2.9-6.4-4.9-2.9h0Z"/>
  <path class="cls-2" d="M328.9,16.4c-5.7,18.6-10,37.7-15.4,56.4-5.3,18.3-10.9,36.6-15.8,55.1-9.8,36.2-18.9,74.9-16.1,112.8.2,2.3,1.2,6.2,4.2,6.1s3.9-4,3.9-6.3c.1-18.9,1.1-37.4,4.1-56.1,3-18.5,7.2-36.9,12-55,4.8-18.3,10.1-36.5,15-54.7,4.9-18.2,10.5-36.7,12.6-55.5.3-2.8-3.2-7.2-4.5-2.7h0Z"/>
  <path class="cls-2" d="M31.1,48.2c18.9-.3,37.8-3.2,56.6-5.3,18.9-2.1,37.7-4.3,56.6-6.5,38-4.4,76.1-9,114.1-13.5s43-5,64.5-7.5,5.1-13.3-.3-12.6c-75.7,9.7-151.5,19-227.2,29-21.5,2.8-43.3,4.7-64.5,9.6s-3,6.9.2,6.8h0Z"/>
  <path class="cls-2" d="M16.2,259.5c73-3.2,145.9-6.4,219-7.7,20.6-.4,41.3,0,61.8-1.2,5.4-.3,5.1-11.8-.3-12.1-18.2-.8-36.6,0-54.8.5-18.3.4-36.5,1.1-54.8,1.9-36.5,1.5-73,3.4-109.4,6.2-20.6,1.6-41.1,3.5-61.6,5.6-3,.3-2.9,7,.2,6.8h0Z"/>
  <path class="cls-2" d="M68.8,46.2c.1,16.7-3.1,33-5.8,49.4s-4.7,32.9-6.2,49.5c-2.8,32.6-3.3,65.4-.9,98.1.3,4.7,5.4,4.7,5.1-.1-1.7-33.3-1.6-66.6,1.4-99.8s3.5-32.5,6.1-48.6c2.6-16.1,5.1-32.2,4.8-48.6s-4.5-4.1-4.5.1h0Z"/>
  <path class="cls-2" d="M114.3,44.7c-3.5,16.1-5.1,32.6-8,48.8-2.9,16.3-6,32.6-8.6,48.9-5.1,31.7-9.4,64.8-5.4,96.9s6.6,3.4,6.3-1.5c-1-16.3-1.4-32.4-.2-48.8,1.2-16.1,3.4-32.1,6-48.1s5.5-31.4,8.1-47.1,6-32.2,6.1-48.4-3.6-4.5-4.4-.8h0Z"/>
  <path class="cls-2" d="M154.5,33.2c-4.3,16.6-6.1,34.3-8.6,51.3-2.5,17.2-4.7,34.5-6.7,51.8-4,34.6-7.2,69.5-8.6,104.3-.2,4,4.9,5.6,5.3,1,2.5-34.4,5.1-68.8,8.8-103.1,1.9-17,4-34,6.3-50.9s6.1-34.5,7.5-51.8-3-6.6-4.1-2.5h0Z"/>
  <path class="cls-2" d="M197.3,31.1c-2.8,8.2-3.8,17-5.4,25.5s-2.9,16.7-4.2,25c-2.7,17.7-5.1,35.4-7,53.2-3.8,35-6.7,70.3-7,105.4,0,5.5,5.6,5.2,5.8-.1,1.7-35.1,3.5-70,7.3-104.9,1.9-17.2,4.1-34.3,6.6-51.4s2.5-16.8,3.9-25.1,3.4-17.3,3.9-26.1-2.9-4.6-3.9-1.5h0Z"/>
  <path class="cls-2" d="M244.4,25.5c-9.5,34.1-15.7,69.4-21.5,104.3-5.8,35.4-10.8,71.3-13.4,107.1s0,4.4,2,4.9,3-1.3,3.2-2.9c3.9-35.4,7.9-70.8,13.6-106s13.3-70,20-105-2.9-6.1-3.9-2.4h0Z"/>
  <path class="cls-2" d="M288.9,22.2c-3.9,8-5.9,17.2-8.3,25.7-2.3,8.3-4.4,16.6-6.5,24.9-4.5,18.2-8.4,36.5-11.7,54.9-6.6,36.4-11.1,73.2-12.9,110.2s5.2,5.9,5.6,1c2.6-36.2,6.7-72.2,13.1-108,3.1-17.5,6.7-34.9,10.8-52.2,2.1-8.9,4.4-17.7,6.8-26.6s5.6-17.7,7-26.8c.3-1.9-2.2-6.6-3.9-3.3h0Z"/>
  <path class="cls-2" d="M27.4,91.8c18.7,3.3,38.5,3.3,57.4,3.7s39,.2,58.4-.8c38.8-2,77.4-6.8,115.5-14.2s43.1-8.2,63.4-15.3c3.8-1.3,3.1-11.7-1.2-10.8-19,4-37.7,9.6-56.8,13.6s-38,7.3-57.1,9.9c-38,5.2-76.4,8-114.7,8.1-10.8,0-21.7-.2-32.5-.6s-21.7-1.6-32.5-1.5-3,7.1.2,7.7h0Z"/>
  <path class="cls-2" d="M12.5,138.4c1.9,2.7,4.2,3.2,7.4,3.5,4.9.5,9.9.7,14.8.9,9.9.6,19.8.9,29.7,1.2,20.1.6,40.3.8,60.4.7,39.9-.2,79.9-1.8,119.7-4.7,10.7-.8,21.4-1.8,32-2.5s22.3-.6,33.5-.6,4.3-10-.3-10.7c-18.2-2.8-37.4.4-55.6,1.9-19.4,1.6-38.8,2.9-58.3,3.9-38.6,2-77.2,3-115.8,2.8s-21.1-.2-31.7-.4-11.2-.2-16.8-.3-5.3-.1-7.9-.2-6.5.8-8.5-1.1-3.9,3.8-2.7,5.6h0Z"/>
  <path class="cls-2" d="M4.8,198.9c35.9-7,72.7-3.8,108.9-.8s74.8,4.5,112.3,2.4c21.3-1.2,42.5-3.5,63.5-6.8,4.9-.8,4.5-11.6-.3-11-37.3,5.3-74.9,8.2-112.6,8-37.1-.2-74.1-5.1-111.2-5.1-20.7,0-41.2,1.9-61.3,6.8s-1.9,7.1.7,6.5h0Z"/>
  <g>
    <path class="cls-3" d="M285.6,247.5l-2,3.2c-1.6-18.8-.6-37.9,2.9-56.5.9-4.8,1.8-10.2-1-14.2-2.9,2.8-4.9,6.3-6.9,9.8-11.6,20.2-30.5,42-42.1,62.2,2.5-4.9,14.5-10,18.8-13.3,13.3-10,41.3-21.9,54.6-31.9-1.8-1.9-19.5.4-22.1.9-18,2.9-37.1-2.1-51.4-13.4,16.4,22.3,33.1,32.7,44.7,57.7-.6-.8-.9-1.8-.7-2.8"/>
    <path class="cls-1" d="M282.3,242.7c-.7,1-1.4,2.1-2.1,3.1l7.9,4.7c.3-13.1.3-26.1,1.9-39.1s6.9-25.5.9-36.5c-1.8-3.3-5.3-6.8-9-3.3-5.4,5.1-8.6,11.8-12.6,18-4,6.3-8.3,12.4-12.6,18.5-8.7,12.1-17.6,24.1-25,37.1s-2.5,10,.3,13.9,6.9,3.6,9.2-.2,10.2-6.9,14.5-9.7,11.5-7.6,17.6-10.9c13.5-7.4,27.6-13.8,40.3-22.5,5.1-3.5,4-14.7-.4-18.2s-9.3-2.4-13.7-2.2-9.5.8-14.3,1.4c-15.9,1.8-32.6-2.2-45.5-11.8s-7.2-.7-8.9,3-1.9,10.1.9,13.9c14.1,19,33.3,34,43.2,55.9l12.4-11.6-.6-1.3,1.1,5.6v-1.5c-.2-4.3-2.3-11.1-7.7-11s-7.4,7.3-7.1,11.4.5,5.7,1.9,8.4c2,3.9,6.1,7.4,10.1,3.8s4.4-10.9,2.3-15.3c-5.7-11.6-13.1-21.9-21.7-31.5-8.3-9.3-17-18.1-24.4-28l-8,16.9c13.1,10.4,29.4,16.6,46.2,16.2s10.5-1.1,15.8-1.8,5.4-.7,8.1-1,2.5,0,3.7-.2c2-.1,1.2.3-.3-.8-.1-6.1-.3-12.1-.4-18.2-12.3,9.7-27.1,15.9-40.6,23.6s-11,7.3-16.7,10.6-13.4,6.9-17.2,13.1l9.5,13.7c7.2-12.3,15.9-23.7,24.3-35.2,4.1-5.6,8.2-11.2,12-17s6.8-12.9,11.5-18.2l-7.9-1.4c-.3-.5.3-.5,0,0s-.3,2.5-.4,3.2c-.4,2.7-.9,5.3-1.3,8-.9,6.1-1.4,12.3-1.8,18.4-.7,12-.5,24,1.6,35.8.7,3.8,5.1,7.3,7.7,2.9.7-1.1,1.3-2.2,2-3.3,1.7-2.8,1.7-7-.2-9.7s-4.6-2.4-6.3.2h0Z"/>
  </g>
</svg>