<svg width="490" height="604" viewBox="0 0 490 604" fill="none" xmlns="http://www.w3.org/2000/svg">
<path fill-rule="evenodd" clip-rule="evenodd" d="M134.834 392.427C129.658 379.274 131.064 375.293 143.296 369.283C159.462 356.709 189.12 440.891 205.236 432.7C250.537 420.221 295.752 407.504 340.475 393.069C362.353 386.846 384.165 380.468 405.477 372.465C413.085 368.286 420.018 377.271 417.459 384.771C411.787 406.899 337.111 411.995 311.68 428.327C269.234 444.986 220.476 456.466 179.426 470C180.427 468.878 181.428 467.756 182.429 466.635C181.348 466.258 180.267 465.881 179.187 465.504C182.163 461.84 178.378 459.176 176.241 457.068C162.739 447.745 151.45 413.548 140.485 413.311L140.556 413.431C143.686 407.149 143.366 406.055 137.47 402.89C137.47 402.89 137.5 402.976 137.501 402.978C141.001 398.352 137.731 395.438 134.834 392.427Z" fill="#FF3E02"/>
<path fill-rule="evenodd" clip-rule="evenodd" d="M106.926 334C70.2575 324.789 30.1846 163.738 21.12 124.099C14.8169 97.9782 36.8301 87.2597 44.5198 116.582C61.7406 163.327 76.1581 211.09 94.2689 257.496C100.457 273.106 107.127 288.536 114.093 303.811C120.731 315.345 115.004 325.151 106.926 334Z" fill="#FF3E02"/>
<path fill-rule="evenodd" clip-rule="evenodd" d="M290.992 281.39C279.505 286.541 299.98 300.429 305.391 296.511C308.062 288.987 297.97 281.094 290.992 281.39ZM283.529 315.203C284.441 297.946 272.144 303.56 265.227 310.992C259.197 319.172 282.576 337.258 283.529 315.203ZM196.748 335.06C196.325 325.517 185.515 325.585 178.142 323.713C169.264 339.62 194.926 362.44 196.748 335.06ZM245.631 336.179C245.009 322.711 243.485 321.495 232.14 325.726C227.962 327.573 220.015 327.471 220.337 333.607C222.112 346.457 245.959 352.22 245.631 336.179ZM409.426 178.77C392.273 180.497 359.077 188.513 361.885 209.176C367.284 226.065 370.96 232.164 383.907 215.962C389.159 208.677 428.554 183.879 409.426 178.77ZM438.429 230.58C424.098 232.013 410.175 236.213 396.287 239.857C371.294 247.472 373.432 246.937 383.193 270.061C384.554 273.284 387.071 273.901 390.538 272.416C400.23 268.287 451.199 241.07 438.429 230.58ZM456.078 270.699C436.851 274.446 417.543 281.067 399.189 288.091C388.676 294.382 405.172 307.75 407.614 315.647C413.926 324.157 428.21 307.866 437.615 307.706C455.569 301.888 495.353 280.367 456.078 270.699ZM297.781 310.334C290.6 358.667 272.228 324.682 263.681 340.717C262.283 373.223 225.239 359.106 205.969 357.823C198.817 362.158 190.933 362.406 182.935 361.814C179.135 361.533 176.211 362.819 174.011 365.959C165.29 378.401 154.022 387.871 140.428 394.613C133.268 405.309 167.021 448.499 172.017 463.662C183.899 474.951 206.095 459.115 220.643 457.361C262.366 448.159 302.181 432.705 342.198 418.076C437.355 385.001 405.855 403.893 369.047 312.837C348.437 272.465 335.538 227.895 322.276 185.074C307.409 155.913 295.632 123.156 283.534 91.5459C239.698 -2.48382 275.327 8.80442 164.413 40.8296C134.257 53.7026 28.663 87.7617 26.2592 119.457C32.2719 148.637 42.4385 176.623 50.695 205.137C59.3347 241.473 78.2527 274.174 86.106 310.735C89.0126 322.228 90.013 338.67 105.831 330.223C132.867 319.319 179.267 338.114 158.471 312.823C156.738 309.868 158.422 306.805 161.74 306.288C188.017 308.111 213.496 319.41 238.614 304.56C263.876 293.807 264.713 286.161 276.487 264.497C313.493 244.825 350.688 317.362 297.781 310.334ZM288.069 541.02C274.424 475.506 317.013 509.218 336.537 462.492C339.429 456.32 350.678 432.65 335.244 441.234C315.417 448.732 294.923 458.735 274.939 462.789C266.713 471.316 233.78 471.378 233.033 483.89C243.041 492.82 255.58 523.947 234.379 524.725C222.756 521.891 225.037 509.042 220.952 500.355C208.171 468.735 185.569 509.913 166.721 499.184C135.673 473.493 128.282 428.789 110.294 394.964C96.8332 369.652 138.201 370.8 149.677 356.459C169.006 330.399 97.4739 353.004 88.5203 358.686C25.7813 382.913 70.4177 440.706 91.1749 479.872C103.924 497.861 148.425 612.292 99.3473 545.75C79.6062 494.464 -6.50261 399.395 52.911 354.575C58.0547 347.701 77.5857 344.871 72.232 334.305C38.2677 279.331 22.7552 217.005 5.32603 155.499C-4.7014 125.254 -2.54573 90.0687 31.8886 78.162C90.999 48.0657 152.445 22.0675 217.404 7.58723C240.797 4.35714 272.955 -11.4532 284.869 17.9471C308.634 72.4503 329.176 128.314 352.074 183.226C358.839 192.3 370.335 173.519 378.29 171.148C397.409 155.234 450.907 157.576 432.956 192.67C431.079 199.797 410.15 211.986 417.706 217.791C441.929 215.472 483.341 212.309 451.799 246.444C448.9 250.759 442.45 252.534 442.71 259.094C465.41 255.558 502.557 270.724 484.836 298.182C471.072 313.859 450.92 322.295 431.979 330.104C414.084 337.084 417.119 335.758 423.675 352.248C428.857 365.334 455.276 394.633 433.486 402.149C409.444 405.346 390.446 420.746 367.368 427.269C357.118 431.834 368.734 450.86 364.124 461.636C361.665 484.612 346.754 506.359 325.153 515.346C306.593 517.819 325.738 568.312 321.571 585.727C295.986 638.003 286.59 563.794 286.82 541.125C287.236 541.091 287.652 541.056 288.069 541.02Z" fill="black"/>
<path fill-rule="evenodd" clip-rule="evenodd" d="M273.016 414.527C306.236 414.219 290.392 377.142 266.14 381.878C246.401 388.908 255.454 412.591 273.016 414.527ZM271.467 428C251.625 427.844 237.391 412.148 239.146 394.716C239.695 377.564 259.527 377.269 269.452 367.56C320.368 360.425 317.992 423.79 271.467 428Z" fill="black"/>
<path fill-rule="evenodd" clip-rule="evenodd" d="M124 96.9931C123.621 113.408 97.7864 122.781 94.7206 102.253C88.6033 79.7417 123.429 75.67 124 96.9931Z" fill="black"/>
<path fill-rule="evenodd" clip-rule="evenodd" d="M146.68 85C129.775 70.2841 176.088 67.3286 185.056 63.2838C188.965 62.3546 190.663 63.7088 191.507 67.3209C196.897 80.5853 156.487 82.4119 146.68 85Z" fill="black"/>
<path d="M195.853 145.468C184.258 137.383 173.504 142.518 161.837 147.671C150.784 152.554 143.058 167.746 147.351 179.545C152.807 194.535 164.439 201.871 180.155 204.631C189.42 206.258 197.443 202.673 205.953 199.228C213.977 195.979 224.742 190.29 233.501 191.188C242.82 192.143 250.852 199.97 254.297 208.478C259.893 222.299 254.555 239.737 242.416 248.493C233.054 255.246 219.997 258.511 209.354 262.82C202.486 265.601 198.198 266.716 190.909 266.235C185.089 265.85 178.832 264.885 173.473 262.615C171.672 261.852 170.752 258.208 168.904 256.949" stroke="black" stroke-width="23" stroke-linecap="round"/>
<path d="M160.22 123.407C170.724 149.348 181.228 175.288 191.732 201.229C194.707 208.577 197.2 216.247 199.946 223.713C203.424 233.167 204.229 243.082 208.034 252.478C212.201 262.769 215.549 273.237 219.722 283.542" stroke="black" stroke-width="23" stroke-linecap="round"/>
</svg>
