<svg width="406" height="437" viewBox="0 0 406 437" fill="none" xmlns="http://www.w3.org/2000/svg">
<path fill-rule="evenodd" clip-rule="evenodd" d="M82.282 318.206C82.282 318.189 82.282 318.17 82.282 318.153C72.676 320.235 27.366 313.319 27.6294 322.051C28.9596 350.274 28.8441 378.295 37.3142 405.495C38.07 409.236 39.8439 410.146 43.9704 410.37C94.4036 414.665 144.572 418.807 195.356 417.589C233.46 416.641 273.145 424.72 309.74 411.942C316.863 409.483 308.914 401.995 309.246 397.41C310.539 371.107 302.162 346.561 297.673 320.944C297.879 308.108 260.375 316.087 250.231 314.267C194.338 318.175 138.31 318.129 82.282 318.206ZM27.0993 312.264C76.5942 291.732 129.373 300.256 181.624 300.749C209.082 299.364 235.678 298.478 262.878 296.745C271.437 294.466 293.321 301.69 294.06 290.567C289.125 210.566 272.441 131.45 270.201 51.3455C271.054 35.2115 269.856 26.1334 250.105 25.3539C196.042 17.6283 141.3 24.9061 86.9095 21.3695C82.6998 21.2545 78.2936 22.3811 74.3668 19.7564C70.698 19.7706 66.2551 21.4601 62.4179 21.5476C52.0011 24.8287 13.7198 16.4233 17.8766 31.8042C23.41 125.224 20.4895 218.771 27.0993 312.264ZM331.494 403.655C368.358 452.983 167.704 431.651 141.431 436.131C119.439 435.897 97.5854 433.89 75.8838 430.583C62.5119 428.719 49.0741 422.546 35.6666 427.777C23.5698 431.988 22.2342 405.164 19.5469 397.814C-3.47091 278.947 -1.06321 155.257 1.76988 34.5521C5.29074 -4.77788 71.7917 5.25891 101.546 1.24298C159.763 -0.361975 218.312 -2.09211 275.765 7.733C307.247 11.9291 294.736 51.5328 298.747 72.5254C300.881 100.522 304.28 128.444 306.808 156.402C312.622 221.842 318.447 287.568 329.509 352.395C331.923 369.826 335.769 391.725 327.958 406.082C329.887 405.962 331.364 405.844 331.494 403.655Z" fill="black"/>
<path fill-rule="evenodd" clip-rule="evenodd" d="M168.599 39.3336C176.838 40.6548 192.492 35.4487 196 44.3589C195.546 50.2203 193.598 52.4583 187.772 52.6401C175.696 53.0173 163.598 53.0815 151.515 52.9094C143.731 53.6648 131.768 46.5882 141.881 40.7326C150.541 38.4023 159.695 39.6117 168.599 39.3676C168.599 39.356 168.599 39.3443 168.599 39.3336Z" fill="black"/>
<path fill-rule="evenodd" clip-rule="evenodd" d="M116.997 47.3529C117.257 59.6679 102.102 64.3665 100.085 50.7087C98.6895 41.053 114.887 38.7002 116.997 47.3529Z" fill="black"/>
<path fill-rule="evenodd" clip-rule="evenodd" d="M165.315 350.62C145.362 355.984 166.313 385.416 181.362 374.902C196.305 364.891 176.478 352.233 165.315 350.62ZM163.608 335C242.134 337.119 193.597 424.263 144.033 378.966C132.559 367.331 140.423 353.422 143.482 340.696C146.632 334.756 157.506 336.633 163.608 335Z" fill="black"/>
<path d="M106.253 233.699C114.305 203.1 129.696 175.787 139.374 145.874C141.535 139.195 144.864 132.592 147.79 126.191C149.65 122.123 148.968 109.139 153.763 116.147C176.085 148.772 193.983 180.197 210.774 215.645C212.748 219.813 217.831 232.069 221.09 233.699" stroke="#FF3E02" stroke-width="23" stroke-linecap="round"/>
<path d="M125.8 204.379C145.715 204.379 164.458 199.492 184.44 199.492" stroke="#FF3E02" stroke-width="23" stroke-linecap="round"/>
</svg>
