<svg width="481" height="444" viewBox="0 0 481 444" fill="none" xmlns="http://www.w3.org/2000/svg">
<path fill-rule="evenodd" clip-rule="evenodd" d="M180.437 99.434C157.092 89.0511 90.8705 61.8756 70.9222 80.9008C49.6063 107.749 76.5807 146.544 95.5934 167.917C136.538 226.209 206.421 260.371 265.902 297.847C305.942 324.602 353.438 341.727 402.075 340.029C434.282 340.574 439.159 312.186 436.583 286.277C430.531 272.537 418.854 260.728 410.736 247.885C400.439 232.968 379.7 229.359 364.87 219.8C306.861 174.44 242.649 138.723 180.437 99.434ZM80.9281 184.855C15.9024 75.0206 26.9888 19.932 163.929 69.104C190.758 77.9272 209.942 99.939 236.239 109.163C242.737 113.742 249.086 118.548 255.771 122.837C276.96 135.981 300.666 144.013 319.317 161.146C350.804 190.924 398.334 198.763 421.798 237.167C435.644 260.353 457.048 282.66 460.078 310.417C462.139 337.125 457.536 365.475 426.125 369.968C419.16 371.382 412.501 372.73 406.75 377.703C386.68 390.817 345.367 370.503 324.464 362.189C290.401 346.533 258.776 326.813 226.983 307.103C171.68 275.23 115.892 239.684 80.9281 184.855Z" fill="#FF3E02"/>
<path fill-rule="evenodd" clip-rule="evenodd" d="M441.617 84.4531C442.505 83.2866 443.689 82.4484 443.776 81.5091C440.612 57.5013 404.317 63.0986 441.617 84.4531ZM422.088 237.646C411.256 222.871 399.341 209.248 382.753 200.587C412.359 172.788 430.989 136.828 420.09 96.0303C419.192 91.4583 417.439 90.3035 412.549 91.3535C359.658 108.067 374.01 78.3532 343.846 79.7563C306.468 83.7151 270.95 94.4094 236.597 109.339C222.544 105.787 211.837 96.7178 201.057 87.7656C241.343 70.4416 281.864 52.7197 325.936 48.2678C353.911 45.9653 379.598 31.3605 407.869 33.3663C432.498 36.3362 447.589 58.8997 465.309 73.8965C504.269 117.226 460.418 205.15 422.088 237.646Z" fill="#FF3E02"/>
<path fill-rule="evenodd" clip-rule="evenodd" d="M81.6024 185.182C88.1409 194.133 94.6794 203.083 101.217 212.036C67.3041 247.021 38.2541 288.052 27.6196 336.015C25.8378 342.065 26.9495 343.665 33.3161 345.512C65.9957 354.681 140.632 360.654 171.264 347.204C245.334 316.055 219.774 298.991 283.485 341.746C214.245 389.494 158.15 395.426 76.8351 380.395C46.3048 374.666 -4.23914 357.3 0.842584 318.986C15.1974 267.584 43.0025 222.19 81.6024 185.182Z" fill="#FF3E02"/>
<path fill-rule="evenodd" clip-rule="evenodd" d="M411.5 248.079C381.461 275.973 346.047 296.771 313.932 322C297.098 316.02 280.724 309.136 266.5 298.029C302.672 275.986 334.573 248.558 365.578 220C380.446 229.556 401.169 233.157 411.5 248.079Z" fill="#FF3E02"/>
<path fill-rule="evenodd" clip-rule="evenodd" d="M95.5 168.361C121.173 142.497 149.482 119.154 180.538 100C191.193 106.5 201.845 113 212.5 119.5C178.687 141.838 146.543 166.357 117.879 195C107.794 188.298 100.372 179.386 95.5 168.361Z" fill="#FF3E02"/>
<path fill-rule="evenodd" clip-rule="evenodd" d="M143.435 208.993C143.388 208.993 143.341 208.992 143.294 208.992C144.412 196.57 142.762 187.903 130.575 199.563C121.564 208.263 122.418 209.07 129.881 216.231C142.197 231.574 144.392 224.443 143.435 208.993ZM321.518 308.896C318.57 296.571 300.537 318.783 294.882 322.254C296.667 327.118 301.7 327.408 305.413 329.244C321.99 340.763 318.269 318.635 321.518 308.896ZM172.477 125.521C169.579 149.456 194.134 123.523 201.794 118.338C204.453 110.425 186.438 110.948 181.145 107.626C172.365 105.207 174.333 122.197 172.477 125.521ZM342.527 231.602C336.962 267.761 359.461 237.057 371.073 226.367C381.825 216.452 349.909 200.614 343.1 193.854C333.748 193.337 343.535 224.262 342.527 231.602ZM313.223 134.778C309.805 126.969 305.477 88.7099 293.058 94.813C285.873 100.008 258.808 103.748 261.178 113.246C268.104 116.502 316.575 153.577 313.223 134.778ZM247.873 324.083C228.249 309.807 205.639 299.6 184.878 286.732C183.151 284.986 180.327 286.3 179.798 287.987C182.757 299.558 188.652 353.696 203.588 348.451C218.408 340.146 235.359 335.984 247.873 324.083ZM126.976 96.8423C93.9645 93.5034 63.9373 108.384 78.0522 144.091C73.6778 153.169 105.341 200.091 113.032 189.834C130.013 174.605 148.197 161.482 145.938 136.302C147.446 110.091 163.304 96.297 126.976 96.8423ZM261.511 419.247C293.349 418.883 303.579 379.555 311.301 354.229C312.713 341.489 289.972 343.433 281.895 337.201C258.232 334.235 235.316 361.526 211.977 368.009C201.588 375.904 227.919 404.015 235.303 410.876C242.209 416.455 249.466 419.796 261.511 419.247ZM238.678 17.0647C204.468 16.4346 192.396 50.1049 182.885 76.2896C181.628 79.8051 183.084 81.8226 186.974 83.2771C242.446 107.428 234.652 97.4029 287.668 74.9081C293.811 58.1194 256.634 18.3849 238.678 17.0647ZM438.727 318.357C440.949 300.247 404.821 236.615 386.964 237.325C352.081 274.595 339.724 274.01 336.78 328.43C334.841 338.224 337.462 339.352 345.095 341.448C374.888 346.472 431.487 359.296 438.727 318.357ZM370.323 77.8654C362.931 81.8261 309.299 79.1079 315.786 94.9661C325.459 117.977 323.029 148.47 342.989 165.488C355.009 170.41 382.977 206.474 391.804 200.508C431.005 155.612 456.949 78.8429 370.323 77.8654ZM50.4843 328.279C51.7987 392.277 131.164 376.238 170.725 360.262C175.409 345.695 157.873 316.092 155.78 298.692C149.706 256.393 143.323 254.5 111.606 227.966C108.38 225.373 106.701 225.509 103.723 228.716C79.1217 256.177 53.3122 291.05 50.4843 328.279ZM323.768 220.639C330.993 162.902 291.655 159.205 250.162 135.295C222.327 113.869 198.823 150.253 174.71 162.429C163.015 177.139 171.439 201.006 169.145 219.001C172.036 232.883 168.319 251.657 181.949 260.269C207.481 277.233 232.198 294.984 259.854 308.316C280.177 316.668 299.805 284.895 317.477 276.494C332.567 262.796 323.306 238.59 323.768 220.639ZM381.533 361.01C367.245 360.317 353.173 358.515 339.245 355.356C332.829 353.901 331.712 354.432 329.601 361.057C317.972 395.785 290.055 460.479 244.539 440.119C219.546 430.042 201.36 408.569 187.668 385.93C184.357 380.35 183.216 380.109 176.73 382.18C133.208 394.416 57.835 411.448 39.0677 355.933C23.6654 303.081 61.2825 252.953 91.742 212.716C95.9527 207.154 88.1744 202.582 85.9825 197.894C76.0229 184.843 71.5012 168.206 60.0458 156.618C41.1206 118.999 57.3768 72.8706 104.921 71.7187C120.364 66.7016 152.155 80.1702 160.45 71.6245C171.009 42.5427 188.69 8.91827 221.096 0.883748C257.168 -5.77165 282.048 26.4548 297.727 54.2317C301.471 67.367 308.441 69.5447 320.744 64.9503C352.537 58.2466 388.749 52.9268 417.883 71.1464C465.81 105.802 432.494 172.442 406.444 210.885C397.719 223.679 420.442 235.266 425.571 246.633C467.738 299.45 462.131 365.41 381.533 361.01Z" fill="black"/>
<path fill-rule="evenodd" clip-rule="evenodd" d="M229.501 229.307C229.389 210.285 243.448 199.905 258.634 196.24C278.332 193.108 287.403 221.35 283.681 237.65C273.303 276.022 231.812 262.73 229.501 229.307Z" fill="black"/>
</svg>
