<?xml version="1.0" encoding="UTF-8"?><svg id="Layer_1" xmlns="http://www.w3.org/2000/svg" viewBox="0 0 2000 1000"><defs><style>.cls-1{fill:#ff3e02;}.cls-1,.cls-2{stroke-width:0px;}.cls-2,.cls-3{fill:#070707;}.cls-3{stroke:#ff3e02;stroke-miterlimit:10;stroke-width:2px;}</style></defs><rect class="cls-2" width="2000" height="1000"/><path class="cls-1" d="M180.57,223.88c-4.45,0-6.67-2.22-6.67-6.67v-11.04h-.69c-2.91,5.52-7.48,10.31-13.69,14.38s-14.91,6.09-26.1,6.09c-12.73,0-22.46-2.8-29.21-8.39-6.75-5.6-10.12-13.69-10.12-24.27,0-4.75.73-9.2,2.19-13.34,1.46-4.14,3.91-7.67,7.36-10.58,3.45-2.91,8.09-5.21,13.92-6.9,5.83-1.69,13.11-2.53,21.85-2.53h34.5v-18.63c0-11.96-3.07-20.82-9.2-26.57-6.13-5.75-14.57-8.62-25.3-8.62-8.43,0-15.95,1.8-22.54,5.41-6.59,3.6-11.58,9.39-14.95,17.37l-3.91-2.3c3.37-7.67,8.47-13.72,15.29-18.17,6.82-4.45,15.52-6.67,26.1-6.67,12.42,0,22.08,3.38,28.98,10.12,6.9,6.75,10.35,16.33,10.35,28.75v78.2h19.55v4.37h-17.71ZM133.42,222.27c5.37,0,10.5-.69,15.41-2.06,4.91-1.37,9.2-3.4,12.88-6.07s6.63-6.03,8.85-10.08c2.22-4.05,3.33-8.74,3.33-14.09v-24.97h-34.27c-14.57,0-24.92,2.37-31.05,7.1-6.13,4.74-9.2,10.85-9.2,18.33v7.33c0,7.94,3.14,14.02,9.43,18.21,6.29,4.2,14.49,6.3,24.61,6.3Z"/><path class="cls-1" d="M320.87,223.88c-3.53,0-6.06-.85-7.59-2.56-1.53-1.71-2.38-4.11-2.53-7.22v-8.62h-.92c-2.76,5.89-7.21,10.89-13.34,15-6.13,4.1-14.57,6.16-25.3,6.16-12.73,0-22.54-2.91-29.44-8.74-6.9-5.83-10.35-14.11-10.35-24.84,0-4.91.77-9.43,2.3-13.57,1.53-4.14,4.14-7.71,7.82-10.7,3.68-2.99,8.51-5.29,14.49-6.9,5.98-1.61,13.34-2.42,22.08-2.42h32.43v-17.02c0-11.19-2.95-19.47-8.85-24.84-5.9-5.37-13.99-8.05-24.27-8.05-8.28,0-15.56,1.72-21.85,5.17-6.29,3.45-11.04,8.85-14.26,16.21l-5.98-3.91c3.22-7.36,8.32-13.3,15.29-17.83,6.98-4.52,15.98-6.79,27.02-6.79,12.88,0,22.92,3.41,30.13,10.24,7.21,6.82,10.81,16.45,10.81,28.87v75.21h18.86v7.13h-16.56ZM271.88,219.51c5.21,0,10.16-.65,14.83-1.94,4.68-1.3,8.78-3.21,12.31-5.72,3.53-2.52,6.32-5.61,8.4-9.28,2.07-3.67,3.1-7.94,3.1-12.83v-23.82h-32.2c-13.65,0-23.42,2.18-29.32,6.53-5.9,4.35-8.85,10.04-8.85,17.06v6.87c0,7.48,2.91,13.21,8.74,17.17,5.83,3.97,13.49,5.96,23,5.96Z"/><path class="cls-1" d="M462.31,223.88c-5.37,0-9.2-1.3-11.5-3.91-2.3-2.61-3.6-6.13-3.91-10.58v-4.14h-1.15c-2.61,6.29-6.9,11.42-12.88,15.41s-14.11,5.98-24.38,5.98c-12.42,0-22.2-3.03-29.33-9.08-7.13-6.06-10.69-14.6-10.69-25.64,0-5.21.88-9.93,2.65-14.15,1.76-4.21,4.6-7.78,8.51-10.69,3.91-2.91,8.93-5.18,15.06-6.79,6.13-1.61,13.65-2.42,22.54-2.42h28.98v-14.42c0-9.91-2.72-17.31-8.17-22.19-5.44-4.88-12.99-7.32-22.65-7.32-16.25,0-27.6,6.44-34.04,19.32l-8.97-6.44c3.07-6.9,8.24-12.69,15.52-17.37,7.28-4.68,16.67-7.02,28.17-7.02,13.49,0,24.07,3.49,31.74,10.47,7.67,6.98,11.5,16.67,11.5,29.09v70.38h17.71v11.5h-14.72ZM410.56,215.6c5.06,0,9.74-.61,14.03-1.84,4.29-1.23,8.05-2.95,11.27-5.17,3.22-2.22,5.75-4.95,7.59-8.17s2.76-6.82,2.76-10.81v-21.85h-28.98c-12.42,0-21.35,1.88-26.79,5.63-5.44,3.76-8.17,8.86-8.17,15.29v5.98c0,6.9,2.57,12.11,7.71,15.64,5.14,3.53,12,5.29,20.58,5.29Z"/><path class="cls-1" d="M603.99,223.88c-7.21,0-12.34-1.84-15.41-5.52-3.07-3.68-4.98-8.28-5.75-13.8h-1.15c-2.61,6.9-6.79,12.31-12.54,16.21-5.75,3.91-13.46,5.87-23.11,5.87-12.42,0-22.31-3.22-29.67-9.66-7.36-6.44-11.04-15.25-11.04-26.45s4.02-19.55,12.07-25.53c8.05-5.98,21.04-8.97,38.99-8.97h25.3v-11.66c0-8.69-2.45-15.2-7.36-19.55-4.91-4.34-11.88-6.52-20.93-6.52-7.97,0-14.49,1.57-19.55,4.71-5.06,3.14-9.12,7.4-12.19,12.77l-12.42-9.2c1.53-3.07,3.6-6.07,6.21-9.01,2.61-2.94,5.83-5.53,9.66-7.79,3.83-2.26,8.2-4.05,13.11-5.37,4.91-1.32,10.35-1.98,16.33-1.98,13.95,0,25.03,3.54,33.23,10.61,8.2,7.07,12.31,16.9,12.31,29.5v65.46h16.56v15.87h-12.65ZM549.25,211.23c4.75,0,9.08-.57,13-1.72s7.32-2.68,10.23-4.6c2.91-1.92,5.18-4.22,6.79-6.9,1.61-2.68,2.42-5.56,2.42-8.62v-19.55h-25.3c-11.04,0-19.09,1.53-24.15,4.6-5.06,3.07-7.59,7.51-7.59,13.34v4.83c0,6.13,2.19,10.77,6.56,13.92,4.37,3.14,10.39,4.71,18.05,4.71Z"/><path class="cls-1" d="M741.3,223.88c-7.21,0-12.61-1.84-16.22-5.52-3.6-3.68-5.79-8.51-6.55-14.49h-1.15c-2.3,7.21-6.48,12.8-12.54,16.79-6.06,3.99-13.76,5.98-23.12,5.98-12.11,0-21.77-3.18-28.98-9.54-7.21-6.36-10.81-15.14-10.81-26.33s4.26-20.28,12.77-26.33c8.51-6.06,21.58-9.08,39.21-9.08h22.77v-9.2c0-16.1-8.51-24.15-25.53-24.15-7.67,0-13.88,1.5-18.63,4.48-4.75,2.99-8.74,6.94-11.96,11.85l-14.95-12.19c3.37-6.44,9.05-12,17.02-16.67,7.97-4.68,18.25-7.02,30.82-7.02,15.03,0,26.83,3.6,35.42,10.81,8.59,7.21,12.88,17.63,12.88,31.28v59.57h14.95v19.78h-15.41ZM688.86,208.24c8.13,0,14.8-1.83,20.01-5.48,5.21-3.66,7.82-8.38,7.82-14.17v-17.14h-22.31c-18.09,0-27.14,5.41-27.14,16.23v4.57c0,5.33,1.92,9.33,5.75,12,3.83,2.67,9.12,4,15.87,4Z"/><path class="cls-1" d="M878.84,223.88c-7.21,0-12.77-1.8-16.68-5.41-3.91-3.6-6.25-8.62-7.02-15.06h-1.15c-2.15,7.36-6.36,13.07-12.65,17.13-6.29,4.06-14.03,6.09-23.23,6.09-11.96,0-21.47-3.14-28.52-9.43-7.05-6.29-10.58-15.03-10.58-26.22,0-23.92,17.56-35.88,52.67-35.88h20.93v-7.82c0-7.51-1.84-13.19-5.52-17.02-3.68-3.83-9.66-5.75-17.94-5.75-7.51,0-13.57,1.46-18.17,4.37-4.6,2.92-8.51,6.67-11.73,11.27l-16.79-14.26c3.68-6.59,9.62-12.15,17.82-16.67,8.2-4.52,18.82-6.79,31.85-6.79,15.64,0,27.87,3.64,36.69,10.93,8.82,7.28,13.23,18.13,13.23,32.54v55.89h14.03v22.08h-17.25ZM828.01,206.4c7.05,0,12.92-1.65,17.59-4.94,4.68-3.3,7.02-7.78,7.02-13.46v-15.87h-20.24c-16.1,0-24.15,5.06-24.15,15.18v4.6c0,4.75,1.76,8.36,5.29,10.81,3.53,2.46,8.36,3.68,14.49,3.68Z"/><path class="cls-1" d="M1016.14,223.88c-7.05,0-12.73-1.8-17.02-5.41-4.29-3.6-6.82-8.78-7.59-15.52h-1.15c-2.15,7.82-6.4,13.72-12.77,17.71-6.36,3.99-14.15,5.98-23.34,5.98-11.5,0-20.74-3.1-27.72-9.31-6.98-6.21-10.46-14.91-10.46-26.11,0-12.42,4.52-21.62,13.57-27.6,9.05-5.98,22.31-8.97,39.79-8.97h19.09v-5.98c0-7.05-1.65-12.38-4.95-15.99-3.3-3.6-8.85-5.4-16.67-5.4-7.21,0-13.03,1.38-17.48,4.14-4.45,2.76-8.28,6.36-11.5,10.81l-18.63-16.56c3.99-6.75,10.23-12.3,18.74-16.67,8.51-4.37,19.44-6.56,32.78-6.56,16.25,0,28.94,3.72,38.06,11.16,9.12,7.44,13.69,18.67,13.69,33.7v51.98h13.11v24.61h-19.55ZM967.15,204.33c5.98,0,11.04-1.46,15.18-4.37,4.14-2.91,6.21-7.13,6.21-12.65v-14.26h-18.17c-13.95,0-20.93,4.68-20.93,14.03v4.6c0,4.14,1.61,7.29,4.83,9.43,3.22,2.15,7.51,3.22,12.88,3.22Z"/><path class="cls-1" d="M182.87,387.22c-3.53,0-6.06-.85-7.59-2.56-1.53-1.71-2.38-4.11-2.53-7.22v-8.62h-.92c-2.76,5.89-7.21,10.89-13.34,15-6.13,4.1-14.57,6.16-25.3,6.16-12.73,0-22.54-2.91-29.44-8.74-6.9-5.83-10.35-14.11-10.35-24.84,0-4.91.77-9.43,2.3-13.57,1.53-4.14,4.14-7.71,7.82-10.7,3.68-2.99,8.51-5.29,14.49-6.9,5.98-1.61,13.34-2.42,22.08-2.42h32.43v-17.02c0-11.19-2.95-19.47-8.85-24.84-5.9-5.37-13.99-8.05-24.27-8.05-8.28,0-15.56,1.72-21.85,5.17-6.29,3.45-11.04,8.85-14.26,16.21l-5.98-3.91c3.22-7.36,8.32-13.3,15.29-17.83,6.98-4.52,15.98-6.79,27.02-6.79,12.88,0,22.92,3.41,30.13,10.24,7.21,6.82,10.81,16.45,10.81,28.87v75.21h18.86v7.13h-16.56ZM133.88,382.85c5.21,0,10.16-.65,14.83-1.94,4.68-1.3,8.78-3.21,12.31-5.72,3.53-2.52,6.32-5.61,8.4-9.28,2.07-3.67,3.1-7.94,3.1-12.83v-23.82h-32.2c-13.65,0-23.42,2.18-29.32,6.53-5.9,4.35-8.85,10.04-8.85,17.06v6.87c0,7.48,2.91,13.21,8.74,17.17,5.83,3.97,13.49,5.96,23,5.96Z"/><path class="cls-1" d="M324.32,387.22c-5.37,0-9.2-1.3-11.5-3.91-2.3-2.61-3.6-6.13-3.91-10.58v-4.14h-1.15c-2.61,6.29-6.9,11.42-12.88,15.41s-14.11,5.98-24.38,5.98c-12.42,0-22.2-3.03-29.33-9.08-7.13-6.06-10.69-14.6-10.69-25.64,0-5.21.88-9.93,2.65-14.15,1.76-4.21,4.6-7.78,8.51-10.69,3.91-2.91,8.93-5.18,15.06-6.79,6.13-1.61,13.65-2.42,22.54-2.42h28.98v-14.42c0-9.91-2.72-17.31-8.17-22.19-5.44-4.88-12.99-7.32-22.65-7.32-16.25,0-27.6,6.44-34.04,19.32l-8.97-6.44c3.07-6.9,8.24-12.69,15.52-17.37,7.28-4.68,16.67-7.02,28.17-7.02,13.49,0,24.07,3.49,31.74,10.47,7.67,6.98,11.5,16.67,11.5,29.09v70.38h17.71v11.5h-14.72ZM272.57,378.94c5.06,0,9.74-.61,14.03-1.84,4.29-1.23,8.05-2.95,11.27-5.17,3.22-2.22,5.75-4.95,7.59-8.17s2.76-6.82,2.76-10.81v-21.85h-28.98c-12.42,0-21.35,1.88-26.79,5.63-5.44,3.76-8.17,8.86-8.17,15.29v5.98c0,6.9,2.57,12.11,7.71,15.64,5.14,3.53,12,5.29,20.58,5.29Z"/><path class="cls-1" d="M465.99,387.22c-7.21,0-12.34-1.84-15.41-5.52-3.07-3.68-4.98-8.28-5.75-13.8h-1.15c-2.61,6.9-6.79,12.31-12.54,16.21-5.75,3.91-13.46,5.87-23.11,5.87-12.42,0-22.31-3.22-29.67-9.66-7.36-6.44-11.04-15.25-11.04-26.45s4.02-19.55,12.07-25.53c8.05-5.98,21.04-8.97,38.99-8.97h25.3v-11.66c0-8.69-2.45-15.2-7.36-19.55-4.91-4.34-11.88-6.52-20.93-6.52-7.97,0-14.49,1.57-19.55,4.71-5.06,3.14-9.12,7.4-12.19,12.77l-12.42-9.2c1.53-3.07,3.6-6.07,6.21-9.01,2.61-2.94,5.83-5.53,9.66-7.79,3.83-2.26,8.2-4.05,13.11-5.37,4.91-1.32,10.35-1.98,16.33-1.98,13.95,0,25.03,3.54,33.23,10.61,8.2,7.07,12.31,16.9,12.31,29.5v65.46h16.56v15.87h-12.65ZM411.25,374.57c4.75,0,9.08-.57,13-1.72s7.32-2.68,10.23-4.6c2.91-1.92,5.18-4.22,6.79-6.9,1.61-2.68,2.42-5.56,2.42-8.62v-19.55h-25.3c-11.04,0-19.09,1.53-24.15,4.6-5.06,3.07-7.59,7.51-7.59,13.34v4.83c0,6.13,2.19,10.77,6.56,13.92,4.37,3.14,10.39,4.71,18.05,4.71Z"/><path class="cls-1" d="M603.3,387.22c-7.21,0-12.61-1.84-16.22-5.52-3.6-3.68-5.79-8.51-6.55-14.49h-1.15c-2.3,7.21-6.48,12.8-12.54,16.79-6.06,3.99-13.76,5.98-23.12,5.98-12.11,0-21.77-3.18-28.98-9.54-7.21-6.36-10.81-15.14-10.81-26.33s4.26-20.28,12.77-26.33c8.51-6.06,21.58-9.08,39.21-9.08h22.77v-9.2c0-16.1-8.51-24.15-25.53-24.15-7.67,0-13.88,1.5-18.63,4.48-4.75,2.99-8.74,6.94-11.96,11.85l-14.95-12.19c3.37-6.44,9.05-12,17.02-16.67,7.97-4.68,18.25-7.02,30.82-7.02,15.03,0,26.83,3.6,35.42,10.81,8.59,7.21,12.88,17.63,12.88,31.28v59.57h14.95v19.78h-15.41ZM550.86,371.58c8.13,0,14.8-1.83,20.01-5.48,5.21-3.66,7.82-8.38,7.82-14.17v-17.14h-22.31c-18.09,0-27.14,5.41-27.14,16.23v4.57c0,5.33,1.92,9.33,5.75,12,3.83,2.67,9.12,4,15.87,4Z"/><path class="cls-1" d="M740.84,387.22c-7.21,0-12.77-1.8-16.68-5.41-3.91-3.6-6.25-8.62-7.02-15.06h-1.15c-2.15,7.36-6.36,13.07-12.65,17.13-6.29,4.06-14.03,6.09-23.23,6.09-11.96,0-21.47-3.14-28.52-9.43-7.05-6.29-10.58-15.03-10.58-26.22,0-23.92,17.56-35.88,52.67-35.88h20.93v-7.82c0-7.51-1.84-13.19-5.52-17.02-3.68-3.83-9.66-5.75-17.94-5.75-7.51,0-13.57,1.46-18.17,4.37-4.6,2.92-8.51,6.67-11.73,11.27l-16.79-14.26c3.68-6.59,9.62-12.15,17.82-16.67,8.2-4.52,18.82-6.79,31.85-6.79,15.64,0,27.87,3.64,36.69,10.93,8.82,7.28,13.23,18.13,13.23,32.54v55.89h14.03v22.08h-17.25ZM690.01,369.74c7.05,0,12.92-1.65,17.59-4.94,4.68-3.3,7.02-7.78,7.02-13.46v-15.87h-20.24c-16.1,0-24.15,5.06-24.15,15.18v4.6c0,4.75,1.76,8.36,5.29,10.81,3.53,2.46,8.36,3.68,14.49,3.68Z"/><path class="cls-1" d="M878.15,387.22c-7.05,0-12.73-1.8-17.02-5.41-4.29-3.6-6.82-8.78-7.59-15.52h-1.15c-2.15,7.82-6.4,13.72-12.77,17.71-6.36,3.99-14.15,5.98-23.34,5.98-11.5,0-20.74-3.1-27.72-9.31-6.98-6.21-10.46-14.91-10.46-26.11,0-12.42,4.52-21.62,13.57-27.6,9.05-5.98,22.31-8.97,39.79-8.97h19.09v-5.98c0-7.05-1.65-12.38-4.95-15.99-3.3-3.6-8.85-5.4-16.67-5.4-7.21,0-13.03,1.38-17.48,4.14-4.45,2.76-8.28,6.36-11.5,10.81l-18.63-16.56c3.99-6.75,10.23-12.3,18.74-16.67,8.51-4.37,19.44-6.56,32.78-6.56,16.25,0,28.94,3.72,38.06,11.16,9.12,7.44,13.69,18.67,13.69,33.7v51.98h13.11v24.61h-19.55ZM829.16,367.67c5.98,0,11.04-1.46,15.18-4.37,4.14-2.91,6.21-7.13,6.21-12.65v-14.26h-18.17c-13.95,0-20.93,4.68-20.93,14.03v4.6c0,4.14,1.61,7.29,4.83,9.43,3.22,2.15,7.51,3.22,12.88,3.22Z"/><path class="cls-1" d="M1008.55,387.22c-4.45,0-6.67-2.22-6.67-6.67v-11.04h-.69c-2.91,5.52-7.48,10.31-13.69,14.38s-14.91,6.09-26.1,6.09c-12.73,0-22.46-2.8-29.21-8.39-6.75-5.6-10.12-13.69-10.12-24.27,0-4.75.73-9.2,2.19-13.34,1.46-4.14,3.91-7.67,7.36-10.58,3.45-2.91,8.09-5.21,13.92-6.9,5.83-1.69,13.11-2.53,21.85-2.53h34.5v-18.63c0-11.96-3.07-20.82-9.2-26.57-6.13-5.75-14.57-8.62-25.3-8.62-8.43,0-15.95,1.8-22.54,5.41-6.59,3.6-11.58,9.39-14.95,17.37l-3.91-2.3c3.37-7.67,8.47-13.72,15.29-18.17,6.82-4.45,15.52-6.67,26.1-6.67,12.42,0,22.08,3.38,28.98,10.12,6.9,6.75,10.35,16.33,10.35,28.75v78.2h19.55v4.37h-17.71ZM961.4,385.61c5.37,0,10.5-.69,15.41-2.06,4.91-1.37,9.2-3.4,12.88-6.07s6.63-6.03,8.85-10.08c2.22-4.05,3.33-8.74,3.33-14.09v-24.97h-34.27c-14.57,0-24.92,2.37-31.05,7.1-6.13,4.74-9.2,10.85-9.2,18.33v7.33c0,7.94,3.14,14.02,9.43,18.21,6.29,4.2,14.49,6.3,24.61,6.3Z"/><path class="cls-1" d="M186.32,550.57c-5.37,0-9.2-1.3-11.5-3.91-2.3-2.61-3.6-6.13-3.91-10.58v-4.14h-1.15c-2.61,6.29-6.9,11.42-12.88,15.41s-14.11,5.98-24.38,5.98c-12.42,0-22.2-3.03-29.33-9.08-7.13-6.06-10.69-14.6-10.69-25.64,0-5.21.88-9.93,2.65-14.15,1.76-4.21,4.6-7.78,8.51-10.69,3.91-2.91,8.93-5.18,15.06-6.79,6.13-1.61,13.65-2.42,22.54-2.42h28.98v-14.42c0-9.91-2.72-17.31-8.17-22.19-5.44-4.88-12.99-7.32-22.65-7.32-16.25,0-27.6,6.44-34.04,19.32l-8.97-6.44c3.07-6.9,8.24-12.69,15.52-17.37,7.28-4.68,16.67-7.02,28.17-7.02,13.49,0,24.07,3.49,31.74,10.47,7.67,6.98,11.5,16.67,11.5,29.09v70.38h17.71v11.5h-14.72ZM134.57,542.29c5.06,0,9.74-.61,14.03-1.84,4.29-1.23,8.05-2.95,11.27-5.17,3.22-2.22,5.75-4.95,7.59-8.17s2.76-6.82,2.76-10.81v-21.85h-28.98c-12.42,0-21.35,1.88-26.79,5.63-5.44,3.76-8.17,8.86-8.17,15.29v5.98c0,6.9,2.57,12.11,7.71,15.64,5.14,3.53,12,5.29,20.58,5.29Z"/><path class="cls-1" d="M328,550.57c-7.21,0-12.34-1.84-15.41-5.52-3.07-3.68-4.98-8.28-5.75-13.8h-1.15c-2.61,6.9-6.79,12.31-12.54,16.21-5.75,3.91-13.46,5.87-23.11,5.87-12.42,0-22.31-3.22-29.67-9.66-7.36-6.44-11.04-15.25-11.04-26.45s4.02-19.55,12.07-25.53c8.05-5.98,21.04-8.97,38.99-8.97h25.3v-11.66c0-8.69-2.45-15.2-7.36-19.55-4.91-4.34-11.88-6.52-20.93-6.52-7.97,0-14.49,1.57-19.55,4.71-5.06,3.14-9.12,7.4-12.19,12.77l-12.42-9.2c1.53-3.07,3.6-6.07,6.21-9.01,2.61-2.94,5.83-5.53,9.66-7.79,3.83-2.26,8.2-4.05,13.11-5.37,4.91-1.32,10.35-1.98,16.33-1.98,13.95,0,25.03,3.54,33.23,10.61,8.2,7.07,12.31,16.9,12.31,29.5v65.46h16.56v15.87h-12.65ZM273.25,537.92c4.75,0,9.08-.57,13-1.72s7.32-2.68,10.23-4.6c2.91-1.92,5.18-4.22,6.79-6.9,1.61-2.68,2.42-5.56,2.42-8.62v-19.55h-25.3c-11.04,0-19.09,1.53-24.15,4.6-5.06,3.07-7.59,7.51-7.59,13.34v4.83c0,6.13,2.19,10.77,6.56,13.92,4.37,3.14,10.39,4.71,18.05,4.71Z"/><path class="cls-1" d="M465.3,550.57c-7.21,0-12.61-1.84-16.22-5.52-3.6-3.68-5.79-8.51-6.55-14.49h-1.15c-2.3,7.21-6.48,12.8-12.54,16.79-6.06,3.99-13.76,5.98-23.12,5.98-12.11,0-21.77-3.18-28.98-9.54-7.21-6.36-10.81-15.14-10.81-26.33s4.26-20.28,12.77-26.33c8.51-6.06,21.58-9.08,39.21-9.08h22.77v-9.2c0-16.1-8.51-24.15-25.53-24.15-7.67,0-13.88,1.5-18.63,4.48-4.75,2.99-8.74,6.94-11.96,11.85l-14.95-12.19c3.37-6.44,9.05-12,17.02-16.67,7.97-4.68,18.25-7.02,30.82-7.02,15.03,0,26.83,3.6,35.42,10.81,8.59,7.21,12.88,17.63,12.88,31.28v59.57h14.95v19.78h-15.41ZM412.86,534.93c8.13,0,14.8-1.83,20.01-5.48,5.21-3.66,7.82-8.38,7.82-14.17v-17.14h-22.31c-18.09,0-27.14,5.41-27.14,16.23v4.57c0,5.33,1.92,9.33,5.75,12,3.83,2.67,9.12,4,15.87,4Z"/><path class="cls-1" d="M602.84,550.57c-7.21,0-12.77-1.8-16.68-5.41-3.91-3.6-6.25-8.62-7.02-15.06h-1.15c-2.15,7.36-6.36,13.07-12.65,17.13-6.29,4.06-14.03,6.09-23.23,6.09-11.96,0-21.47-3.14-28.52-9.43-7.05-6.29-10.58-15.03-10.58-26.22,0-23.92,17.56-35.88,52.67-35.88h20.93v-7.82c0-7.51-1.84-13.19-5.52-17.02-3.68-3.83-9.66-5.75-17.94-5.75-7.51,0-13.57,1.46-18.17,4.37-4.6,2.92-8.51,6.67-11.73,11.27l-16.79-14.26c3.68-6.59,9.62-12.15,17.82-16.67,8.2-4.52,18.82-6.79,31.85-6.79,15.64,0,27.87,3.64,36.69,10.93,8.82,7.28,13.23,18.13,13.23,32.54v55.89h14.03v22.08h-17.25ZM552.01,533.09c7.05,0,12.92-1.65,17.59-4.94,4.68-3.3,7.02-7.78,7.02-13.46v-15.87h-20.24c-16.1,0-24.15,5.06-24.15,15.18v4.6c0,4.75,1.76,8.36,5.29,10.81,3.53,2.46,8.36,3.68,14.49,3.68Z"/><path class="cls-1" d="M740.15,550.57c-7.05,0-12.73-1.8-17.02-5.41-4.29-3.6-6.82-8.78-7.59-15.52h-1.15c-2.15,7.82-6.4,13.72-12.77,17.71-6.36,3.99-14.15,5.98-23.34,5.98-11.5,0-20.74-3.1-27.72-9.31-6.98-6.21-10.46-14.91-10.46-26.11,0-12.42,4.52-21.62,13.57-27.6,9.05-5.98,22.31-8.97,39.79-8.97h19.09v-5.98c0-7.05-1.65-12.38-4.95-15.99-3.3-3.6-8.85-5.4-16.67-5.4-7.21,0-13.03,1.38-17.48,4.14-4.45,2.76-8.28,6.36-11.5,10.81l-18.63-16.56c3.99-6.75,10.23-12.3,18.74-16.67,8.51-4.37,19.44-6.56,32.78-6.56,16.25,0,28.94,3.72,38.06,11.16,9.12,7.44,13.69,18.67,13.69,33.7v51.98h13.11v24.61h-19.55ZM691.16,531.02c5.98,0,11.04-1.46,15.18-4.37,4.14-2.91,6.21-7.13,6.21-12.65v-14.26h-18.17c-13.95,0-20.93,4.68-20.93,14.03v4.6c0,4.14,1.61,7.29,4.83,9.43,3.22,2.15,7.51,3.22,12.88,3.22Z"/><path class="cls-1" d="M870.56,550.57c-4.45,0-6.67-2.22-6.67-6.67v-11.04h-.69c-2.91,5.52-7.48,10.31-13.69,14.38s-14.91,6.09-26.1,6.09c-12.73,0-22.46-2.8-29.21-8.39-6.75-5.6-10.12-13.69-10.12-24.27,0-4.75.73-9.2,2.19-13.34,1.46-4.14,3.91-7.67,7.36-10.58,3.45-2.91,8.09-5.21,13.92-6.9,5.83-1.69,13.11-2.53,21.85-2.53h34.5v-18.63c0-11.96-3.07-20.82-9.2-26.57-6.13-5.75-14.57-8.62-25.3-8.62-8.43,0-15.95,1.8-22.54,5.41-6.59,3.6-11.58,9.39-14.95,17.37l-3.91-2.3c3.37-7.67,8.47-13.72,15.29-18.17,6.82-4.45,15.52-6.67,26.1-6.67,12.42,0,22.08,3.38,28.98,10.12,6.9,6.75,10.35,16.33,10.35,28.75v78.2h19.55v4.37h-17.71ZM823.41,548.96c5.37,0,10.5-.69,15.41-2.06,4.91-1.37,9.2-3.4,12.88-6.07s6.63-6.03,8.85-10.08c2.22-4.05,3.33-8.74,3.33-14.09v-24.97h-34.27c-14.57,0-24.92,2.37-31.05,7.1-6.13,4.74-9.2,10.85-9.2,18.33v7.33c0,7.94,3.14,14.02,9.43,18.21,6.29,4.2,14.49,6.3,24.61,6.3Z"/><path class="cls-1" d="M1010.85,550.57c-3.53,0-6.06-.85-7.59-2.56-1.53-1.71-2.38-4.11-2.53-7.22v-8.62h-.92c-2.76,5.89-7.21,10.89-13.34,15-6.13,4.1-14.57,6.16-25.3,6.16-12.73,0-22.54-2.91-29.44-8.74-6.9-5.83-10.35-14.11-10.35-24.84,0-4.91.77-9.43,2.3-13.57,1.53-4.14,4.14-7.71,7.82-10.7,3.68-2.99,8.51-5.29,14.49-6.9,5.98-1.61,13.34-2.42,22.08-2.42h32.43v-17.02c0-11.19-2.95-19.47-8.85-24.84-5.9-5.37-13.99-8.05-24.27-8.05-8.28,0-15.56,1.72-21.85,5.17-6.29,3.45-11.04,8.85-14.26,16.21l-5.98-3.91c3.22-7.36,8.32-13.3,15.29-17.83,6.98-4.52,15.98-6.79,27.02-6.79,12.88,0,22.92,3.41,30.13,10.24,7.21,6.82,10.81,16.45,10.81,28.87v75.21h18.86v7.13h-16.56ZM961.86,546.2c5.21,0,10.16-.65,14.83-1.94,4.68-1.3,8.78-3.21,12.31-5.72,3.53-2.52,6.32-5.61,8.4-9.28,2.07-3.67,3.1-7.94,3.1-12.83v-23.82h-32.2c-13.65,0-23.42,2.18-29.32,6.53-5.9,4.35-8.85,10.04-8.85,17.06v6.87c0,7.48,2.91,13.21,8.74,17.17,5.83,3.97,13.49,5.96,23,5.96Z"/><path class="cls-1" d="M190,713.91c-7.21,0-12.34-1.84-15.41-5.52-3.07-3.68-4.98-8.28-5.75-13.8h-1.15c-2.61,6.9-6.79,12.31-12.54,16.21-5.75,3.91-13.46,5.87-23.11,5.87-12.42,0-22.31-3.22-29.67-9.66-7.36-6.44-11.04-15.25-11.04-26.45s4.02-19.55,12.07-25.53c8.05-5.98,21.04-8.97,38.99-8.97h25.3v-11.66c0-8.69-2.45-15.2-7.36-19.55-4.91-4.34-11.88-6.52-20.93-6.52-7.97,0-14.49,1.57-19.55,4.71-5.06,3.14-9.12,7.4-12.19,12.77l-12.42-9.2c1.53-3.07,3.6-6.07,6.21-9.01,2.61-2.94,5.83-5.53,9.66-7.79,3.83-2.26,8.2-4.05,13.11-5.37,4.91-1.32,10.35-1.98,16.33-1.98,13.95,0,25.03,3.54,33.23,10.61,8.2,7.07,12.31,16.9,12.31,29.5v65.46h16.56v15.87h-12.65ZM135.26,701.26c4.75,0,9.08-.57,13-1.72s7.32-2.68,10.23-4.6c2.91-1.92,5.18-4.22,6.79-6.9,1.61-2.68,2.42-5.56,2.42-8.62v-19.55h-25.3c-11.04,0-19.09,1.53-24.15,4.6-5.06,3.07-7.59,7.51-7.59,13.34v4.83c0,6.13,2.19,10.77,6.56,13.92,4.37,3.14,10.39,4.71,18.05,4.71Z"/><path class="cls-1" d="M327.31,713.91c-7.21,0-12.61-1.84-16.22-5.52-3.6-3.68-5.79-8.51-6.55-14.49h-1.15c-2.3,7.21-6.48,12.8-12.54,16.79-6.06,3.99-13.76,5.98-23.12,5.98-12.11,0-21.77-3.18-28.98-9.54-7.21-6.36-10.81-15.14-10.81-26.33s4.26-20.28,12.77-26.33c8.51-6.06,21.58-9.08,39.21-9.08h22.77v-9.2c0-16.1-8.51-24.15-25.53-24.15-7.67,0-13.88,1.5-18.63,4.48-4.75,2.99-8.74,6.94-11.96,11.85l-14.95-12.19c3.37-6.44,9.05-12,17.02-16.67,7.97-4.68,18.25-7.02,30.82-7.02,15.03,0,26.83,3.6,35.42,10.81,8.59,7.21,12.88,17.63,12.88,31.28v59.57h14.95v19.78h-15.41ZM274.87,698.27c8.13,0,14.8-1.83,20.01-5.48,5.21-3.66,7.82-8.38,7.82-14.17v-17.14h-22.31c-18.09,0-27.14,5.41-27.14,16.23v4.57c0,5.33,1.92,9.33,5.75,12,3.83,2.67,9.12,4,15.87,4Z"/><path class="cls-1" d="M464.84,713.91c-7.21,0-12.77-1.8-16.68-5.41-3.91-3.6-6.25-8.62-7.02-15.06h-1.15c-2.15,7.36-6.36,13.07-12.65,17.13-6.29,4.06-14.03,6.09-23.23,6.09-11.96,0-21.47-3.14-28.52-9.43-7.05-6.29-10.58-15.03-10.58-26.22,0-23.92,17.56-35.88,52.67-35.88h20.93v-7.82c0-7.51-1.84-13.19-5.52-17.02-3.68-3.83-9.66-5.75-17.94-5.75-7.51,0-13.57,1.46-18.17,4.37-4.6,2.92-8.51,6.67-11.73,11.27l-16.79-14.26c3.68-6.59,9.62-12.15,17.82-16.67,8.2-4.52,18.82-6.79,31.85-6.79,15.64,0,27.87,3.64,36.69,10.93,8.82,7.28,13.23,18.13,13.23,32.54v55.89h14.03v22.08h-17.25ZM414.01,696.43c7.05,0,12.92-1.65,17.59-4.94,4.68-3.3,7.02-7.78,7.02-13.46v-15.87h-20.24c-16.1,0-24.15,5.06-24.15,15.18v4.6c0,4.75,1.76,8.36,5.29,10.81,3.53,2.46,8.36,3.68,14.49,3.68Z"/><path class="cls-1" d="M602.15,713.91c-7.05,0-12.73-1.8-17.02-5.41-4.29-3.6-6.82-8.78-7.59-15.52h-1.15c-2.15,7.82-6.4,13.72-12.77,17.71-6.36,3.99-14.15,5.98-23.34,5.98-11.5,0-20.74-3.1-27.72-9.31-6.98-6.21-10.46-14.91-10.46-26.11,0-12.42,4.52-21.62,13.57-27.6,9.05-5.98,22.31-8.97,39.79-8.97h19.09v-5.98c0-7.05-1.65-12.38-4.95-15.99-3.3-3.6-8.85-5.4-16.67-5.4-7.21,0-13.03,1.38-17.48,4.14-4.45,2.76-8.28,6.36-11.5,10.81l-18.63-16.56c3.99-6.75,10.23-12.3,18.74-16.67,8.51-4.37,19.44-6.56,32.78-6.56,16.25,0,28.94,3.72,38.06,11.16,9.12,7.44,13.69,18.67,13.69,33.7v51.98h13.11v24.61h-19.55ZM553.16,694.36c5.98,0,11.04-1.46,15.18-4.37,4.14-2.91,6.21-7.13,6.21-12.65v-14.26h-18.17c-13.95,0-20.93,4.68-20.93,14.03v4.6c0,4.14,1.61,7.29,4.83,9.43,3.22,2.15,7.51,3.22,12.88,3.22Z"/><path class="cls-1" d="M732.56,713.91c-4.45,0-6.67-2.22-6.67-6.67v-11.04h-.69c-2.91,5.52-7.48,10.31-13.69,14.38s-14.91,6.09-26.1,6.09c-12.73,0-22.46-2.8-29.21-8.39-6.75-5.6-10.12-13.69-10.12-24.27,0-4.75.73-9.2,2.19-13.34,1.46-4.14,3.91-7.67,7.36-10.58,3.45-2.91,8.09-5.21,13.92-6.9,5.83-1.69,13.11-2.53,21.85-2.53h34.5v-18.63c0-11.96-3.07-20.82-9.2-26.57-6.13-5.75-14.57-8.62-25.3-8.62-8.43,0-15.95,1.8-22.54,5.41-6.59,3.6-11.58,9.39-14.95,17.37l-3.91-2.3c3.37-7.67,8.47-13.72,15.29-18.17,6.82-4.45,15.52-6.67,26.1-6.67,12.42,0,22.08,3.38,28.98,10.12,6.9,6.75,10.35,16.33,10.35,28.75v78.2h19.55v4.37h-17.71ZM685.41,712.3c5.37,0,10.5-.69,15.41-2.06,4.91-1.37,9.2-3.4,12.88-6.07s6.63-6.03,8.85-10.08c2.22-4.05,3.33-8.74,3.33-14.09v-24.97h-34.27c-14.57,0-24.92,2.37-31.05,7.1-6.13,4.74-9.2,10.85-9.2,18.33v7.33c0,7.94,3.14,14.02,9.43,18.21,6.29,4.2,14.49,6.3,24.61,6.3Z"/><path class="cls-1" d="M872.86,713.91c-3.53,0-6.06-.85-7.59-2.56-1.53-1.71-2.38-4.11-2.53-7.22v-8.62h-.92c-2.76,5.89-7.21,10.89-13.34,15-6.13,4.1-14.57,6.16-25.3,6.16-12.73,0-22.54-2.91-29.44-8.74-6.9-5.83-10.35-14.11-10.35-24.84,0-4.91.77-9.43,2.3-13.57,1.53-4.14,4.14-7.71,7.82-10.7,3.68-2.99,8.51-5.29,14.49-6.9,5.98-1.61,13.34-2.42,22.08-2.42h32.43v-17.02c0-11.19-2.95-19.47-8.85-24.84-5.9-5.37-13.99-8.05-24.27-8.05-8.28,0-15.56,1.72-21.85,5.17-6.29,3.45-11.04,8.85-14.26,16.21l-5.98-3.91c3.22-7.36,8.32-13.3,15.29-17.83,6.98-4.52,15.98-6.79,27.02-6.79,12.88,0,22.92,3.41,30.13,10.24,7.21,6.82,10.81,16.45,10.81,28.87v75.21h18.86v7.13h-16.56ZM823.87,709.54c5.21,0,10.16-.65,14.83-1.94,4.68-1.3,8.78-3.21,12.31-5.72,3.53-2.52,6.32-5.61,8.4-9.28,2.07-3.67,3.1-7.94,3.1-12.83v-23.82h-32.2c-13.65,0-23.42,2.18-29.32,6.53-5.9,4.35-8.85,10.04-8.85,17.06v6.87c0,7.48,2.91,13.21,8.74,17.17,5.83,3.97,13.49,5.96,23,5.96Z"/><path class="cls-1" d="M1014.3,713.91c-5.37,0-9.2-1.3-11.5-3.91-2.3-2.61-3.6-6.13-3.91-10.58v-4.14h-1.15c-2.61,6.29-6.9,11.42-12.88,15.41s-14.11,5.98-24.38,5.98c-12.42,0-22.2-3.03-29.33-9.08-7.13-6.06-10.69-14.6-10.69-25.64,0-5.21.88-9.93,2.65-14.15,1.76-4.21,4.6-7.78,8.51-10.69,3.91-2.91,8.93-5.18,15.06-6.79,6.13-1.61,13.65-2.42,22.54-2.42h28.98v-14.42c0-9.91-2.72-17.31-8.17-22.19-5.44-4.88-12.99-7.32-22.65-7.32-16.25,0-27.6,6.44-34.04,19.32l-8.97-6.44c3.07-6.9,8.24-12.69,15.52-17.37,7.28-4.68,16.67-7.02,28.17-7.02,13.49,0,24.07,3.49,31.74,10.47,7.67,6.98,11.5,16.67,11.5,29.09v70.38h17.71v11.5h-14.72ZM962.55,705.63c5.06,0,9.74-.61,14.03-1.84,4.29-1.23,8.05-2.95,11.27-5.17,3.22-2.22,5.75-4.95,7.59-8.17s2.76-6.82,2.76-10.81v-21.85h-28.98c-12.42,0-21.35,1.88-26.79,5.63-5.44,3.76-8.17,8.86-8.17,15.29v5.98c0,6.9,2.57,12.11,7.71,15.64,5.14,3.53,12,5.29,20.58,5.29Z"/><path class="cls-1" d="M189.31,877.25c-7.21,0-12.61-1.84-16.22-5.52-3.6-3.68-5.79-8.51-6.55-14.49h-1.15c-2.3,7.21-6.48,12.8-12.54,16.79-6.06,3.99-13.76,5.98-23.12,5.98-12.11,0-21.77-3.18-28.98-9.54-7.21-6.36-10.81-15.14-10.81-26.33s4.26-20.28,12.77-26.33c8.51-6.06,21.58-9.08,39.21-9.08h22.77v-9.2c0-16.1-8.51-24.15-25.53-24.15-7.67,0-13.88,1.5-18.63,4.48-4.75,2.99-8.74,6.94-11.96,11.85l-14.95-12.19c3.37-6.44,9.05-12,17.02-16.67,7.97-4.68,18.25-7.02,30.82-7.02,15.03,0,26.83,3.6,35.42,10.81,8.59,7.21,12.88,17.63,12.88,31.28v59.57h14.95v19.78h-15.41ZM136.87,861.61c8.13,0,14.8-1.83,20.01-5.48,5.21-3.66,7.82-8.38,7.82-14.17v-17.14h-22.31c-18.09,0-27.14,5.41-27.14,16.23v4.57c0,5.33,1.92,9.33,5.75,12,3.83,2.67,9.12,4,15.87,4Z"/><path class="cls-1" d="M326.85,877.25c-7.21,0-12.77-1.8-16.68-5.41-3.91-3.6-6.25-8.62-7.02-15.06h-1.15c-2.15,7.36-6.36,13.07-12.65,17.13-6.29,4.06-14.03,6.09-23.23,6.09-11.96,0-21.47-3.14-28.52-9.43-7.05-6.29-10.58-15.03-10.58-26.22,0-23.92,17.56-35.88,52.67-35.88h20.93v-7.82c0-7.51-1.84-13.19-5.52-17.02-3.68-3.83-9.66-5.75-17.94-5.75-7.51,0-13.57,1.46-18.17,4.37-4.6,2.92-8.51,6.67-11.73,11.27l-16.79-14.26c3.68-6.59,9.62-12.15,17.82-16.67,8.2-4.52,18.82-6.79,31.85-6.79,15.64,0,27.87,3.64,36.69,10.93,8.82,7.28,13.23,18.13,13.23,32.54v55.89h14.03v22.08h-17.25ZM276.02,859.77c7.05,0,12.92-1.65,17.59-4.94,4.68-3.3,7.02-7.78,7.02-13.46v-15.87h-20.24c-16.1,0-24.15,5.06-24.15,15.18v4.6c0,4.75,1.76,8.36,5.29,10.81,3.53,2.46,8.36,3.68,14.49,3.68Z"/><path class="cls-1" d="M464.15,877.25c-7.05,0-12.73-1.8-17.02-5.41-4.29-3.6-6.82-8.78-7.59-15.52h-1.15c-2.15,7.82-6.4,13.72-12.77,17.71-6.36,3.99-14.15,5.98-23.34,5.98-11.5,0-20.74-3.1-27.72-9.31-6.98-6.21-10.46-14.91-10.46-26.11,0-12.42,4.52-21.62,13.57-27.6,9.05-5.98,22.31-8.97,39.79-8.97h19.09v-5.98c0-7.05-1.65-12.38-4.95-15.99-3.3-3.6-8.85-5.4-16.67-5.4-7.21,0-13.03,1.38-17.48,4.14-4.45,2.76-8.28,6.36-11.5,10.81l-18.63-16.56c3.99-6.75,10.23-12.3,18.74-16.67,8.51-4.37,19.44-6.56,32.78-6.56,16.25,0,28.94,3.72,38.06,11.16,9.12,7.44,13.69,18.67,13.69,33.7v51.98h13.11v24.61h-19.55ZM415.16,857.7c5.98,0,11.04-1.46,15.18-4.37,4.14-2.91,6.21-7.13,6.21-12.65v-14.26h-18.17c-13.95,0-20.93,4.68-20.93,14.03v4.6c0,4.14,1.61,7.29,4.83,9.43,3.22,2.15,7.51,3.22,12.88,3.22Z"/><path class="cls-1" d="M594.56,877.25c-4.45,0-6.67-2.22-6.67-6.67v-11.04h-.69c-2.91,5.52-7.48,10.31-13.69,14.38s-14.91,6.09-26.1,6.09c-12.73,0-22.46-2.8-29.21-8.39-6.75-5.6-10.12-13.69-10.12-24.27,0-4.75.73-9.2,2.19-13.34,1.46-4.14,3.91-7.67,7.36-10.58,3.45-2.91,8.09-5.21,13.92-6.9,5.83-1.69,13.11-2.53,21.85-2.53h34.5v-18.63c0-11.96-3.07-20.82-9.2-26.57-6.13-5.75-14.57-8.62-25.3-8.62-8.43,0-15.95,1.8-22.54,5.41-6.59,3.6-11.58,9.39-14.95,17.37l-3.91-2.3c3.37-7.67,8.47-13.72,15.29-18.17,6.82-4.45,15.52-6.67,26.1-6.67,12.42,0,22.08,3.38,28.98,10.12,6.9,6.75,10.35,16.33,10.35,28.75v78.2h19.55v4.37h-17.71ZM547.41,875.64c5.37,0,10.5-.69,15.41-2.06,4.91-1.37,9.2-3.4,12.88-6.07s6.63-6.03,8.85-10.08c2.22-4.05,3.33-8.74,3.33-14.09v-24.97h-34.27c-14.57,0-24.92,2.37-31.05,7.1-6.13,4.74-9.2,10.85-9.2,18.33v7.33c0,7.94,3.14,14.02,9.43,18.21,6.29,4.2,14.49,6.3,24.61,6.3Z"/><path class="cls-1" d="M734.86,877.25c-3.53,0-6.06-.85-7.59-2.56-1.53-1.71-2.38-4.11-2.53-7.22v-8.62h-.92c-2.76,5.89-7.21,10.89-13.34,15-6.13,4.1-14.57,6.16-25.3,6.16-12.73,0-22.54-2.91-29.44-8.74-6.9-5.83-10.35-14.11-10.35-24.84,0-4.91.77-9.43,2.3-13.57,1.53-4.14,4.14-7.71,7.82-10.7,3.68-2.99,8.51-5.29,14.49-6.9,5.98-1.61,13.34-2.42,22.08-2.42h32.43v-17.02c0-11.19-2.95-19.47-8.85-24.84-5.9-5.37-13.99-8.05-24.27-8.05-8.28,0-15.56,1.72-21.85,5.17-6.29,3.45-11.04,8.85-14.26,16.21l-5.98-3.91c3.22-7.36,8.32-13.3,15.29-17.83,6.98-4.52,15.98-6.79,27.02-6.79,12.88,0,22.92,3.41,30.13,10.24,7.21,6.82,10.81,16.45,10.81,28.87v75.21h18.86v7.13h-16.56ZM685.87,872.88c5.21,0,10.16-.65,14.83-1.94,4.68-1.3,8.78-3.21,12.31-5.72,3.53-2.52,6.32-5.61,8.4-9.28,2.07-3.67,3.1-7.94,3.1-12.83v-23.82h-32.2c-13.65,0-23.42,2.18-29.32,6.53-5.9,4.35-8.85,10.04-8.85,17.06v6.87c0,7.48,2.91,13.21,8.74,17.17,5.83,3.97,13.49,5.96,23,5.96Z"/><path class="cls-1" d="M876.31,877.25c-5.37,0-9.2-1.3-11.5-3.91-2.3-2.61-3.6-6.13-3.91-10.58v-4.14h-1.15c-2.61,6.29-6.9,11.42-12.88,15.41s-14.11,5.98-24.38,5.98c-12.42,0-22.2-3.03-29.33-9.08-7.13-6.06-10.69-14.6-10.69-25.64,0-5.21.88-9.93,2.65-14.15,1.76-4.21,4.6-7.78,8.51-10.69,3.91-2.91,8.93-5.18,15.06-6.79,6.13-1.61,13.65-2.42,22.54-2.42h28.98v-14.42c0-9.91-2.72-17.31-8.17-22.19-5.44-4.88-12.99-7.32-22.65-7.32-16.25,0-27.6,6.44-34.04,19.32l-8.97-6.44c3.07-6.9,8.24-12.69,15.52-17.37,7.28-4.68,16.67-7.02,28.17-7.02,13.49,0,24.07,3.49,31.74,10.47,7.67,6.98,11.5,16.67,11.5,29.09v70.38h17.71v11.5h-14.72ZM824.56,868.97c5.06,0,9.74-.61,14.03-1.84,4.29-1.23,8.05-2.95,11.27-5.17,3.22-2.22,5.75-4.95,7.59-8.17s2.76-6.82,2.76-10.81v-21.85h-28.98c-12.42,0-21.35,1.88-26.79,5.63-5.44,3.76-8.17,8.86-8.17,15.29v5.98c0,6.9,2.57,12.11,7.71,15.64,5.14,3.53,12,5.29,20.58,5.29Z"/><path class="cls-1" d="M1017.98,877.25c-7.21,0-12.34-1.84-15.41-5.52-3.07-3.68-4.98-8.28-5.75-13.8h-1.15c-2.61,6.9-6.79,12.31-12.54,16.21-5.75,3.91-13.46,5.87-23.11,5.87-12.42,0-22.31-3.22-29.67-9.66-7.36-6.44-11.04-15.25-11.04-26.45s4.02-19.55,12.07-25.53c8.05-5.98,21.04-8.97,38.99-8.97h25.3v-11.66c0-8.69-2.45-15.2-7.36-19.55-4.91-4.34-11.88-6.52-20.93-6.52-7.97,0-14.49,1.57-19.55,4.71-5.06,3.14-9.12,7.4-12.19,12.77l-12.42-9.2c1.53-3.07,3.6-6.07,6.21-9.01,2.61-2.94,5.83-5.53,9.66-7.79,3.83-2.26,8.2-4.05,13.11-5.37,4.91-1.32,10.35-1.98,16.33-1.98,13.95,0,25.03,3.54,33.23,10.61,8.2,7.07,12.31,16.9,12.31,29.5v65.46h16.56v15.87h-12.65ZM963.24,864.6c4.75,0,9.08-.57,13-1.72s7.32-2.68,10.23-4.6c2.91-1.92,5.18-4.22,6.79-6.9,1.61-2.68,2.42-5.56,2.42-8.62v-19.55h-25.3c-11.04,0-19.09,1.53-24.15,4.6-5.06,3.07-7.59,7.51-7.59,13.34v4.83c0,6.13,2.19,10.77,6.56,13.92,4.37,3.14,10.39,4.71,18.05,4.71Z"/><path class="cls-3" d="M1801.46,895.68c-48.8,0-88.07-12.47-117.77-37.41-29.7-24.94-47.19-60.76-52.49-107.47h-7.96c-14.85,54.31-44.3,95.31-88.32,122.99-44.03,27.68-97.86,41.53-161.49,41.53-79.57,0-143.48-21.49-191.74-64.5-48.27-42.99-72.4-103.25-72.4-180.75,0-86,31.29-149.71,93.87-191.11,62.58-41.4,154.35-62.12,275.29-62.12h132.06v-41.3c0-48.73-11.41-85.52-34.2-110.42-22.81-24.9-61.25-37.35-115.35-37.35-49.88,0-90.18,9.55-120.94,28.64-30.77,19.11-57.28,44.03-79.56,74.78l-128.9-114.57c27.59-46.67,70.81-85.14,129.68-115.37,58.88-30.23,134.46-45.37,226.75-45.37,112.44,0,200.22,25.71,263.34,77.08,63.12,51.39,94.67,129.01,94.67,232.85v359.2h90.7v170.66h-135.25ZM1462.54,760.62c41.36,0,76.35-10.05,104.99-30.18,28.64-20.12,42.97-49.26,42.97-87.4v-98.51h-125.69c-96.53,0-144.8,32.31-144.8,96.92v31.79c0,28.6,11.13,50.32,33.42,65.15,22.27,14.83,51.97,22.23,89.11,22.23Z"/><path class="cls-3" d="M1806.24,895.68c-49.88,0-88.32-12.41-115.37-37.27-27.05-24.86-43.24-59.49-48.54-103.92h-7.94c-14.87,50.95-44.05,90.51-87.54,118.63-43.49,28.12-97.05,42.2-160.7,42.2-82.74,0-148.5-21.74-197.31-65.23-48.8-43.47-73.19-103.94-73.19-181.38,0-165.44,121.45-248.18,364.38-248.18h144.8v-54.29c0-52.18-12.74-91.56-38.2-118.19-25.46-26.61-66.82-39.92-124.1-39.92-51.99,0-93.91,10.09-125.71,30.23-31.83,20.16-58.88,46.16-81.15,77.96l-116.16-98.64c25.46-45.49,66.57-83.81,123.31-115.01,56.75-31.19,130.22-46.79,220.38-46.79,108.2,0,192.78,25.21,253.78,75.6s91.51,125.46,91.51,225.2v386.75h97.05v152.24h-119.32ZM1454.58,775.36c48.78,0,89.36-11.4,121.72-34.19,32.34-22.79,48.54-53.81,48.54-93.04v-109.73h-140.02c-111.38,0-167.07,34.99-167.07,104.96v31.81c0,32.88,12.18,57.8,36.58,74.76,24.4,16.96,57.82,25.44,100.26,25.44Z"/><path class="cls-3" d="M1809.41,895.68c-49.86,0-87.25-12.76-112.17-38.27-24.94-25.51-40.06-58.99-45.35-100.47h-7.96c-15.92,50.15-44.81,89.07-86.71,116.79-41.9,27.72-95.21,41.59-159.92,41.59-83.81,0-150.65-22.02-200.49-66.07-49.86-44.05-74.78-104.8-74.78-182.3s29.43-140.37,88.3-182.3c58.86-41.92,149.29-62.88,271.3-62.88h157.52v-63.67c0-111.42-58.88-167.15-176.61-167.15-53.06,0-96.02,10.36-128.9,31.04-32.88,20.68-60.47,48-82.74,81.93l-103.42-84.33c23.33-44.51,62.58-82.93,117.75-115.24,55.15-32.31,126.23-48.46,213.21-48.46,103.96,0,185.64,24.94,245.04,74.82,59.39,49.88,89.11,122.03,89.11,216.45v412.24h103.44v136.28h-106.62ZM1446.62,787.64c56.21,0,102.37-12.74,138.43-38.25,36.07-25.5,54.1-58.43,54.1-98.82v-119.53h-154.33c-125.19,0-187.77,37.73-187.77,113.17v31.86c0,37.2,13.26,65.09,39.79,83.68,26.51,18.61,63.12,27.89,109.79,27.89Z"/><path class="cls-3" d="M1814.18,895.68c-49.86,0-85.39-12.74-106.6-38.23-21.22-25.48-34.49-57.34-39.79-95.59h-7.94c-18.03,47.96-46.94,85.54-86.73,112.71-39.79,27.16-93.08,40.77-159.92,40.77-85.92,0-154.35-22.27-205.27-66.86-50.91-44.56-76.37-105.57-76.37-183.03s27.84-135.28,83.53-176.68c55.69-41.38,145.61-62.08,269.73-62.08h175.03v-80.84c0-60.22-16.98-105.38-50.93-135.5-33.96-30.12-82.2-45.18-144.78-45.18-55.17,0-100.26,10.88-135.27,32.61-35.01,21.75-63.12,51.18-84.33,88.32l-85.92-63.65c10.61-21.22,24.94-41.96,42.97-62.23,18.03-20.26,40.31-38.16,66.82-53.7,26.51-15.54,56.75-27.86,90.7-36.97,33.96-9.09,71.61-13.66,112.97-13.66,96.53,0,173.17,24.38,229.92,73.13,56.75,48.77,85.14,116.58,85.14,203.46v451.47h114.57v111.73h-87.52ZM1435.49,808.51c32.88,0,62.85-3.97,89.9-11.91,27.05-7.94,50.65-18.55,70.81-31.79,20.14-13.24,35.8-29.14,46.94-47.67,11.13-18.53,16.71-38.41,16.71-59.6v-135.09h-175.03c-76.39,0-132.08,10.61-167.07,31.79-35.01,21.2-52.51,51.93-52.51,92.18v33.38c0,42.38,15.1,74.43,45.33,96.15,30.23,21.72,71.86,32.57,124.93,32.57Z"/><path class="cls-3" d="M1788.73,895.68c-37.14,0-63.65-9.02-79.56-27.05-15.92-18.03-24.94-42.45-27.05-73.22v-28.64h-7.96c-18.03,43.66-47.75,79.34-89.11,107.03-41.36,27.68-97.59,41.53-168.66,41.53-85.92,0-153.55-20.91-202.87-62.77-49.34-41.84-73.99-100.91-73.99-177.18,0-36.03,6.1-68.6,18.3-97.74,12.2-29.12,31.83-53.75,58.88-73.88,27.05-20.12,61.77-35.76,104.21-46.89,42.43-11.13,94.4-16.69,155.95-16.69h200.49v-100.31c0-68.99-18.84-120.47-56.5-154.45-37.66-33.96-89.9-50.95-156.71-50.95-112.46,0-190.96,45.16-235.5,135.46l-62.06-44.72c21.22-47.92,57.01-88.11,107.41-120.59,50.38-32.48,115.35-48.73,194.91-48.73,93.35,0,166.55,24.11,219.6,72.34,53.02,48.23,79.56,115.28,79.56,201.12v486.52h122.53v79.81h-101.85ZM1430.72,839.2c34.99,0,67.35-4.22,97.05-12.7,29.7-8.46,55.69-20.37,77.96-35.72,22.27-15.35,39.77-34.15,52.51-56.38,12.74-22.21,19.11-47.1,19.11-74.63v-150.84h-200.49c-85.92,0-147.72,12.97-185.37,38.9-37.66,25.94-56.48,61.14-56.48,105.59v41.28c0,47.65,17.76,83.64,53.29,107.99,35.53,24.34,83.01,36.51,142.42,36.51Z"/><path class="cls-3" d="M1764.86,895.68c-24.4,0-41.92-5.87-52.53-17.61-10.61-11.74-16.44-28.28-17.5-49.63v-59.22h-6.35c-19.11,40.67-49.86,75.2-92.29,103.55-42.43,28.35-100.79,42.55-175.03,42.55-88.05,0-155.95-20.18-203.68-60.54-47.73-40.36-71.59-97.74-71.59-172.12,0-33.99,5.29-65.32,15.9-94.02,10.61-28.68,28.64-53.39,54.1-74.11,25.46-20.72,58.88-36.64,100.26-47.81,41.36-11.15,92.27-16.73,152.74-16.73h224.38v-117.65c0-77.37-20.43-134.59-61.27-171.7-40.84-37.1-96.8-55.65-167.86-55.65-57.28,0-107.68,11.91-151.17,35.74-43.51,23.83-76.39,61.14-98.66,111.96l-41.36-26.97c22.27-50.8,57.55-91.8,105.82-123.01,48.27-31.21,110.58-46.83,186.97-46.83,89.09,0,158.57,23.62,208.43,70.81,49.86,47.19,74.8,113.74,74.8,199.65v520.23h130.47v49.11h-114.57ZM1425.94,867.44c36.07,0,70.27-4.51,102.63-13.54,32.34-9.04,60.72-22.33,85.12-39.88,24.4-17.53,43.76-39.08,58.09-64.59,14.31-25.51,21.49-55.31,21.49-89.34v-165.88h-222.78c-94.42,0-162.05,15.16-202.87,45.47-40.84,30.31-61.25,69.91-61.25,118.83v47.84c0,52.1,20.14,91.99,60.45,119.63,40.31,27.66,93.35,41.48,159.13,41.48Z"/><path class="cls-3" d="M1748.94,895.68c-30.77,0-46.16-15.4-46.16-46.23v-76.54h-4.78c-20.16,38.41-51.72,71.75-94.67,100.02-42.97,28.26-103.17,42.4-180.6,42.4-88.05,0-155.41-19.38-202.08-58.09-46.67-38.71-70-94.69-70-167.9,0-32.88,5.03-63.63,15.12-92.29,10.07-28.64,27.05-53.04,50.91-73.21,23.86-20.14,55.94-36.07,96.26-47.73,40.31-11.66,90.7-17.51,151.17-17.51h238.67v-128.78c0-82.66-21.22-143.86-63.65-183.61-42.43-39.75-100.77-59.62-175.01-59.62-58.36,0-110.33,12.45-155.95,37.33-45.62,24.88-80.09,64.84-103.42,119.88l-27.05-15.92c23.33-53.08,58.59-95.02,105.8-125.81,47.19-30.77,107.41-46.18,180.62-46.18,85.91,0,152.74,23.33,200.47,69.94,47.73,46.64,71.61,112.86,71.61,198.69v540.47h135.25v30.69h-122.51ZM1422.74,884.63c37.12,0,72.65-4.76,106.6-14.31,33.96-9.55,63.65-23.6,89.11-42.17,25.46-18.57,45.87-41.9,61.25-70.02,15.39-28.1,23.08-60.72,23.08-97.86v-173.44h-237.07c-100.79,0-172.39,16.46-214.82,49.34-42.43,32.88-63.65,75.32-63.65,127.29v50.91c0,55.17,21.74,97.34,65.24,126.5,43.49,29.18,100.24,43.76,170.26,43.76Z"/></svg>