<?xml version="1.0" encoding="UTF-8"?><svg id="Layer_1" xmlns="http://www.w3.org/2000/svg" viewBox="0 0 2000 1000"><defs><style>.cls-1{fill:#ff3e02;}.cls-1,.cls-2,.cls-3{stroke-width:0px;}.cls-2{fill:#000;}.cls-4{fill:none;stroke:#a7a9ac;stroke-miterlimit:10;}.cls-3{fill:#fff;}</style></defs><rect class="cls-3" width="2000" height="1000"/><rect class="cls-2" x="20" y="20" width="977.5" height="959.45"/><rect class="cls-4" x="1002.5" y="20" width="135.36" height="132.86"/><rect class="cls-4" x="1142.86" y="20" width="135.36" height="132.86"/><rect class="cls-4" x="1283.21" y="20" width="135.36" height="132.86"/><rect class="cls-4" x="1423.57" y="20" width="135.36" height="132.86"/><rect class="cls-4" x="1563.93" y="20" width="135.36" height="132.86"/><rect class="cls-4" x="1704.29" y="20" width="135.36" height="132.86"/><rect class="cls-4" x="1844.64" y="20" width="135.36" height="132.86"/><rect class="cls-4" x="1002.5" y="157.86" width="135.36" height="132.86"/><rect class="cls-4" x="1142.86" y="157.86" width="135.36" height="132.86"/><rect class="cls-4" x="1283.21" y="157.86" width="135.36" height="132.86"/><rect class="cls-4" x="1423.57" y="157.86" width="135.36" height="132.86"/><rect class="cls-4" x="1563.93" y="157.86" width="135.36" height="132.86"/><rect class="cls-4" x="1704.29" y="157.86" width="135.36" height="132.86"/><rect class="cls-4" x="1844.64" y="157.86" width="135.36" height="132.86"/><rect class="cls-4" x="1002.5" y="295.71" width="135.36" height="132.86"/><rect class="cls-4" x="1142.86" y="295.71" width="135.36" height="132.86"/><rect class="cls-4" x="1283.21" y="295.71" width="135.36" height="132.86"/><rect class="cls-4" x="1563.93" y="295.71" width="135.36" height="132.86"/><rect class="cls-4" x="1704.29" y="295.71" width="135.36" height="132.86"/><rect class="cls-4" x="1844.64" y="295.71" width="135.36" height="132.86"/><rect class="cls-4" x="1002.5" y="433.57" width="135.36" height="132.86"/><rect class="cls-4" x="1142.86" y="433.57" width="135.36" height="132.86"/><rect class="cls-4" x="1283.21" y="433.57" width="135.36" height="132.86"/><rect class="cls-4" x="1423.57" y="433.57" width="135.36" height="132.86"/><rect class="cls-4" x="1563.93" y="433.57" width="135.36" height="132.86"/><rect class="cls-4" x="1704.29" y="433.57" width="135.36" height="132.86"/><rect class="cls-4" x="1844.64" y="433.57" width="135.36" height="132.86"/><rect class="cls-4" x="1002.5" y="571.43" width="135.36" height="132.86"/><rect class="cls-4" x="1142.86" y="571.43" width="135.36" height="132.86"/><rect class="cls-4" x="1283.21" y="571.43" width="135.36" height="132.86"/><rect class="cls-4" x="1423.57" y="571.43" width="135.36" height="132.86"/><rect class="cls-4" x="1563.93" y="571.43" width="135.36" height="132.86"/><rect class="cls-4" x="1704.29" y="571.43" width="135.36" height="132.86"/><rect class="cls-4" x="1844.64" y="571.43" width="135.36" height="132.86"/><rect class="cls-4" x="1002.5" y="709.29" width="135.36" height="132.86"/><rect class="cls-4" x="1142.86" y="709.29" width="135.36" height="132.86"/><rect class="cls-4" x="1283.21" y="709.29" width="135.36" height="132.86"/><rect class="cls-4" x="1423.57" y="709.29" width="135.36" height="132.86"/><rect class="cls-4" x="1563.93" y="709.29" width="135.36" height="132.86"/><rect class="cls-4" x="1704.29" y="709.29" width="135.36" height="132.86"/><rect class="cls-4" x="1844.64" y="709.29" width="135.36" height="132.86"/><rect class="cls-4" x="1002.5" y="847.14" width="135.36" height="132.86"/><rect class="cls-4" x="1142.86" y="847.14" width="135.36" height="132.86"/><rect class="cls-4" x="1283.21" y="847.14" width="135.36" height="132.86"/><rect class="cls-4" x="1423.57" y="847.14" width="135.36" height="132.86"/><rect class="cls-4" x="1563.93" y="847.14" width="135.36" height="132.86"/><rect class="cls-4" x="1704.29" y="847.14" width="135.36" height="132.86"/><rect class="cls-4" x="1844.64" y="847.14" width="135.36" height="132.86"/><path class="cls-2" d="M1083.92,101.42h-27.54l-5.76,16.55h-12.84l26.86-71.09h11.08l26.9,71.09h-12.89l-5.81-16.55ZM1059.85,91.45h20.61l-10.3-29.49-10.3,29.49Z"/><path class="cls-2" d="M1186.22,117.97V46.87h24.37c8.04,0,14.16,1.61,18.36,4.83s6.3,8.02,6.3,14.4c0,3.26-.88,6.19-2.64,8.79-1.76,2.6-4.33,4.62-7.71,6.05,3.84,1.04,6.81,3,8.91,5.88s3.15,6.34,3.15,10.38c0,6.67-2.14,11.8-6.42,15.38-4.28,3.58-10.41,5.37-18.38,5.37h-25.93ZM1198.57,76.81h12.11c3.84,0,6.84-.87,9.01-2.61,2.16-1.74,3.25-4.21,3.25-7.4,0-3.52-1-6.05-3-7.62s-5.12-2.34-9.35-2.34h-12.01v19.97ZM1198.57,85.89v22.22h13.72c3.87,0,6.9-.96,9.08-2.88,2.18-1.92,3.27-4.59,3.27-8.01,0-7.39-3.78-11.17-11.33-11.33h-14.75Z"/><path class="cls-2" d="M1379.73,94.82c-.72,7.58-3.52,13.5-8.4,17.75s-11.38,6.37-19.48,6.37c-5.66,0-10.65-1.34-14.97-4.03-4.31-2.69-7.64-6.5-9.99-11.45-2.34-4.95-3.56-10.69-3.66-17.24v-6.64c0-6.71,1.19-12.61,3.56-17.72,2.38-5.11,5.79-9.05,10.23-11.82,4.44-2.77,9.58-4.15,15.41-4.15,7.84,0,14.16,2.12,18.95,6.37s7.57,10.26,8.35,18.04h-12.3c-.59-5.11-2.08-8.8-4.47-11.06-2.39-2.26-5.9-3.39-10.52-3.39-5.37,0-9.5,1.96-12.38,5.89s-4.35,9.69-4.42,17.28v6.3c0,7.69,1.38,13.55,4.13,17.59,2.75,4.04,6.78,6.06,12.08,6.06,4.85,0,8.5-1.09,10.94-3.27,2.44-2.18,3.99-5.81,4.64-10.89h12.3Z"/><path class="cls-2" d="M1465.81,117.97V46.87h21c6.28,0,11.86,1.4,16.72,4.2,4.87,2.8,8.63,6.77,11.3,11.91,2.67,5.14,4,11.04,4,17.68v3.56c0,6.74-1.34,12.66-4.03,17.77-2.69,5.11-6.51,9.05-11.47,11.82-4.96,2.77-10.65,4.15-17.07,4.15h-20.46ZM1478.16,56.84v51.27h8.06c6.48,0,11.45-2.03,14.92-6.08s5.23-9.87,5.3-17.46v-3.96c0-7.71-1.68-13.61-5.03-17.68-3.35-4.07-8.22-6.1-14.6-6.1h-8.64Z"/><path class="cls-2" d="M1652.12,86.23h-29.2v21.88h34.13v9.86h-46.48V46.87h46.14v9.96h-33.79v19.63h29.2v9.77Z"/><path class="cls-2" d="M1792.69,87.84h-28.61v30.13h-12.35V46.87h45.17v9.96h-32.81v21.14h28.61v9.86Z"/><path class="cls-2" d="M1940.01,108.74c-2.57,3.35-6.14,5.89-10.69,7.62-4.56,1.73-9.73,2.59-15.53,2.59s-11.23-1.35-15.82-4.05c-4.59-2.7-8.13-6.57-10.62-11.6s-3.78-10.9-3.88-17.6v-5.57c0-10.74,2.57-19.13,7.71-25.17,5.14-6.04,12.32-9.06,21.53-9.06,7.91,0,14.19,1.96,18.85,5.88,4.65,3.92,7.45,9.56,8.4,16.92h-12.11c-1.37-8.56-6.33-12.84-14.89-12.84-5.53,0-9.74,1.99-12.62,5.98s-4.37,9.83-4.47,17.54v5.46c0,7.68,1.62,13.64,4.86,17.88,3.24,4.24,7.74,6.37,13.5,6.37,6.31,0,10.81-1.43,13.48-4.3v-13.92h-14.65v-9.38h26.95v27.25Z"/><rect class="cls-4" x="1002.5" y="157.86" width="135.36" height="132.86"/><rect class="cls-4" x="1142.86" y="157.86" width="135.36" height="132.86"/><rect class="cls-4" x="1283.21" y="157.86" width="135.36" height="132.86"/><rect class="cls-4" x="1423.57" y="157.86" width="135.36" height="132.86"/><rect class="cls-4" x="1563.93" y="157.86" width="135.36" height="132.86"/><rect class="cls-4" x="1704.29" y="157.86" width="135.36" height="132.86"/><rect class="cls-4" x="1844.64" y="157.86" width="135.36" height="132.86"/><path class="cls-2" d="M1098.33,255.83h-12.3v-31.54h-31.79v31.54h-12.35v-71.09h12.35v29.59h31.79v-29.59h12.3v71.09Z"/><path class="cls-2" d="M1216.69,255.83h-12.3v-71.09h12.3v71.09Z"/><path class="cls-2" d="M1359.46,184.73h12.3v49.85c0,6.8-2.12,12.21-6.37,16.21s-9.86,6.01-16.82,6.01c-7.42,0-13.15-1.87-17.19-5.62-4.04-3.74-6.05-8.95-6.05-15.62h12.3c0,3.78.94,6.62,2.81,8.52,1.87,1.9,4.58,2.86,8.13,2.86,3.32,0,5.96-1.1,7.93-3.3,1.97-2.2,2.95-5.23,2.95-9.11v-49.8Z"/><path class="cls-2" d="M1487.37,225.11l-8.06,8.54v22.17h-12.35v-71.09h12.35v33.35l6.84-8.45,20.8-24.9h14.94l-26.42,31.49,27.93,39.6h-14.65l-21.39-30.71Z"/><path class="cls-2" d="M1624.14,245.96h32.28v9.86h-44.63v-71.09h12.35v61.23Z"/><path class="cls-2" d="M1751.43,184.73l20.51,54.49,20.46-54.49h15.97v71.09h-12.3v-23.44l1.22-31.35-21,54.79h-8.84l-20.95-54.74,1.22,31.3v23.44h-12.3v-71.09h16.02Z"/><path class="cls-2" d="M1940.45,255.83h-12.35l-31.69-50.44v50.44h-12.35v-71.09h12.35l31.79,50.63v-50.63h12.26v71.09Z"/><rect class="cls-4" x="1002.5" y="295.71" width="135.36" height="132.86"/><rect class="cls-4" x="1142.86" y="295.71" width="135.36" height="132.86"/><rect class="cls-4" x="1283.21" y="295.71" width="135.36" height="132.86"/><rect class="cls-1" x="1422.86" y="295.71" width="135.36" height="132.86"/><rect class="cls-4" x="1563.93" y="295.71" width="135.36" height="132.86"/><rect class="cls-4" x="1704.29" y="295.71" width="135.36" height="132.86"/><rect class="cls-4" x="1844.64" y="295.71" width="135.36" height="132.86"/><path class="cls-2" d="M1099.62,359.99c0,6.97-1.21,13.08-3.61,18.33-2.41,5.26-5.85,9.29-10.33,12.11-4.48,2.82-9.63,4.22-15.45,4.22s-10.9-1.41-15.41-4.22c-4.51-2.82-7.99-6.83-10.45-12.04-2.46-5.21-3.7-11.21-3.74-18.02v-4c0-6.93,1.23-13.05,3.69-18.36,2.46-5.31,5.92-9.37,10.4-12.18,4.48-2.82,9.61-4.22,15.41-4.22s10.93,1.39,15.41,4.17c4.48,2.78,7.93,6.79,10.38,12.01s3.68,11.3,3.71,18.24v3.96ZM1087.27,356.28c0-7.88-1.49-13.92-4.47-18.12s-7.2-6.3-12.67-6.3-9.51,2.09-12.52,6.27c-3.01,4.18-4.55,10.1-4.61,17.75v4.1c0,7.81,1.52,13.85,4.57,18.12,3.04,4.26,7.27,6.4,12.67,6.4s9.68-2.08,12.62-6.25c2.95-4.17,4.42-10.25,4.42-18.26v-3.71Z"/><path class="cls-2" d="M1198.16,367.32v26.37h-12.35v-71.09h27.2c7.94,0,14.25,2.07,18.92,6.21,4.67,4.14,7.01,9.61,7.01,16.42s-2.29,12.4-6.86,16.28c-4.57,3.88-10.98,5.82-19.21,5.82h-14.7ZM1198.16,357.35h14.84c4.39,0,7.75-1.03,10.06-3.1,2.31-2.07,3.47-5.05,3.47-8.96s-1.17-6.91-3.52-9.2-5.57-3.47-9.67-3.54h-15.19v24.8Z"/><path class="cls-2" d="M1380.09,359.99c0,6.74-1.07,12.57-3.2,17.5-2.13,4.93-5.12,8.85-8.96,11.74l12.21,9.52-8.01,7.23-15.14-11.96c-1.99.42-4.12.63-6.4.63-5.73,0-10.85-1.41-15.36-4.22-4.51-2.82-7.99-6.83-10.45-12.04-2.46-5.21-3.7-11.21-3.74-18.02v-4c0-6.93,1.23-13.05,3.69-18.36,2.46-5.31,5.92-9.37,10.4-12.18,4.48-2.82,9.59-4.22,15.36-4.22s11.03,1.39,15.5,4.17c4.48,2.78,7.93,6.79,10.38,12.01s3.68,11.3,3.71,18.24v3.96ZM1367.69,356.28c0-8.01-1.5-14.08-4.49-18.21-3-4.13-7.23-6.2-12.7-6.2s-9.46,2.09-12.48,6.27c-3.01,4.18-4.55,10.08-4.61,17.7v4.15c0,7.68,1.5,13.69,4.52,18.02,3.01,4.33,7.23,6.49,12.67,6.49s9.72-2.08,12.67-6.25c2.95-4.17,4.42-10.25,4.42-18.26v-3.71Z"/><path class="cls-3" d="M1493.4,366.34h-13.77v27.34h-12.35v-71.09h25c8.2,0,14.53,1.84,18.99,5.52,4.46,3.68,6.69,9.01,6.69,15.98,0,4.76-1.15,8.74-3.44,11.95s-5.49,5.68-9.59,7.4l15.97,29.61v.63h-13.23l-14.26-27.34ZM1479.63,356.38h12.7c4.17,0,7.42-1.05,9.77-3.15s3.52-4.97,3.52-8.62-1.08-6.75-3.25-8.84c-2.17-2.08-5.4-3.16-9.69-3.22h-13.04v23.83Z"/><path class="cls-3" d="M518.29,571.46h-128.1v254.39h-114.93V164.44h232.59c76.32,0,135.22,17.13,176.71,51.38,41.49,34.25,62.24,83.81,62.24,148.67,0,44.26-10.68,81.31-32.03,111.16s-51.11,52.82-89.26,68.88l148.55,275.43v5.9h-123.11l-132.65-254.39ZM390.18,478.79h118.11c38.76,0,69.05-9.77,90.85-29.3,21.81-19.53,32.71-46.26,32.71-80.18s-10.07-62.84-30.21-82.22c-20.14-19.38-50.2-29.37-90.17-29.98h-121.29v221.68Z"/><path class="cls-2" d="M1645.82,375.37c0-3.12-1.1-5.53-3.3-7.23-2.2-1.69-6.16-3.4-11.89-5.13-5.73-1.73-10.29-3.65-13.67-5.76-6.48-4.07-9.72-9.38-9.72-15.92,0-5.73,2.33-10.45,7.01-14.16,4.67-3.71,10.73-5.57,18.19-5.57,4.95,0,9.36.91,13.23,2.73,3.87,1.82,6.92,4.42,9.13,7.79,2.21,3.37,3.32,7.1,3.32,11.21h-12.3c0-3.71-1.16-6.62-3.49-8.72-2.33-2.1-5.66-3.15-9.99-3.15-4.04,0-7.17.86-9.4,2.59-2.23,1.73-3.34,4.13-3.34,7.23,0,2.6,1.2,4.78,3.61,6.52,2.41,1.74,6.38,3.43,11.91,5.08,5.53,1.64,9.98,3.52,13.33,5.62,3.35,2.1,5.81,4.51,7.37,7.23,1.56,2.72,2.34,5.9,2.34,9.55,0,5.92-2.27,10.64-6.81,14.14-4.54,3.5-10.7,5.25-18.48,5.25-5.14,0-9.87-.95-14.18-2.86-4.31-1.9-7.67-4.53-10.06-7.89-2.39-3.35-3.59-7.26-3.59-11.72h12.35c0,4.04,1.33,7.16,4,9.38,2.67,2.21,6.49,3.32,11.47,3.32,4.3,0,7.53-.87,9.69-2.61,2.16-1.74,3.25-4.04,3.25-6.91Z"/><path class="cls-2" d="M1801.68,332.55h-22.17v61.13h-12.26v-61.13h-21.97v-9.96h56.4v9.96Z"/><path class="cls-2" d="M1938.96,322.59v47.51c0,7.55-2.42,13.53-7.25,17.94-4.83,4.41-11.27,6.62-19.31,6.62s-14.6-2.17-19.38-6.52-7.18-10.38-7.18-18.09v-47.46h12.3v47.56c0,4.75,1.2,8.38,3.61,10.89,2.41,2.51,5.96,3.76,10.64,3.76,9.5,0,14.26-5.01,14.26-15.04v-47.17h12.3Z"/><rect class="cls-4" x="1002.5" y="433.57" width="135.36" height="132.86"/><rect class="cls-4" x="1142.86" y="433.57" width="135.36" height="132.86"/><rect class="cls-4" x="1283.21" y="433.57" width="135.36" height="132.86"/><rect class="cls-4" x="1423.57" y="433.57" width="135.36" height="132.86"/><rect class="cls-4" x="1563.93" y="433.57" width="135.36" height="132.86"/><rect class="cls-4" x="1704.29" y="433.57" width="135.36" height="132.86"/><rect class="cls-4" x="1844.64" y="433.57" width="135.36" height="132.86"/><path class="cls-2" d="M1070.11,516.06l18.07-55.62h13.57l-25.59,71.09h-11.96l-25.49-71.09h13.53l17.87,55.62Z"/><path class="cls-2" d="M1229.53,513.96l10.94-53.52h12.26l-16.41,71.09h-11.82l-13.53-51.9-13.82,51.9h-11.87l-16.41-71.09h12.26l11.04,53.42,13.57-53.42h10.35l13.43,53.52Z"/><path class="cls-2" d="M1350.94,486.13l14.94-25.68h14.26l-21.48,35.25,21.97,35.84h-14.4l-15.28-26.07-15.33,26.07h-14.36l22.02-35.84-21.53-35.25h14.26l14.94,25.68Z"/><path class="cls-2" d="M1491.2,494.14l16.36-33.69h13.67l-23.83,44.92v26.17h-12.4v-26.17l-23.88-44.92h13.72l16.36,33.69Z"/><path class="cls-2" d="M1620.35,521.68h37.99v9.86h-52.93v-8.01l36.77-53.12h-36.52v-9.96h51.51v7.81l-36.82,53.42Z"/><path class="cls-2" d="M1782.56,531.54c-.52-1.01-.98-2.65-1.37-4.93-3.78,3.94-8.4,5.91-13.87,5.91s-9.64-1.51-12.99-4.54c-3.35-3.03-5.03-6.77-5.03-11.23,0-5.63,2.09-9.95,6.27-12.96,4.18-3.01,10.16-4.52,17.94-4.52h7.28v-3.47c0-2.73-.77-4.92-2.29-6.57-1.53-1.64-3.86-2.47-6.98-2.47-2.7,0-4.92.68-6.64,2.03-1.73,1.35-2.59,3.07-2.59,5.15h-11.87c0-2.9.96-5.61,2.88-8.13,1.92-2.52,4.53-4.5,7.84-5.93,3.3-1.43,6.99-2.15,11.06-2.15,6.18,0,11.12,1.55,14.79,4.66,3.68,3.11,5.57,7.48,5.66,13.11v23.83c0,4.75.67,8.54,2,11.38v.83h-12.11ZM1769.52,522.99c2.34,0,4.55-.57,6.62-1.71,2.07-1.14,3.62-2.67,4.66-4.59v-9.96h-6.4c-4.39,0-7.7.77-9.91,2.29-2.21,1.53-3.32,3.69-3.32,6.49,0,2.28.76,4.09,2.27,5.44,1.51,1.35,3.54,2.03,6.08,2.03Z"/><path class="cls-2" d="M1936.61,505.66c0,8.2-1.83,14.73-5.49,19.58-3.66,4.85-8.7,7.28-15.11,7.28s-11-2.23-14.45-6.69l-.59,5.71h-10.74v-75h11.87v27.25c3.42-4.04,8.02-6.05,13.82-6.05,6.45,0,11.51,2.39,15.19,7.18,3.68,4.79,5.52,11.47,5.52,20.07v.68ZM1924.75,504.64c0-5.73-1.01-10.03-3.03-12.89-2.02-2.86-4.95-4.3-8.79-4.3-5.14,0-8.76,2.25-10.84,6.74v21.78c2.12,4.59,5.76,6.88,10.94,6.88,3.71,0,6.58-1.38,8.59-4.15,2.02-2.77,3.06-6.95,3.12-12.55v-1.51Z"/><rect class="cls-4" x="1002.5" y="571.43" width="135.36" height="132.86"/><rect class="cls-4" x="1142.86" y="571.43" width="135.36" height="132.86"/><rect class="cls-4" x="1283.21" y="571.43" width="135.36" height="132.86"/><rect class="cls-4" x="1423.57" y="571.43" width="135.36" height="132.86"/><rect class="cls-4" x="1563.93" y="571.43" width="135.36" height="132.86"/><rect class="cls-4" x="1704.29" y="571.43" width="135.36" height="132.86"/><rect class="cls-4" x="1844.64" y="571.43" width="135.36" height="132.86"/><path class="cls-2" d="M1071.79,660.9c2.96,0,5.42-.86,7.37-2.59,1.95-1.73,2.99-3.86,3.12-6.4h11.18c-.13,3.29-1.16,6.36-3.08,9.2-1.92,2.85-4.53,5.1-7.81,6.76-3.29,1.66-6.84,2.49-10.64,2.49-7.39,0-13.25-2.39-17.58-7.18-4.33-4.79-6.49-11.39-6.49-19.82v-1.22c0-8.04,2.15-14.48,6.45-19.31s10.16-7.25,17.58-7.25c6.28,0,11.4,1.83,15.36,5.49s6.03,8.47,6.23,14.43h-11.18c-.13-3.03-1.16-5.52-3.1-7.47-1.94-1.95-4.4-2.93-7.4-2.93-3.84,0-6.8,1.39-8.89,4.17-2.08,2.78-3.14,7.01-3.17,12.67v1.9c0,5.73,1.03,10,3.1,12.82,2.07,2.82,5.05,4.22,8.96,4.22Z"/><path class="cls-2" d="M1186.17,642.59c0-8.14,1.89-14.67,5.66-19.6,3.78-4.93,8.84-7.4,15.19-7.4,5.6,0,10.12,1.95,13.57,5.86v-27.05h11.87v75h-10.74l-.59-5.47c-3.55,4.3-8.29,6.45-14.21,6.45s-11.19-2.49-15.01-7.47c-3.83-4.98-5.74-11.75-5.74-20.31ZM1198.04,643.62c0,5.37,1.03,9.56,3.1,12.57,2.07,3.01,5,4.52,8.81,4.52,4.85,0,8.4-2.16,10.64-6.49v-22.56c-2.18-4.23-5.7-6.35-10.55-6.35-3.84,0-6.8,1.52-8.89,4.57-2.08,3.04-3.12,7.63-3.12,13.75Z"/><path class="cls-2" d="M1353.41,670.37c-7.52,0-13.62-2.37-18.29-7.1-4.67-4.74-7.01-11.04-7.01-18.92v-1.46c0-5.27,1.02-9.99,3.05-14.14,2.03-4.15,4.89-7.38,8.57-9.69,3.68-2.31,7.78-3.47,12.3-3.47,7.19,0,12.75,2.29,16.67,6.88,3.92,4.59,5.88,11.08,5.88,19.48v4.79h-34.52c.36,4.36,1.81,7.81,4.37,10.35,2.55,2.54,5.77,3.81,9.64,3.81,5.44,0,9.86-2.2,13.28-6.59l6.4,6.1c-2.12,3.16-4.94,5.61-8.47,7.35-3.53,1.74-7.5,2.61-11.89,2.61ZM1351.99,625.11c-3.26,0-5.88,1.14-7.89,3.42-2,2.28-3.28,5.45-3.83,9.52h22.61v-.88c-.26-3.97-1.32-6.97-3.17-9.01-1.86-2.03-4.43-3.05-7.71-3.05Z"/><path class="cls-2" d="M1483.78,669.4v-44.04h-8.06v-8.79h8.06v-4.83c0-5.86,1.63-10.38,4.88-13.57,3.25-3.19,7.81-4.79,13.67-4.79,2.08,0,4.3.29,6.64.88l-.29,9.28c-1.3-.26-2.82-.39-4.54-.39-5.66,0-8.5,2.91-8.5,8.74v4.69h10.74v8.79h-10.74v44.04h-11.87Z"/><path class="cls-2" d="M1607.27,642.59c0-8.2,1.93-14.75,5.79-19.65,3.86-4.9,8.98-7.35,15.36-7.35,6.02,0,10.76,2.1,14.21,6.3l.54-5.32h10.69v51.22c0,6.93-2.16,12.4-6.47,16.41-4.31,4-10.13,6.01-17.46,6.01-3.87,0-7.66-.81-11.35-2.42-3.7-1.61-6.5-3.72-8.42-6.32l5.62-7.13c3.65,4.33,8.14,6.49,13.48,6.49,3.94,0,7.05-1.07,9.33-3.2,2.28-2.13,3.42-5.27,3.42-9.4v-3.56c-3.42,3.81-7.98,5.71-13.67,5.71-6.19,0-11.24-2.46-15.16-7.37-3.92-4.92-5.88-11.72-5.88-20.41ZM1619.08,643.62c0,5.31,1.08,9.48,3.25,12.52,2.16,3.04,5.17,4.57,9.01,4.57,4.79,0,8.33-2.05,10.64-6.15v-23.24c-2.25-4-5.76-6.01-10.55-6.01-3.91,0-6.94,1.55-9.11,4.64-2.17,3.09-3.25,7.65-3.25,13.67Z"/><path class="cls-2" d="M1761.98,622.33c3.87-4.49,8.77-6.74,14.7-6.74,11.26,0,16.98,6.43,17.14,19.29v34.52h-11.87v-34.08c0-3.65-.79-6.23-2.37-7.74-1.58-1.51-3.9-2.27-6.96-2.27-4.75,0-8.3,2.12-10.64,6.35v37.74h-11.87v-75h11.87v27.93Z"/><path class="cls-2" d="M1905.66,602.84c0-1.82.58-3.34,1.73-4.54,1.16-1.2,2.81-1.81,4.96-1.81s3.81.6,4.98,1.81c1.17,1.2,1.76,2.72,1.76,4.54s-.59,3.28-1.76,4.47c-1.17,1.19-2.83,1.78-4.98,1.78s-3.8-.59-4.96-1.78c-1.16-1.19-1.73-2.68-1.73-4.47ZM1918.25,669.4h-11.87v-52.83h11.87v52.83Z"/><rect class="cls-4" x="1002.5" y="709.29" width="135.36" height="132.86"/><rect class="cls-4" x="1142.86" y="709.29" width="135.36" height="132.86"/><rect class="cls-4" x="1283.21" y="709.29" width="135.36" height="132.86"/><rect class="cls-4" x="1423.57" y="709.29" width="135.36" height="132.86"/><rect class="cls-4" x="1563.93" y="709.29" width="135.36" height="132.86"/><rect class="cls-4" x="1704.29" y="709.29" width="135.36" height="132.86"/><rect class="cls-4" x="1844.64" y="709.29" width="135.36" height="132.86"/><path class="cls-2" d="M1076.11,754.42v57.52c0,5.4-1.34,9.53-4.03,12.38-2.69,2.85-6.62,4.27-11.79,4.27-2.18,0-4.28-.28-6.3-.83v-9.38c1.24.29,2.64.44,4.2.44,3.94,0,5.96-2.15,6.05-6.45v-57.96h11.87ZM1063.22,740.7c0-1.82.58-3.34,1.73-4.54,1.16-1.2,2.81-1.81,4.96-1.81s3.81.6,4.98,1.81c1.17,1.2,1.76,2.72,1.76,4.54s-.59,3.28-1.76,4.47c-1.17,1.19-2.83,1.78-4.98,1.78s-3.8-.59-4.96-1.78c-1.16-1.19-1.73-2.68-1.73-4.47Z"/><path class="cls-2" d="M1207.68,784.6l-5.27,5.42v17.24h-11.87v-75h11.87v43.26l3.71-4.64,14.6-16.46h14.26l-19.63,22.02,21.73,30.81h-13.72l-15.67-22.66Z"/><path class="cls-2" d="M1356.83,807.25h-11.87v-75h11.87v75Z"/><path class="cls-2" d="M1464.98,754.42l.34,5.52c3.71-4.33,8.79-6.49,15.23-6.49,7.06,0,11.9,2.7,14.5,8.11,3.84-5.4,9.24-8.11,16.21-8.11,5.83,0,10.16,1.61,13.01,4.83,2.85,3.22,4.3,7.98,4.37,14.26v34.72h-11.87v-34.38c0-3.35-.73-5.81-2.2-7.37s-3.89-2.34-7.28-2.34c-2.7,0-4.91.72-6.62,2.17-1.71,1.45-2.91,3.34-3.59,5.69l.05,36.23h-11.87v-34.77c-.16-6.22-3.34-9.33-9.52-9.33-4.75,0-8.12,1.94-10.11,5.81v38.28h-11.87v-52.83h11.18Z"/><path class="cls-2" d="M1620.89,754.42l.34,6.1c3.91-4.72,9.03-7.08,15.38-7.08,11,0,16.6,6.3,16.8,18.9v34.91h-11.87v-34.23c0-3.35-.72-5.83-2.17-7.45-1.45-1.61-3.82-2.42-7.1-2.42-4.79,0-8.35,2.17-10.69,6.49v37.6h-11.87v-52.83h11.18Z"/><path class="cls-2" d="M1747.35,780.35c0-5.18,1.03-9.84,3.08-13.99s4.93-7.34,8.64-9.57c3.71-2.23,7.97-3.34,12.79-3.34,7.13,0,12.92,2.29,17.36,6.88s6.84,10.68,7.2,18.26l.05,2.78c0,5.21-1,9.86-3,13.96s-4.87,7.28-8.59,9.52c-3.73,2.25-8.03,3.37-12.92,3.37-7.46,0-13.42-2.48-17.9-7.45-4.48-4.96-6.71-11.58-6.71-19.85v-.59ZM1759.22,781.38c0,5.44,1.12,9.69,3.37,12.77s5.37,4.61,9.38,4.61,7.12-1.56,9.35-4.69c2.23-3.12,3.34-7.7,3.34-13.72,0-5.34-1.15-9.57-3.44-12.7s-5.41-4.69-9.35-4.69-6.95,1.54-9.23,4.61c-2.28,3.08-3.42,7.67-3.42,13.79Z"/><path class="cls-2" d="M1936.52,781.38c0,8.17-1.86,14.69-5.57,19.56-3.71,4.87-8.69,7.3-14.94,7.3-5.79,0-10.43-1.9-13.92-5.71v25.05h-11.87v-73.14h10.94l.49,5.37c3.48-4.23,8.22-6.35,14.21-6.35,6.45,0,11.5,2.4,15.16,7.2,3.66,4.8,5.49,11.47,5.49,20v.73ZM1924.7,780.35c0-5.27-1.05-9.46-3.15-12.55-2.1-3.09-5.1-4.64-9.01-4.64-4.85,0-8.33,2-10.45,6.01v23.44c2.15,4.1,5.66,6.15,10.55,6.15,3.78,0,6.73-1.52,8.86-4.57,2.13-3.04,3.2-7.66,3.2-13.84Z"/><rect class="cls-4" x="1002.5" y="847.14" width="135.36" height="132.86"/><rect class="cls-4" x="1142.86" y="847.14" width="135.36" height="132.86"/><rect class="cls-4" x="1283.21" y="847.14" width="135.36" height="132.86"/><rect class="cls-4" x="1423.57" y="847.14" width="135.36" height="132.86"/><rect class="cls-4" x="1563.93" y="847.14" width="135.36" height="132.86"/><rect class="cls-4" x="1704.29" y="847.14" width="135.36" height="132.86"/><rect class="cls-4" x="1844.64" y="847.14" width="135.36" height="132.86"/><path class="cls-2" d="M1045.64,918.26c0-8.27,1.89-14.83,5.66-19.68,3.78-4.85,8.89-7.28,15.33-7.28,5.89,0,10.56,2.07,14.01,6.2l.68-5.22h10.55v73.14h-11.87v-24.8c-3.45,3.65-7.94,5.47-13.48,5.47-6.32,0-11.38-2.47-15.19-7.4s-5.71-11.74-5.71-20.43ZM1057.51,919.28c0,5.4,1.07,9.64,3.2,12.72,2.13,3.08,5.09,4.61,8.86,4.61,4.69,0,8.17-2,10.45-6.01v-24.02c-2.28-3.84-5.73-5.76-10.35-5.76-3.78,0-6.75,1.51-8.91,4.54-2.17,3.03-3.25,7.67-3.25,13.92Z"/><path class="cls-2" d="M1226.7,903.12c-1.56-.26-3.17-.39-4.83-.39-5.44,0-9.1,2.08-10.99,6.25v36.13h-11.87v-52.83h11.33l.29,5.91c2.86-4.59,6.84-6.88,11.91-6.88,1.69,0,3.09.23,4.2.68l-.05,11.13Z"/><path class="cls-2" d="M1360.78,930.76c0-2.12-.87-3.73-2.61-4.83-1.74-1.11-4.63-2.08-8.67-2.93-4.04-.85-7.41-1.92-10.11-3.22-5.92-2.86-8.89-7.01-8.89-12.45,0-4.56,1.92-8.37,5.76-11.43,3.84-3.06,8.72-4.59,14.65-4.59,6.31,0,11.42,1.56,15.31,4.69,3.89,3.12,5.83,7.18,5.83,12.16h-11.87c0-2.28-.85-4.17-2.54-5.69-1.69-1.51-3.94-2.27-6.74-2.27-2.6,0-4.73.6-6.37,1.81-1.64,1.2-2.47,2.82-2.47,4.83,0,1.82.76,3.24,2.29,4.25,1.53,1.01,4.62,2.03,9.28,3.05,4.65,1.03,8.31,2.25,10.96,3.66,2.65,1.42,4.62,3.12,5.91,5.1,1.29,1.99,1.93,4.39,1.93,7.23,0,4.75-1.97,8.6-5.91,11.55-3.94,2.95-9.1,4.42-15.48,4.42-4.33,0-8.19-.78-11.57-2.34-3.39-1.56-6.02-3.71-7.91-6.45-1.89-2.73-2.83-5.68-2.83-8.84h11.52c.16,2.8,1.22,4.96,3.17,6.47s4.54,2.27,7.76,2.27,5.5-.59,7.13-1.78c1.63-1.19,2.44-2.74,2.44-4.66Z"/><path class="cls-2" d="M1495.57,879.44v12.84h9.33v8.79h-9.33v29.49c0,2.02.4,3.48,1.2,4.37.8.9,2.22,1.34,4.27,1.34,1.37,0,2.75-.16,4.15-.49v9.18c-2.7.75-5.31,1.12-7.81,1.12-9.12,0-13.67-5.03-13.67-15.09v-29.93h-8.69v-8.79h8.69v-12.84h11.87Z"/><path class="cls-2" d="M1641.91,939.94c-3.48,4.1-8.43,6.15-14.84,6.15-5.73,0-10.07-1.68-13.01-5.03-2.95-3.35-4.42-8.2-4.42-14.55v-34.23h11.87v34.08c0,6.71,2.78,10.06,8.35,10.06s9.65-2.07,11.67-6.2v-37.94h11.87v52.83h-11.18l-.29-5.18Z"/><path class="cls-2" d="M1771.94,930.07l11.18-37.79h12.26l-18.31,52.83h-10.3l-18.46-52.83h12.3l11.33,37.79Z"/><path class="cls-2" d="M1927.65,928.75l8.4-36.47h11.57l-14.4,52.83h-9.77l-11.33-36.28-11.13,36.28h-9.77l-14.45-52.83h11.57l8.54,36.08,10.84-36.08h8.94l10.99,36.47Z"/></svg>