<svg width="730" height="573" viewBox="0 0 730 573" fill="none" xmlns="http://www.w3.org/2000/svg">
<path fill-rule="evenodd" clip-rule="evenodd" d="M435.556 241.61C428.08 226.972 399.097 102.611 383.856 113.803C291.603 135.962 201.094 162.475 112.868 197.308C87.6662 199.319 127.716 233.309 133.513 241.483C144.16 252.004 147.877 266.389 153.364 279.758C159.289 295.922 170.622 309.017 176.608 325.089C178.524 330.64 180.378 331.17 185.701 328.925C222.264 312.496 262.177 306.902 300.232 295.387C345.102 277.806 392.323 260.566 435.556 241.61ZM73.3772 186.165C71.8162 170.403 78.0732 177.754 87.6072 173.895C129.387 167.706 166.806 146.692 206.92 134.07C262.445 114.431 320.392 103.835 377.298 89.2723C422.791 76.7523 422.688 122.438 437.919 151.661C449.191 176.488 455.24 203.139 464.05 228.86C467.693 239.046 469.662 251.117 457.617 256.157C388.855 282.324 323.194 317.442 250.773 333.024C225.782 334.73 184.381 366.462 164.464 352.602C147.647 331.854 132.769 307.958 123.329 282.829C119.076 269.746 110.914 259.052 102.565 248.551C89.6512 230.959 74.1972 207.379 73.3772 186.165Z" fill="#FF3E02"/>
<path fill-rule="evenodd" clip-rule="evenodd" d="M696.903 407.715C649.967 376.922 604.091 338.084 557.431 309.484C441.074 347.929 325.373 389.099 206.262 418.595C195.62 422.853 162.32 425.161 160.864 435.708C199.96 473.076 237.261 512.283 275.357 550.693C280.497 556.978 285.933 560.819 293.725 556.046C335.878 540.344 378.191 525.08 420.526 509.874C511.668 474.234 608.38 447.148 696.903 407.715M551.446 292.814C547.592 265.693 530.879 241.374 519.106 216.966C491.541 162.889 473.242 104.79 446.841 50.1925C430.327 1.07351 435.822 18.8775 388.538 26.0895C327.868 42.3235 267.75 60.7745 208.48 81.5695C172.659 94.6305 136.131 105.694 99.8999 117.555C90.7029 121.473 78.5369 122.8 71.1229 129.342C69.8349 132.9 66.9219 134.301 64.2689 136.01C51.1409 144.471 37.8069 152.618 24.5649 160.897C19.7299 164.78 27.1119 170.948 28.1349 175.37C64.2369 254.703 88.6419 339.052 135.996 413.055C138.504 416.606 141.766 423.861 147.079 420.896C156.915 415.424 167.036 410.295 178.005 407.499C243.161 392.726 306.747 372.294 370.574 352.971C421.624 338.705 472.483 323.749 522.277 305.545C530.495 300.682 548.584 302.413 551.446 292.814M27.0159 145.91C-5.71811 142.736 72.6969 113.864 78.5529 108.816C169.17 74.1885 261.312 38.6055 356.253 15.9955C456.144 -4.52049 439.081 -19.7545 473.641 65.7045C495.1 111.011 507.864 159.932 531.225 204.496C543.772 231.348 560.497 256.828 567.417 285.896C568.412 291.091 574.729 288.732 577.521 292.581C595.643 307.133 616.119 317.633 634.5 331.798C647.491 345.526 770.809 410.254 714.343 417.682C567.528 466.61 423.892 531.616 275.566 572.893C246.273 566.046 234.874 531.416 211.769 514.578C187.295 492.418 167.906 464.618 140.651 445.724C100.933 404.182 80.2309 342.069 51.8009 292.087C35.1969 277.224 32.2909 255.581 23.0499 236.733C5.67589 211.091 -4.61711 181.367 3.28889 150.527C3.95789 147.527 9.76689 147.717 11.5689 148.694C18.0149 152.998 20.6969 148.194 27.0159 145.91" fill="black"/>
<path fill-rule="evenodd" clip-rule="evenodd" d="M453.463 255.215C452.782 244.017 462.645 257.11 467.159 252.723C458.873 218.625 435.75 185.015 420.836 151.901C411.95 133.615 402.833 115.411 397.152 95.7493C395.961 87.0303 387.816 90.9763 381.88 91.4523C302.621 110.644 225.986 139.374 146.583 158.229C125.617 164.398 105.096 172.158 84.2544 178.768C75.8224 183.608 91.2644 191.835 92.4114 197.734C111.609 238.088 128.674 278.969 154.838 315.203C164.098 324.68 177.507 363.708 192.536 353.422C277.97 318.712 372.442 296.627 453.463 255.215M182.57 371.339C156.353 369.453 145.383 335.023 131.927 316.061C101.216 278.639 91.3624 230.157 68.4924 188.333C53.6644 169.534 154.895 143.029 169.282 135.986C245.371 116.383 318.31 85.0883 395.681 70.8383C421.158 66.3163 419.682 112.358 432.92 128.021C451.734 164.835 469.875 202.128 483.264 241.356C484.767 247.269 491.224 253.649 486.4 259.511C475.286 275.743 453.447 269.269 438.3 279.014C354.893 313.958 267.992 344.029 182.57 371.339" fill="black"/>
<path fill-rule="evenodd" clip-rule="evenodd" d="M522.621 406.453C482.147 386.215 473.588 386.24 433.37 405.094C416.813 412.478 400.117 419.721 384.93 429.775C372.854 437.769 372.983 435.28 380.449 447.516C384.824 451.997 386.715 465.696 394.626 462.5C411.944 455.033 429.371 447.795 446.455 439.823C470.512 426.3 499.912 420.554 522.621 406.453M349.057 435.697C363.62 410.064 403.17 400.309 429.685 388.762C441.32 382.089 467.303 385.401 473.679 376.877C474.553 374.66 477.725 374.262 480.44 374.35C492.739 374.915 564.837 395.788 543.139 413.162C498.434 437.287 449.41 453.628 404.051 477.109C386.234 490.008 378.036 484.686 367.654 466.977C361.295 456.755 350.429 448.233 349.057 435.697" fill="black"/>
<path d="M245.478 263.942C245.478 245.499 248.355 228.512 249.535 210.214C250.092 201.581 254.166 194.268 255.021 185.717C255.582 180.106 257.514 178.501 263.362 179.931C275.104 182.801 286.274 187.316 296.876 193.006C303.54 196.581 309.139 201.686 316.339 204.352C330.483 209.591 344.521 218.723 357.743 226.069" stroke="black" stroke-width="23" stroke-linecap="round"/>
<path d="M259.003 236.89C268.693 235.275 278.641 225.154 287.408 220.659C295.385 216.568 302.453 211.107 310.402 207.133" stroke="black" stroke-width="23" stroke-linecap="round"/>
</svg>
