<svg width="631" height="725" viewBox="0 0 631 725" fill="none" xmlns="http://www.w3.org/2000/svg">
<path fill-rule="evenodd" clip-rule="evenodd" d="M377.715 18C368.223 29.874 354.726 23.885 349.864 36.004C349.008 38.937 346.816 39.891 344.819 41.283C325.323 54.912 322.024 80.094 310.766 99.628C302.914 115.2 295.572 130.921 290.443 147.649C280.64 161.761 286.962 181.61 269.589 190.611C266.604 193.715 266.198 197.654 269.889 199.88C279.412 206.125 270.967 217.173 270.311 225.774C265.71 239.439 267.855 253.473 268.069 267.534C283.744 263.494 301.52 198.014 314.176 199.568C320.825 204.193 320.998 197.945 326.353 197.401C332.595 199.635 335.731 195.221 338.806 191.404C347.213 185.505 352.798 176.974 361.547 171.177C369.774 167.32 362.783 156.727 370.018 152.614C377.653 141.143 394.97 127.693 394.694 113.818C393.973 108.758 393.021 104.087 396.195 99.436C394.132 77.152 406.569 85.48 405.08 70.274C399.459 52.034 390.937 31.65 377.715 18Z" fill="#460AA7"/>
<path fill-rule="evenodd" clip-rule="evenodd" d="M159.53 269.474C164.574 261.532 168.556 253.172 170.113 243.776C180.36 234.49 199.109 257.97 212.236 249.513C221.729 237.258 183.74 221.158 173.839 218.087C151.967 212.322 152.416 234.784 148.078 248.442C142.262 262.016 125.942 227.035 118.391 223.68C99.0441 206.485 82.6333 211.194 72.0442 230.638C68.9612 239.413 58.7214 250.365 63.2187 259.542C80.211 271.307 83.8325 242.282 92.0094 233.426C100.336 225.719 113.603 241.462 118.133 248.794C127.591 263.202 141.493 278.75 159.614 269.389L159.53 269.474Z" fill="#FF3E02"/>
<path fill-rule="evenodd" clip-rule="evenodd" d="M487.465 237.521C488.167 260.984 502.647 281.66 509.839 303.745C517.063 316.486 522.462 344.857 541.735 339.535C564.566 337.429 527.296 265.949 522.372 252.477C515.188 243.403 509.1 218.855 495.285 222.67C487.981 224.17 486.971 231.588 487.465 237.521Z" fill="#FF3E02"/>
<path fill-rule="evenodd" clip-rule="evenodd" d="M453.576 347.806C449.391 330.571 427.02 258.312 406.653 261.293C372.722 274.969 424.151 329.934 424.472 356.216C426.873 363.149 435.161 375.274 443.034 371.435C448.485 363.937 455.043 358.531 453.576 347.806Z" fill="#FF3E02"/>
<path fill-rule="evenodd" clip-rule="evenodd" d="M70.1051 164.734C70.7787 167.689 68.3484 168.294 66.5617 169.321C57.1917 174.499 25.5222 202.02 53.1518 201.415C87.6539 175.149 84.7071 180.826 113.014 210.388C134.928 225.413 135.146 180.246 145.908 184.777C154.04 185.667 183.115 195.913 170.181 177.86C131.714 146.934 125.059 192.654 110.359 176.934C99.8927 164.16 85.2656 163.62 69.996 164.829L70.1051 164.734Z" fill="#FF3E02"/>
<path fill-rule="evenodd" clip-rule="evenodd" d="M530.566 223.104C533.476 251.971 551.396 276.437 561.698 303.03C563.26 309.422 568.27 310.581 574.081 309.186C583.469 306.213 586.124 295.277 584.703 286.091C581.495 271.262 537.966 170.323 530.566 223.104Z" fill="#FF3E02"/>
<path fill-rule="evenodd" clip-rule="evenodd" d="M436.818 256.051C437.705 275.099 464.696 354.204 490.897 332.8C491.933 302.382 469.614 276.025 459.05 248.406C449.732 229.721 435.854 235.516 436.818 256.051Z" fill="#FF3E02"/>
<path fill-rule="evenodd" clip-rule="evenodd" d="M159.615 269.388C156.466 289.265 132.019 294.58 114.511 293.369C111.283 295.889 113.685 299.069 116.208 300.767C131.671 312.209 154.453 324.076 166.532 301.819C175.979 284.293 197.642 303.335 211.869 304.298C236.785 301.149 188.845 273.373 180.651 271.825C174.016 269.175 165.348 272.757 159.615 269.388Z" fill="#FF3E02"/>
<path fill-rule="evenodd" clip-rule="evenodd" d="M69.9959 164.829C89.5517 145.117 86.0553 134.213 115.358 150.992C119.515 154.28 124.703 156.785 128.998 152.632C132.48 132.951 100.873 121.259 84.1204 122.426C64.947 121.154 61.5698 152.116 42.4064 146.675C22.3301 143.548 42.1521 170.941 70.106 164.734C70.105 164.734 69.9959 164.829 69.9959 164.829Z" fill="#FF3E02"/>
<path fill-rule="evenodd" clip-rule="evenodd" d="M392.96 343.748C393.153 329.907 370.673 258.384 353.966 291.599C349.649 305.152 389.723 393.335 392.96 343.748Z" fill="#FF3E02"/>
<path fill-rule="evenodd" clip-rule="evenodd" d="M296.72 186.301C298.597 171.749 304.898 156.784 308.831 142.522C313.285 123.894 314.184 104.046 326.906 88.4698C345.679 68.3328 357.822 35.0008 386.093 27.4148C390.545 26.7728 392.079 27.3368 393.181 31.9268C409.374 79.1048 384.465 129.842 346.758 159.567C338.612 163.914 299.753 202.039 296.72 186.301ZM367.255 656.876C360.264 664.803 347.948 704.556 336.873 699.015C254.192 667.292 169.684 640.317 88.2659 605.353C75.0692 600.834 93.3698 571.451 93.601 560.573C93.8943 556.09 95.7531 549.945 101.448 553.308C187.806 593.239 279.235 623.637 367.255 656.876ZM198.631 306.477C148.553 305.809 98.0232 275.828 68.7781 235.432C55.028 209.607 51.8509 159.238 68.0454 133.9C73.2565 124.36 78.2222 114.656 82.7596 104.788C87.0988 95.0258 88.1347 94.7448 95.9653 102.625C107.474 111.555 111.282 126.425 120.701 136.603C137.457 152.247 145.879 175.561 166.522 186.924C178.293 198.258 185.798 214.329 192.906 229.008C202.464 253.433 212.941 278.518 216.81 304.46C213.24 310.115 206.416 305.723 198.631 306.477ZM419.648 351.649C405.359 352.158 339.96 345.956 337.887 328.762C358.798 297.098 387.763 271.699 421.548 254.499C470.352 239.115 556.659 198.207 601.508 223.658C591.669 249.314 591.233 281.782 570.204 301.305C526.662 333.312 475.852 347.757 419.648 351.649ZM278.815 376.892C279.208 326.513 278.691 277.76 288.919 228.532C294.246 210.539 319.131 211.059 332.051 200.069C378.408 171.824 421.822 125.257 421.004 67.8908C418.841 53.8778 414.944 -3.17718 396.523 0.138825C362.769 8.55383 353.292 14.6158 333.47 43.2898C295.855 86.2198 294.673 111.893 279.444 163.789C268.454 212.557 258.9 262.121 258.783 312.323C257.793 348.517 264.169 383.113 259.665 419.386C242.665 326.333 236.538 223.642 165.542 152.306C143.572 136.315 131.031 112.688 112.116 93.9068C72.4246 46.9598 68.3668 95.3718 49.4166 125.801C1.4895 228.079 91.2838 326.517 195.498 327.278C205.717 327.639 223.193 318.801 222.912 334.64C227.499 370.213 234.783 405.458 239.775 441.004C239.905 450.599 243.688 462.251 238.349 470.84C235.74 474.179 235.113 478.02 234.973 482.1C234.021 510.767 232.765 539.439 230.948 568.059C230.391 575.928 228.602 587.089 218.347 580.729C202.115 573.363 185.138 567.82 168.775 560.859C92.8583 537.48 86.3801 489.663 58.8687 586.686C56.3932 596.892 43.4568 640.665 61.8775 636.119C66.526 629.222 73.8911 637.119 76.7759 628.717C79.7397 617.738 95.5629 631.989 102.627 633.289C133.162 645.883 164.08 656.67 194.514 669.569C234.321 685.059 274.106 701.341 315.411 712.103C327.438 716.198 342.232 732.45 353.21 718.923C362.566 705.071 392.854 662.544 377.841 648.43C344.199 627.322 306.596 614.158 269.284 601.166C229.266 589.677 260.122 586.537 259.642 551.794C264.36 499.844 271.122 447.139 294.998 400.091C301.22 388.522 317.185 345.655 330.762 347.615C383.291 372.824 442.807 372.733 497.691 355.573C536.015 343.374 580.767 329.229 602.878 293.071C610.662 275.3 640.662 208.333 626.198 195.861C623.924 192.882 619.135 192.714 616.873 195.768C610.853 211.545 566.113 194.447 549.31 199.655C495.11 206.04 441.888 224.208 392.37 246.758C339.761 276.574 309.922 326.132 278.815 376.892Z" fill="black"/>
<path fill-rule="evenodd" clip-rule="evenodd" d="M366.509 507.619C394.963 497.199 430.513 492.999 455.062 514.082C464.037 520.827 476.131 542.821 463.211 549.882C426.116 556.894 394.512 526.894 366.509 507.619ZM407.103 480.502C380.391 481.234 355.721 493.269 331.587 502.88C327.145 509.41 309.768 521.066 314.813 528.587C327.731 520.515 342.679 509.995 357.765 519.534C382.606 532.87 404.879 551.696 432.252 559.75C482.369 573.37 500.488 540.562 467.147 502.69C450.777 488.575 428.844 480.301 407.103 480.502Z" fill="black"/>
<path fill-rule="evenodd" clip-rule="evenodd" d="M34.2528 371.16C47.8848 372.342 62.3477 376.222 74.2081 383.76C78.5843 386.78 114.6 407.083 93.5497 404.318C71.2493 398.036 49.5194 389.671 26.2651 387.431C8.60311 387.036 22.1431 367.73 34.2528 371.16ZM133.316 439.607C132.996 392.691 67.5027 351.981 24.0039 355.124C4.79846 358.004 -10.5613 393.061 12.3918 401.096C43.837 409.622 76.0469 415.173 107.745 422.709C119.809 423.735 124.081 432.392 133.316 439.607Z" fill="black"/>
</svg>
