<svg width="728" height="652" viewBox="0 0 728 652" fill="none" xmlns="http://www.w3.org/2000/svg">
<path fill-rule="evenodd" clip-rule="evenodd" d="M633.137 47.8595C632.796 39.1395 614.572 12.9885 623.132 37.4375C624.236 40.8905 628.744 52.7465 633.137 47.8595ZM547.182 76.3815C515.633 77.9425 559.153 124.343 571.969 115.936C568.445 101.143 565.679 78.9015 547.182 76.3815ZM527.223 190.962C521.471 190.594 505.169 189.643 510.377 180.862C531.801 181.426 547.192 169.04 562.33 156.456C567.088 151.659 577.898 139.773 566.699 135.899C545.535 125.301 512.679 108.697 518.054 80.5675C520.892 66.5545 531.137 59.1275 546.792 59.3355C594.787 64.3805 586.978 123.582 599.595 120.052C615.693 113.619 625.748 99.0735 631.399 83.2925C637.353 75.0755 603.548 63.0925 598.748 40.4885C584.205 -34.6185 655.18 9.96354 655.836 57.5405C658.34 72.4845 696.764 53.3705 692.715 69.0635C684.772 78.6875 673.922 84.0805 661.163 83.0905C647.717 79.3485 647.002 114.755 621.529 129.606C613.605 138.734 597.291 135.259 592.324 145.943C582.54 170.667 552.786 187.839 527.223 190.962Z" fill="#460AA7"/>
<path fill-rule="evenodd" clip-rule="evenodd" d="M583.496 456.324C538.664 449.638 703.454 386.61 705.854 399.221C686.101 419.516 653.736 425.628 628.402 438.181C613.382 444.124 599.374 452.807 583.496 456.324Z" fill="#FF3E02"/>
<path fill-rule="evenodd" clip-rule="evenodd" d="M605.976 484.765C580.919 466.548 644.148 457.522 654.601 450.517C675.239 443.987 695.459 429.109 716.102 425.725C716.885 453.215 630.148 477.016 605.976 484.765Z" fill="#FF3E02"/>
<path fill-rule="evenodd" clip-rule="evenodd" d="M608.227 416.168C592.345 410.551 599.005 403.34 610.01 396.472C639.071 383.145 666.166 363.696 696.21 353.321C713.556 365.927 621.469 411.537 608.227 416.168Z" fill="#FF3E02"/>
<path fill-rule="evenodd" clip-rule="evenodd" d="M598.563 381.841C596.819 365.029 656.542 342.171 671.774 340.615C686.958 349.285 648.116 364.401 641.965 369.925C633.848 372.852 594.493 404.24 598.563 381.841Z" fill="#FF3E02"/>
<path fill-rule="evenodd" clip-rule="evenodd" d="M635.87 326.961C631.806 335.876 587.68 379.445 606.557 344.25C614.354 337.673 624.337 316.637 635.87 326.961Z" fill="#FF3E02"/>
<path fill-rule="evenodd" clip-rule="evenodd" d="M181.87 323.19C179.231 318.193 175.506 318.614 170.738 319.097C158.447 320.094 146.158 321.135 133.881 322.298C121.358 326.363 109.144 333.822 96.4816 338.602C91.4266 341.094 88.5356 336.371 83.7126 341.272C64.5986 356.649 35.0076 373.548 30.4206 398.318C50.8956 380.23 73.6636 361.959 100.894 353.155C122.191 344.798 144.015 337.955 166.156 332.146C172.418 330.317 178.39 329.66 181.87 323.19ZM150.6 350.487C112.284 363.191 64.8976 376.628 40.2126 409.658C59.1616 415.667 79.1836 400.579 97.6556 410.396C111.932 419.008 118.955 387.191 128.055 379.575C134.294 369.154 147.169 361.579 150.6 350.487ZM251.161 248.006C215.449 250.58 181.778 258.862 151.073 277.358C141.708 282.719 146.265 296.333 140.093 304.58C137.714 311.798 149.036 307.459 152.752 308.053C172.798 305.652 181.441 322.56 185.16 294.866C207.271 238.975 242.157 281.99 260.622 267.814C290.65 247.678 276.287 250.261 251.161 248.006ZM76.4806 547.41C95.4286 542.597 112.54 536.193 130.432 529.093C137.775 520.07 149.241 515.042 155.421 505.246C168.107 471.017 184.134 439.176 205.953 409.658C212.437 397.595 224.898 390.526 233.649 381.253C231.684 377.92 226.023 379.691 222.899 378.161C217.642 376.342 213.418 375.945 210.368 381.931C192.916 392.253 179.942 406.997 169.881 424.783C139.291 466.604 116.241 512.805 76.4806 547.41ZM265.208 419.796C263.486 385.747 253.435 377.271 250.564 417.64C249.043 442.226 244.41 466.934 233.019 488.918C215.391 521.072 192.771 549.971 173.368 580.982C171.881 590.831 118.117 633.338 148.526 626.36C228.972 594.526 250.238 495.966 265.208 419.796ZM277.931 194.217C232.983 193.274 191.517 209.116 154.341 233.34C142.17 239.799 142.176 236.166 143.408 252.999C139.644 275.593 177.91 237.496 195.438 238.475C219.273 233.799 243.415 228.077 267.445 234.64C277.825 235.143 290.493 245.559 299 236.311C349.591 186.294 334.765 202.904 277.931 194.217ZM409.313 93.8158C369.096 74.8268 317.801 82.9638 275.416 92.5838C234.804 106.822 192.376 130.119 168.63 167.065C164.634 175.998 177.339 166.277 180.003 164.332C235.799 130.247 306.18 102.046 371.729 121.027C378.892 121.372 387.129 132.737 392.964 127.354C398.387 116.283 406.008 105.599 409.313 93.8158ZM116.04 614.281C111.897 645.043 143.65 596.429 151.755 591.878C168.507 572.431 181.078 549.611 195.253 528.251C207.2 505.918 223.029 485.446 229.209 460.46C232.926 439.99 242.876 419.044 241.965 398.46C203.287 426.607 191.849 479.314 168.394 519.241C142.469 560.469 123.367 540.897 116.04 614.281ZM28.8806 552.858C101.637 538.639 134.985 393.917 199.75 368.125C199.357 361.837 193.156 359.015 191.119 353.667C189.786 350.607 187.847 345.033 183.749 345.925C149.026 366.248 132.613 405.732 105.798 434.141C92.2606 469.781 13.0756 514.622 28.8806 552.858ZM386.534 135.232C314.513 121.998 230.523 144.971 171.008 187.441C165.523 191.127 137.309 214.652 148.63 218.056C202.662 174.623 274.503 167.504 339.258 188.636C354.961 187.329 378.92 149.581 386.534 135.232ZM204.83 334.824C216.763 382.289 264.129 343.732 285.103 369.926C302.755 402.244 289.421 442.546 278.601 475.226C278.411 480.961 270.297 494.808 278.183 496.432C287.83 490.514 294.089 499.513 301.752 504.307C322.212 518.315 345.687 528.283 369.979 533.527C408.159 538.554 445.162 511.154 468.758 483.39C478.521 472.616 412.417 481.894 399.81 466.606C367.726 446.745 370.523 423.73 407.516 451.473C428.621 465.286 454.161 458.899 477.706 458.474C494.529 450.452 500.025 426.148 508.983 410.468C517.335 391.908 519.128 371.266 524.292 351.721C527.894 336.037 528.389 336.578 512.481 338.06C499.796 336.881 477.812 347.515 471.883 331.67C458.899 295.155 455.648 256.692 447.456 219.094C441.243 189.833 427.15 163.214 419.696 134.343C418.948 126.853 413.543 124.987 411.256 133.715C406.855 139.903 402.252 146.024 398.318 152.504C375.697 190.86 340.976 219.82 309.268 250.446C296.102 267.092 263.967 271.317 258.878 289.086C258.784 289.545 257.757 289.805 256.849 290.342C249.018 285.395 239.757 285.362 230.828 284.248C215.006 281.9 206.626 300.084 203.816 313.055C198.589 326.492 214.457 319.195 219.385 327.631C222.702 334.868 209.034 333.114 204.83 334.824ZM268.901 512.133C248.778 564.948 221.48 619.828 165.717 641.795C147.667 650.539 127.424 641.371 109.745 650.997C107.502 651.149 105.272 650.56 104.541 648.052C95.5996 632.39 91.3856 624.333 95.7856 605.311C98.5286 590.627 102.224 576.235 108.439 562.583C111.826 557.52 106.524 557.144 103.092 558.805C22.8696 597.962 -36.7764 578.144 26.6026 489.26C31.6646 479.222 89.1336 433.42 77.0956 428.381C55.4846 432.788 33.0236 432.736 14.2376 419.884C-18.9744 381.087 63.7116 322.649 95.4576 308.579C112.606 302.93 123.482 290.256 118.295 271.666C103.798 190.031 159.749 114.464 233.509 84.6428C285.839 61.9818 351.613 53.7908 405.004 76.4128C433.339 105.271 441.203 150.536 458.542 186.818C472.633 220.348 474.575 256.698 482.629 291.725C487.85 304.049 483.187 331.428 503.784 325.103C517.526 326.732 547.162 313.502 548.743 334.069C534.303 371.319 532.177 413.536 508.715 447.362C493.328 468.477 486.066 495.238 465.356 512.197C429.763 543.679 381.694 565.995 334.802 547.21C321.607 542.349 270.211 526.863 271.027 511.838C270.319 511.937 269.61 512.035 268.901 512.133Z" fill="black"/>
<path fill-rule="evenodd" clip-rule="evenodd" d="M588.823 458.673C604.871 469.665 626.543 472.36 643.664 482.768C655.781 489.256 669.913 487.217 683.143 488.039C706.781 483.35 713.311 441.696 711.477 421.194C707.935 410.294 699.328 428.251 693.388 427.765C686.297 426.288 682.599 419.779 684.933 412.851C689.696 399.98 695.803 387.233 695.2 373.125C695.849 357.567 677.152 330.488 664.844 352.401C658.293 361.017 665.925 392.413 648.003 386.627C635.84 376.111 648.739 356.902 644.755 342.996C644.694 327.889 622.238 303.084 613.25 325.086C607.606 362.347 601.692 399.936 605.407 437.658C607.49 448.937 597.993 455.082 588.823 458.673ZM671.983 508.472C642.811 511.457 619.739 496.435 593.711 487.322C574.495 475.43 548.577 486.724 533.111 468.922C531.374 464.512 542.469 455.666 546.897 455.291C559.515 454.839 570.704 449.136 582.512 445.762C589.638 443.725 589.654 442.999 589.55 435.838C588.441 407.828 590.894 380.024 595.602 352.443C595.463 323.849 612.148 281.136 644.814 310.277C650.979 315.657 654.265 324.429 659.285 330.359C662.735 332.874 665.599 328.228 668.985 327.381C691.541 321.678 708.319 346.112 711.669 365.796C713.568 375.919 712.159 386.058 710.114 395.978C715.629 404.927 725.01 395.933 727.286 416.076C730.426 448.628 714.866 516.095 671.983 508.472Z" fill="black"/>
<path fill-rule="evenodd" clip-rule="evenodd" d="M415.266 313.92C417.717 302.148 408.567 294.034 409.339 282.797C429.781 245.148 448.517 328.487 426.406 340.809C392.262 382.793 365.55 335.186 363.291 299.501C362.355 293.537 363.392 284.394 370.793 283.97C382.561 286.543 378.586 309.953 385.554 319.121C392.357 344.664 417.6 339.692 415.266 313.92Z" fill="black"/>
<path fill-rule="evenodd" clip-rule="evenodd" d="M273.928 336.848C265.519 334.774 221.202 324.807 221.797 317.281C229.835 304.43 244.399 312.21 256.212 314.514C269.032 317.21 306.264 328.054 273.928 336.848Z" fill="black"/>
</svg>
