<svg width="416" height="488" viewBox="0 0 416 488" fill="none" xmlns="http://www.w3.org/2000/svg">
<path fill-rule="evenodd" clip-rule="evenodd" d="M125.42 421.033C93.9908 431.037 69.4689 465.447 34.9046 461.719C-12.7071 449.518 200.783 250.471 221.224 228.748C223.518 226.404 232.133 219.519 225.393 218.122C188.965 216.28 153.193 207.232 118.634 195.848C110.814 193.364 109.84 191.598 109.733 183.056C115.941 145.82 169.555 133.083 194.812 109.071C208.115 102.926 290.261 32.4488 293.255 55.6813C293.376 64.7511 291.394 73.5727 282.183 78.2789C257.52 92.5359 248.63 118.449 239.749 143.471C233.492 153.312 239.609 161.191 242.832 169.587C276.487 192.047 319.581 198.743 351.262 225.999C355.906 229.502 361.041 232.597 366.37 234.909C373.914 238.234 394.881 255.438 383.865 261.888C298.911 315.844 210.357 367.281 125.42 421.033Z" fill="#FF3E02"/>
<path fill-rule="evenodd" clip-rule="evenodd" d="M392.623 245.408C347.963 217.879 295.697 202.697 252.673 172.35C239.661 162.03 238.199 155.052 247.065 141.206C259.781 121.345 268.753 99.7511 277.452 77.9984C289.436 48.35 246.073 93.5453 237.575 96.7484C199.917 124.41 158.786 147.61 123.969 178.953C121.806 181.099 117.56 184.183 120.189 187.419C149.336 196.961 179.574 204.974 208.535 215.894C218.402 221.863 232.075 216.919 240.373 224.419C242.981 228.583 237.194 231.459 238.031 235.799C238.332 237.366 236.606 240.139 235.032 241.13C213.837 252.973 196.834 271.465 177.979 285.614C169.558 284.531 171.927 295.031 166.72 298.275C155.306 309.616 142.048 317.642 133.67 331.549C101.667 368.802 61.4247 404.118 40.7679 448.587C157.965 383.319 281.004 319.827 392.623 245.408ZM197.738 239.096C175.612 219.668 87.6275 223.109 90.6609 186.552C107.51 129.525 273.444 50.9791 327.098 6.34832C331.407 3.67384 337.322 -3.82569 341.757 2.42312C345.111 7.50117 348.58 10.1852 344.322 15.2609C330.572 34.215 315.977 52.3814 304.979 73.1674C293.067 91.3649 286.349 111.81 278.954 132.036C277.264 139.655 262.986 149.886 271.07 156.724C309.325 180.783 352.144 197.444 392.024 218.936C399.868 224.739 417.669 227.037 415.874 239.288C413.067 254.561 392.092 267.19 379.171 275.484C362.308 291.77 340.677 301.226 321.069 313.972C244.628 362.231 163.666 402.515 85.4341 447.745C60.773 461.468 35.4745 474.225 10.8681 487.908C-7.97295 489.591 1.83837 467.788 9.40863 459.464C58.9609 375.5 129.33 306.954 197.738 239.096Z" fill="black"/>
</svg>
