<svg width="518" height="452" viewBox="0 0 518 452" fill="none" xmlns="http://www.w3.org/2000/svg">
<path fill-rule="evenodd" clip-rule="evenodd" d="M248.55 136.246C213.024 135.271 180.801 125.89 146.376 119.347C127.906 116.705 109.536 108.603 90.7537 111.529C81.3547 113.666 75.4517 104.304 66.3047 104.172C64.0167 103.888 61.7007 103.061 61.8447 100.412C62.5407 95.3813 68.4777 95.1613 69.9087 90.1153C71.6107 85.5583 76.4657 83.6533 81.0817 82.4023C120.988 71.4323 161.793 64.0043 200.957 50.3663C222.181 46.7593 368.404 -23.4377 339.905 35.7623C325.565 43.2853 321.577 60.4033 311.176 71.9103C304.605 83.9813 287.674 92.9943 288.364 107.481C288.809 108.692 286.837 111.992 285.357 112.491C270.538 117.646 267.203 140.698 248.55 136.246Z" fill="#FF3E02"/>
<path fill-rule="evenodd" clip-rule="evenodd" d="M36.6626 101.312C20.5436 103.943 33.3656 110.233 40.8226 114.437C52.9486 121.677 64.5036 129.875 77.3476 135.919C96.5926 144.674 114.207 156.656 128.093 172.723C131.488 176.527 132.579 176.304 135.545 172.46C139.009 164.679 171.478 133.678 164.428 129.612C120.736 123.652 81.4166 103.195 36.6626 101.312ZM71.6746 90.6998C73.1756 94.0008 75.9996 93.9598 78.3736 94.0408C94.4906 95.3958 112.208 98.2228 127.101 103.563C130.867 107.705 135.133 107.453 139.779 107.502C151.306 108.577 162.278 112.664 174.011 113.041C199.085 115.738 224.175 121.12 248.893 126.419C262.35 131.015 261.763 133.583 270.496 117.836C279.876 100.922 290.977 85.3118 304.968 71.8098C385.385 -6.60721 289.91 28.8878 242.592 39.7368C184.746 53.7228 128.351 72.9468 71.6746 90.6998ZM194.58 337.133C194.763 337.136 194.946 337.139 195.13 337.142C195.59 311.382 195.947 285.617 196.851 259.868C197.559 249.473 183.877 247.461 179.854 238.842C167.479 221.411 143.577 219.415 129.255 204.009C106.424 177.236 75.3376 162.776 45.3286 146.212C36.5396 141.854 29.5016 132.175 20.0226 130.639C17.2936 151.236 22.4356 172.369 21.6756 193.26C20.9246 221.15 18.5666 249.017 18.2036 276.935C19.6566 293.015 12.6716 318.63 28.7366 328.198C64.6656 345.237 99.4716 365.405 132.288 387.885C149.947 401.297 170.785 409.466 189.908 420.527C194.929 421.873 192.947 414.051 193.446 411.153C193.833 386.479 194.204 361.806 194.58 337.133ZM216.548 344.567C216.173 344.569 215.799 344.57 215.425 344.572C218.317 354.721 206.207 444.624 221.929 429.445C277.426 390.447 345.277 375.202 404.866 345.804C428.785 337.313 448.924 318.408 474.703 314.414C479.676 314.431 479.704 314.106 480.494 308.675C484.445 267.851 513.532 145.706 462.921 131.528C414.027 120.807 365.662 107.495 316.623 97.4928C307.822 81.2998 366.264 89.8208 374.352 92.9748C395.866 98.1278 417.174 104.261 438.749 109.079C439.987 109.241 439.958 107.578 439.576 106.957C427.296 97.4728 413.516 89.8148 400.817 80.8278C345.003 48.8328 359.188 28.7838 332.937 66.9128C317.896 83.6608 302.381 100.094 290.744 119.544C281.478 132.238 273.059 153.836 253.838 145.2C233.053 135.976 209.902 136.352 187.757 132.715C174.859 135.885 170.52 155.002 160.914 163.952C152.454 171.187 154.721 180.22 146.102 186.943C142.042 196.278 187.223 209.356 192.38 225.857C198.271 234.024 209.394 244.336 220.179 240.557C278.489 217.824 339.952 202.81 399.35 182.703C420.593 176.466 442.194 171.294 461.891 160.666C466.176 157.431 479.181 159.352 474.985 166.494C459.199 179.47 438.003 182.882 419.267 190.028C352.921 213.52 284.836 232.399 219.026 257.063C213.46 258.945 215.274 264.855 215.343 269.401C215.756 294.457 216.149 319.512 216.548 344.567ZM480.041 326.961C472.275 338.982 461.451 341.355 452.388 346.374C420.512 363.759 387.216 378.599 352.686 389.902C305.999 406.596 260.592 427.542 216.327 449.715C210.575 451.891 198.266 455.086 201.178 444.474C166.509 433.943 128.613 410.919 95.4736 390.312C67.7466 377.633 43.9416 356.802 14.4076 348.321C10.5086 347.39 4.7966 345.212 5.1916 340.528C-4.8264 270.033 4.6406 198.657 0.815595 127.57C2.0156 112.584 -5.11841 105.305 13.7206 99.3728C110.467 61.6568 208.657 27.3328 310.587 6.60479C313.771 5.86379 316.888 5.24779 319.022 2.22479C329.172 -4.65221 341.055 10.8058 349.412 15.9428C353.285 20.3888 362.231 18.2938 362.493 25.1868C366.073 34.3238 377.762 38.5758 384.826 45.1328C399.339 55.4158 414.585 64.6048 428.158 76.2898C447.392 90.5248 469.301 101.369 482.191 122.573C484.677 125.356 487.437 127.7 491.645 125.861C497.99 128.692 505.23 134.753 508.32 142.592C527.773 200.961 510.521 260.444 507.256 319.503C509.382 348.592 481.277 350.199 480.041 326.961Z" fill="black"/>
<path fill-rule="evenodd" clip-rule="evenodd" d="M110.917 278.904C113.375 270.337 111.799 253.928 122.186 248.384C143.95 236.861 132.083 316.332 119.514 299.963C111.329 294.297 110.782 289.682 110.917 278.904Z" fill="black"/>
<path fill-rule="evenodd" clip-rule="evenodd" d="M73.5678 243.58C72.8388 252.472 71.1598 282.715 57.1738 272.627C50.4958 261.896 54.1788 248.476 56.8648 236.962C62.7928 222.944 75.6678 230.232 73.5678 243.58Z" fill="black"/>
<path fill-rule="evenodd" clip-rule="evenodd" d="M79.6831 318.011C88.8091 319.233 97.0741 321.245 103.091 328.362C101.647 347.206 43.8201 324.417 79.6831 318.011Z" fill="black"/>
<path d="M260.668 350.155C262.737 338.14 265.112 326.435 268.757 314.794C271.155 307.131 273.59 299.478 275.199 291.602C276.652 284.487 279.04 278.233 281.605 271.523C282.397 269.452 282.702 266.183 284.397 269.447C288.332 277.026 292.046 284.728 295.743 292.425C298.892 298.982 301.946 305.418 304.333 312.289C306.426 318.315 309.479 324.467 310.274 330.828" stroke="black" stroke-width="23" stroke-linecap="round"/>
<path d="M274.841 320.521C287.411 316.529 300.013 311.478 311.562 305.703" stroke="black" stroke-width="23" stroke-linecap="round"/>
<path d="M337.332 245.788C337.332 272.69 346.351 298.821 346.351 325.673" stroke="black" stroke-width="23" stroke-linecap="round"/>
<path d="M343.13 239.345C350.361 239.145 355.938 233.658 363.244 233.547C365.772 233.509 368.304 233.547 370.832 233.547C373.534 233.547 374.409 238.731 375.198 240.777C377.658 247.153 376.822 252.984 373.481 258.744C367.212 269.552 355.832 271.73 345.707 277.355" stroke="black" stroke-width="23" stroke-linecap="round"/>
<path d="M361.813 273.49C368.21 274.143 374.282 275.294 380.496 276.926C383.337 277.672 383.728 278.777 384.576 281.794C385.755 285.992 385.865 292.661 383.251 296.146C376.779 304.776 367.393 309.802 360.059 317.441C357.768 319.828 354.738 321.799 352.149 323.741" stroke="black" stroke-width="23" stroke-linecap="round"/>
<path d="M456.246 232.239C452.459 226.875 448.109 218.709 442.216 215.131C439.999 213.785 434.55 214.104 432.051 214.201C425.82 214.444 422.963 221.382 421.099 226.298C417.308 236.3 416.073 247.197 415.373 257.794C414.924 264.593 415.112 270.865 417.771 277.229C419.776 282.027 423.434 289.901 428.902 291.724C441.808 296.026 457.033 283.065 459.467 270.894" stroke="black" stroke-width="23" stroke-linecap="round"/>
</svg>
