<svg width="818" height="1185" viewBox="0 0 818 1185" fill="none" xmlns="http://www.w3.org/2000/svg">
<path fill-rule="evenodd" clip-rule="evenodd" d="M394.207 455.173C418.892 436.376 480.865 427.923 507.211 446.022C533.233 464.197 536.07 493.588 548.196 520.626C559.637 515.231 578.53 522.958 581.847 533.574C585.961 538.581 586.146 552.648 588.983 559.379C712.425 579.028 731.166 675.267 746.024 784.525C765.68 895.394 810.301 1006.02 790.93 1120.11C793.454 1123.76 795.444 1127.31 797.284 1131.52C801.693 1139.03 796.014 1149.65 787.121 1149.23C775.61 1148.22 764.213 1146.84 752.648 1146.41C720.588 1145.3 688.499 1145.43 656.427 1145.84L652.054 1145.9C490.421 1147.91 328.797 1151.87 167.157 1152.93C161.293 1152.93 158.422 1147.67 159.205 1142.49C160.782 1132.04 162.245 1121.59 163.772 1111.14C125.54 1121.24 84.8958 1123.78 46.7718 1112.2C44.1048 1109.49 52.9858 1110.96 54.3948 1110.55C19.3088 1086.57 29.7868 1036.06 32.8948 999.687C52.2208 875.036 59.0338 737.118 133.703 630.751C166.006 587.343 213.365 552.975 267.784 545.242L269.294 545.035C285.206 542.914 302.939 542.23 316.852 533.574C332.499 521.083 339.167 498.002 355.628 497.786C361.064 497.715 368.459 504.591 376.416 509.26C377.01 498.989 382.545 490.322 383.767 482.358L383.866 481.677C385.141 472.393 383.395 464.04 394.207 455.173ZM659.495 787.818C624.804 763.719 535.191 775.828 533.14 777.177C528.623 780.148 526.678 780.411 524.235 784.269C521.823 784.589 519.413 784.921 517.005 785.263C512.174 786.841 515.754 792.783 521.334 790.663C517.978 805.137 527.855 815.431 531.787 829.74C533.064 834.386 531.833 842.743 531.787 847.49C532.168 853.543 538.86 860.693 537.745 866.765C533.78 888.354 512.262 909.414 521.334 930.351C527.344 942.176 545.42 948.206 557.438 952.226C582.337 961.782 625.721 951.866 640.188 930.351C647.905 918.875 656.844 889.928 661.445 880.949L662.465 866.705C664.98 831.298 667.217 793.183 659.495 787.818Z" fill="white"/>
<path fill-rule="evenodd" clip-rule="evenodd" d="M349.584 495.698C351.979 493.577 355.523 496.242 354.001 499.107C350.581 505.546 347.073 511.647 342.483 517.339C339.7 520.79 336.719 524.054 333.698 527.282C341.451 533.989 348.1 542.316 354.379 550.12C362.408 560.101 369.999 570.505 379.012 579.638C387.901 588.645 397.729 594.942 409.613 599.14L412.013 599.974C423.952 604.165 436.711 609.825 443.44 621.128C444.767 623.357 442.095 626.111 439.849 624.72C428.156 617.48 414.417 616.024 401.689 611.24C389.394 606.619 378.676 599.507 369.206 590.43C359.752 581.368 351.814 571.058 343.534 560.966C335.346 550.987 326.53 542.464 316.845 534.021C301.9 544.075 284.84 548.45 267.493 552.747L265.599 553.216C248.231 557.516 230.956 562.51 214.662 569.998C200.296 576.599 186.166 584.482 174.464 595.224C162.042 606.624 152.374 621.184 143.525 635.423C123.731 667.279 109.815 702.179 97.5643 737.503C84.8223 774.245 74.1643 811.723 65.5603 849.646C61.1843 868.936 57.6303 888.363 54.7093 907.926C53.3033 917.348 52.0543 926.79 50.9573 936.253C49.7863 946.358 49.5173 956.754 46.4173 966.47C45.0883 970.634 41.9503 972.362 38.8093 972.215L38.1713 980.194C37.3253 990.832 36.5367 1001.47 36.2703 1012.18C35.8284 1029.98 36.0287 1047.72 37.309 1065.48L37.4903 1067.9C38.4963 1080.87 40.7443 1095.43 50.4913 1104.92C60.5853 1114.75 76.1083 1117.84 89.7133 1118.02C121.4 1118.43 151.902 1103.46 179.942 1090.33C208.82 1076.8 236.909 1061.78 264.325 1045.5C278.287 1037.21 292.098 1028.64 305.733 1019.82C312.424 1015.49 319.068 1011.09 325.662 1006.61C329.439 1004.05 333.018 1001.24 336.863 998.97C334.979 997.216 334.138 994.458 335.716 992.05C324.601 982.402 319.975 965.185 319.434 951.254C318.997 940.009 320.652 928.796 321.958 917.657C322.617 912.04 323.431 906.433 324.276 900.841C324.61 898.632 324.865 896.269 325.255 893.937C295.242 910.43 264.388 925.118 232.717 938.167C216.483 944.856 200.041 950.87 183.372 956.381L179.994 957.493C164.2 962.662 148.028 967.546 131.7 970.502C130.827 970.66 130.118 969.371 131.05 968.96C146.962 961.939 163.425 956.017 179.576 949.551L182.23 948.47V948.47C181.925 948.453 181.609 948.411 181.279 948.332C171.807 946.046 162.409 942.523 153.119 939.557C144.497 936.804 134.81 935.075 126.751 930.919C126.131 930.599 126.478 929.737 127.082 929.696C136.14 929.068 145.973 931.708 154.854 933.261L158.191 933.845C163.78 934.831 169.493 935.89 175.054 937.272C175.255 935.409 176.296 933.538 177.777 932.441C194.074 920.372 192.419 895.996 194.162 878.021L195.455 864.676C197.728 841.321 200.133 817.969 203.787 794.788C203.982 793.55 205.897 793.905 205.905 795.074C206.094 823.809 203.925 852.411 202.837 881.101L202.669 885.807C202.068 903.51 201.597 921.892 190.447 935.514C192.006 934.603 194.114 934.603 195.377 936.105C196.929 937.952 197.825 940.026 197.797 942.061C207.872 937.837 217.903 933.503 227.885 929.081C259.978 914.863 291.398 898.952 321.987 881.736C325.279 879.883 328.408 881.339 330.036 883.782L330.271 883.748C330.31 883.743 330.35 883.739 330.391 883.738L330.624 883.728C330.633 883.728 330.642 883.729 330.65 883.729C334.956 881.363 340.822 883.048 344.517 886.499C344.626 886.603 344.719 886.715 344.816 886.825C349.494 884.725 353.862 881.89 357.826 878.297C365.938 870.945 372.809 861.854 378.799 852.738C389.83 835.948 399.2 817.277 414.101 803.456C426.208 792.227 441.218 785.236 456.965 780.847C456.899 780.387 457.075 779.897 457.393 779.571C458.202 778.742 458.779 778.455 459.824 778.958C459.907 778.999 459.957 779.055 459.991 779.115L461.528 776.49C462.367 775.065 463.228 773.63 463.526 773.253C465.314 771.002 467.154 768.768 469.022 766.581C472.189 762.878 475.798 759.224 479.977 756.656C489.127 751.035 498.746 754.216 508.153 757.288C513.837 759.145 519.502 761.062 525.176 762.947L525.762 763.138C529.992 764.497 534.943 765.686 536.835 770.169C537.584 771.943 537.7 773.784 537.351 775.57C577.535 765.351 622.167 770.046 661.38 782.042C662.885 782.502 664.388 783.74 664.705 785.366C669.198 808.407 671.199 832.036 669.166 855.47C667.412 875.698 662.93 895.521 654.484 914.04L654.004 915.086C646.067 932.248 633.486 953.405 614.273 958.784C602.672 962.032 589.841 960.117 578.009 959.522C566.51 958.943 554.756 958.859 543.366 957.051C533.222 955.441 524.334 950.894 518.065 942.646C512.657 935.53 509.809 926.93 507.476 918.375C506.408 918.715 505.347 919.076 504.303 919.485C499.896 921.206 496.162 923.984 492.786 927.253C485.657 934.157 480.127 942.542 472.668 949.13C465.916 955.094 458.222 959.732 449.969 963.298C432.868 970.687 414.522 973.64 396.433 977.556L395.171 977.831C381.553 980.819 367.653 984.488 355.633 991.578C355.398 993.665 354.447 995.629 352.923 996.915C355.043 998.906 355.941 1002.06 354.078 1005.02C348.874 1013.28 339.911 1017.97 331.864 1023.26L331.34 1023.6C323.424 1028.85 315.439 1033.99 307.389 1039.03C291.024 1049.28 274.317 1058.96 257.374 1068.22C230.123 1083.1 202.287 1097.15 173.947 1109.88C175.648 1118.25 175.027 1126.88 176.305 1135.31L176.501 1136.51C177.047 1139.63 176.31 1142.25 174.156 1144.29L173.928 1144.5L173.932 1144.47L173.73 1144.66L173.663 1144.72L173.685 1144.7C173.437 1144.93 173.181 1145.14 172.92 1145.32L172.587 1145.53V1145.53C170.513 1146.79 167.843 1146.78 165.719 1145.67L165.476 1145.53L165.068 1145.3C162.262 1143.68 160.327 1139.68 161.491 1136.51C164.352 1128.7 165.433 1120.37 168.075 1112.51L165.979 1113.44V1113.44L163.217 1114.65C133.339 1127.57 100.15 1138.45 67.5963 1129.64C53.2123 1125.75 39.7683 1117.51 32.5713 1104.09C25.4893 1090.89 24.4883 1075.55 24.1123 1060.86C23.6483 1042.73 24.6203 1024.32 27.0113 1006.35C28.6163 994.282 30.5573 981.988 33.5513 970.047C32.0113 968.688 30.8793 966.739 30.5803 964.325C29.1673 952.92 31.6403 941.063 33.1543 929.717C34.6333 918.639 36.2673 907.583 38.1153 896.561C41.8463 874.302 46.1813 852.09 51.2283 830.092C60.2103 790.941 72.0713 752.486 86.3513 714.95L87.6018 711.68C100.797 677.372 116.076 643.794 137.35 613.654C147.527 599.234 158.285 586.16 172.665 575.769C186.137 566.033 201.333 559.023 217.015 553.665C232.714 548.303 248.85 544.71 265.271 542.475C281.948 540.205 299.551 538.813 315.108 531.973C313.14 528.445 314.829 523.682 318.141 521.494C329.287 514.13 339.594 504.55 349.584 495.698ZM706.39 815.919C706.857 815.21 707.966 815.658 707.761 816.497C702.34 838.706 697.251 860.96 693.928 883.593C687.929 924.443 689.033 965.826 689.523 1006.98L689.548 1009.11C689.8 1031.27 690.15 1053.44 690.883 1075.6C691.253 1086.8 691.985 1098.1 691.587 1109.31C691.37 1115.39 689.75 1121.13 689.176 1127.14C688.673 1132.39 689.121 1137.72 689.372 1142.98C689.54 1146.48 684.38 1146.33 684.029 1142.98L683.58 1138.65C682.997 1133.17 682.276 1127.73 680.481 1122.48C678.322 1116.18 677.286 1109.98 676.537 1103.36C675.39 1093.21 674.88 1082.96 674.437 1072.75L674.134 1065.68C672.285 1022.97 672.35 980.069 675.343 937.409L675.562 934.362C678.526 894.038 683.669 850.469 706.39 815.919ZM590.835 561.773C589.419 561.191 589.915 559.05 591.483 559.423L594.335 560.103C615.229 565.108 635.745 570.53 655.247 579.843C674.762 589.161 691.284 603.072 704.412 620.178C729.932 653.429 740.537 693.839 748.909 734.211C758.213 779.072 766.684 824.097 776.069 868.944L777.812 877.297C786.496 919.067 794.695 960.86 800.736 1003.12L801.17 1006.19C807.262 1049.65 810.927 1094.62 804.279 1138.19C802.964 1146.81 788.618 1144.67 789.179 1136.15C790.799 1111.53 791.959 1087.03 790.838 1062.35C789.716 1037.67 787.401 1013.1 783.95 988.63C781.046 968.039 776.717 947.705 772.886 927.279L772.285 924.053C769.077 906.679 765.77 889.323 762.47 871.965L757.539 845.977C750.148 807.064 742.612 768.117 734.097 729.449L733.592 727.173C725.259 689.971 712.974 651.002 687.979 621.46C662.614 591.479 626.303 576.38 590.835 561.773ZM498.668 956.37C499.278 955.011 501.412 955.16 502.068 956.37C504.638 961.113 504.924 967.166 505.41 972.52L505.461 973.071C506.079 979.604 506.626 986.159 506.961 992.713C507.596 1005.15 507.9 1017.58 507.861 1030.03C507.821 1042.79 507.564 1055.54 506.876 1068.29L506.689 1071.7C506.061 1082.78 505.008 1095.13 499.745 1104.82C497.832 1108.34 492.629 1107.3 491.521 1103.74C487.891 1092.09 489.755 1078.27 490.686 1066.33L491.409 1057.01C492.125 1047.7 492.808 1038.38 493.349 1029.05C494.091 1016.29 494.703 1003.52 495.292 990.749C495.483 986.603 495.69 982.455 495.909 978.308L496.245 972.089C496.532 966.887 496.508 961.179 498.668 956.37ZM90.5203 972.89L92.1272 971.338C97.0602 966.51 103.294 959.075 110.587 959.536C113.495 959.72 115.348 962.134 114.745 964.995C113.457 971.111 107.218 974.285 102.727 978.019C97.8066 982.108 93.1696 986.479 88.5416 990.892C84.4358 994.805 80.4873 998.829 76.6334 1002.98L75.1926 1004.54C73.8112 1006.05 63.974 1014.95 65.0377 1017.25L65.0956 1017.36C65.3916 1017.8 64.8986 1018.41 64.4076 1018.25C60.1596 1016.91 60.4246 1013.27 62.0306 1009.58C65.1166 1002.49 70.5206 995.936 75.2396 989.883C79.9458 983.845 85.0397 978.222 90.5203 972.89V972.89ZM514.061 795.137C510.776 787.373 498.675 787.536 491.805 788C474.505 789.169 455.787 793.546 440.394 801.632C424.436 810.015 413.686 823.447 404.067 838.3L403.617 838.997C394.242 853.57 385.213 870.821 370.533 880.841C363.056 885.946 354.325 890.607 345.253 892.626C344.63 893.721 343.621 894.588 342.298 894.903L341.683 895.044C339.099 895.614 335.085 896.246 331.618 895.868C331.641 897.564 331.623 899.247 331.666 900.854C331.788 905.459 331.84 910.084 331.84 914.692C331.842 924.347 331.323 934.021 331.726 943.675C332.083 952.214 333.289 961.136 337.389 968.769C340.396 974.369 344.365 978.075 349.156 981.613C360.942 974.43 374.269 970.052 387.795 966.76C404.153 962.779 420.902 960.122 436.888 954.724C444.582 952.125 451.979 948.724 458.681 944.105C465.794 939.2 471.227 932.564 476.817 926.073L477.691 925.065C483.396 918.522 489.621 912.261 497.683 908.714C504.626 905.658 513.777 905.114 519.848 900.386C523.022 897.912 523.288 894.322 523.622 890.646C519.734 891.202 515.618 890.311 511.743 889.857L509.736 889.621C506.071 889.186 502.491 888.707 498.884 887.775C498.214 887.602 498.214 886.592 498.884 886.419C503.147 885.318 507.372 884.849 511.743 884.337L512.77 884.209C516.724 883.69 520.881 882.908 524.759 883.778C525.455 881.13 526.46 878.602 527.87 876.07C529.849 872.513 533.594 868.48 534.1 864.325C534.251 863.084 533.962 861.621 533.377 860.524L533.176 860.15C532.93 859.708 532.639 859.264 532.212 858.989C532.165 859.044 532.065 859.107 531.848 859.175C528.863 860.115 526.259 858.654 524.877 856.402C519.01 857.13 512.607 856.885 507.105 857.128L501.542 857.397C495.598 857.67 489.384 857.789 483.798 856.588C483.018 856.421 482.782 855.123 483.563 854.789C490.43 851.852 498.76 850.915 506.112 849.787C510.218 849.156 514.354 848.676 518.472 848.121C521.214 847.751 524.124 847.14 526.965 846.993C534.088 838.126 530.25 824.138 520.337 820.32C516.726 821.907 513.479 820.984 509.534 820.645C505.596 820.307 501.648 820.078 497.694 820.095C489.771 820.13 481.375 822.214 473.529 821.317C472.253 821.17 471.067 819.472 472.336 818.436C478.342 813.535 486.95 811.937 494.573 810.892L496.153 810.681C498.709 810.346 501.817 809.857 505.041 809.566C505.77 808.144 507.078 807.069 509.043 806.802C509.627 806.722 510.214 806.675 510.8 806.625L510.791 806.567V806.567C515.583 806.337 515.375 798.243 514.061 795.137ZM185.992 946.562C185.908 946.693 185.815 946.817 185.716 946.937L185.564 947.113L186.352 946.793L185.992 946.562V946.562ZM597.683 777.788C577.513 775.621 557.314 776.078 537.084 776.66C535.466 781.952 529.834 786.462 524.377 786.632C528.651 793.137 529.092 801.941 526.095 808.84C532.458 811.373 537.94 815.923 541.268 822.403C545.883 831.386 545.279 841.382 540.718 849.684C544.611 853.208 546.908 858.931 546.678 864.325C546.421 870.34 542.836 875.478 539.857 880.458C536.638 885.844 536.53 890.586 535.541 896.618C534.094 905.446 528.14 910.8 520.479 914.144L520.887 915.746C522.862 923.434 525.319 931.546 530.964 937.168C538.226 944.4 549.492 944.333 559.086 944.791L559.549 944.814C568.335 945.253 577.117 945.768 585.899 946.265L592.486 946.634C602.598 947.19 612.309 947.257 620.564 940.572C634.041 929.66 643.28 911.601 649.128 895.614C661.402 862.058 661.549 825.233 655.915 790.285C637.02 784.195 617.415 779.908 597.683 777.788ZM429.944 833.46L430.093 833.47C434.246 833.944 437.099 837.307 438.115 841.296C439.591 847.094 438.867 852.336 442.418 857.57C446.071 862.952 448.317 867.261 448.848 873.91C449.066 876.646 448.966 879.375 449.575 882.053L450.016 883.929C450.485 885.93 450.869 887.857 450.636 890.005C450.423 891.964 449.469 893.49 447.504 894.118C441.101 896.166 436.157 891.448 434.503 885.481C433.074 880.327 434.982 874.185 432.966 869.345C431.849 866.662 429.789 864.418 428.625 861.717C427.472 859.04 426.893 856.243 426.708 853.333C426.357 847.829 431.225 841.216 428.509 836.229C427.93 835.165 428.585 833.427 429.944 833.46ZM344.892 776.661C349.228 775.78 354.147 773.761 358.423 775.439C360.621 776.303 361.707 778.983 359.85 780.846C356.626 784.078 351.94 784.258 347.597 785.02L347.215 785.089C342.08 786.039 336.936 786.94 331.785 787.794C322.094 789.399 312.38 790.818 302.632 792.024C292.62 793.263 282.58 794.366 272.526 795.196L268.634 795.516C260.141 796.195 251.304 796.707 242.971 795.406C241.76 795.217 241.955 793.454 242.971 793.145C252.1 790.382 262.114 789.641 271.552 788.472C281.586 787.227 291.603 785.912 301.594 784.352C311.569 782.794 321.531 781.122 331.456 779.274C335.942 778.44 340.421 777.569 344.892 776.661ZM501.346 767.79C497.541 766.443 493.355 764.447 489.232 765.115C482.122 766.267 475.794 773.194 470.166 777.756L472.992 777.207C487.451 774.428 506.599 771.434 518.737 780.627C518.768 780.574 518.792 780.521 518.827 780.468C519.807 778.98 520.942 777.819 522.181 776.546C522.3 776.434 522.414 776.319 522.527 776.202L523.195 775.49L521.666 774.96C518.392 773.803 514.512 772.308 513.899 772.09L513.856 772.075C509.681 770.661 505.501 769.263 501.346 767.79ZM382.545 464.716C381.95 457.063 393.861 457.126 394.451 464.716C395.738 481.286 392.009 497.699 383.983 512.226C383.924 512.332 383.859 512.426 383.797 512.526C388.817 515.138 393.894 517.644 399.084 519.884C405.723 522.75 412.487 525.36 419.372 527.574C425.6 529.578 433.273 530.369 438.509 534.539C449.55 543.331 445.402 561.577 443.278 573.404L442.946 575.271C441.889 581.357 441.124 587.601 443.69 593.442C446.43 599.681 451.971 604.309 456.914 608.773L457.912 609.678C462.291 613.667 467.295 618.515 470.507 623.923C473.439 617.861 477.436 612.907 481.662 607.33C484.677 603.35 482.531 602.038 480.365 598.15C478.28 594.408 477.262 590.419 477.914 586.15C479.117 578.266 485.418 572.571 491.69 568.292C499.097 563.241 507.364 559.499 515.021 554.8C530.755 545.146 546.078 534.108 559.883 521.849C560.264 521.51 560.924 521.954 560.619 522.417C549.714 539.004 536.927 553.337 521.212 565.503C514.839 570.436 508.146 574.528 501.407 578.829L499.469 580.073C496.764 581.825 493.389 584.168 492.166 587.152C490.935 590.153 493.56 592.419 494.973 594.905C499.46 602.799 497.295 610.165 491.975 616.86L491.728 617.169C486.442 623.683 482.436 629.741 480.52 638.063C476.403 655.939 482.137 674.561 488.139 691.343L488.377 692.005C491.624 701.051 495.075 710.031 497.896 719.222L498.672 721.763C501.228 730.219 503.321 738.56 500.454 747.254C499.479 750.211 495.446 750.91 493.771 748.127C487.862 738.313 486.389 726.503 482.685 715.713C479.075 705.197 474.93 694.871 471.443 684.312C466.953 670.717 463.948 656.083 465.579 641.823C465.531 641.74 465.478 641.662 465.438 641.574L464.295 639.074C461.178 632.304 458.168 626.392 452.5 620.996C446.588 615.367 440.171 610.384 435.519 603.57C425.414 588.768 431.663 572.304 432.884 556.12L433.023 554.135C433.245 550.775 433.367 546.208 431.172 543.883C428.703 541.265 422.913 540.597 419.637 539.438C411.171 536.442 402.828 532.951 394.882 528.759C387.318 524.769 379.991 520.361 373.169 515.197L369.711 512.595C364.255 508.479 358.598 503.984 354.942 498.381C354.52 497.736 355.237 496.695 356.001 497.004C362.105 499.481 367.682 503.421 373.393 506.849C373.482 506.64 373.585 506.429 373.702 506.217C380.768 493.429 383.674 479.261 382.545 464.716ZM577.528 552.331C579.96 545.662 591.044 546.177 590.602 554.101C590.263 560.188 587.678 565.683 585.315 571.211L585.063 571.803C582.623 577.562 579.805 582.969 576.433 588.247C569.99 598.337 562.443 607.701 554.382 616.538C547.074 624.55 537.482 629.449 526.429 628.635C521.772 628.292 517.071 627.107 512.99 624.781C508.143 622.017 502.879 613.718 496.695 615.728C496.097 615.922 495.539 615.046 496.056 614.631C503.195 608.882 511.298 617.796 518.133 619.944C528.432 623.179 539.001 619.602 545.63 611.276C552.551 602.583 558.921 592.85 564.738 583.385C567.692 578.579 570.387 573.591 572.715 568.45C575.064 563.261 575.598 557.622 577.528 552.331ZM560.927 511.289C560.627 510.368 561.771 509.492 562.58 510.018C567.271 513.072 571.336 517.107 575.663 520.644C580.464 524.568 585.3 528.412 590.211 532.197C597.37 537.716 589.067 547.876 582.765 541.847C574.141 533.6 564.696 522.816 560.927 511.289ZM535.172 479.009C537.077 471.66 548.349 474.691 546.706 481.954L546.653 482.175C543.542 494.172 547.972 506.385 557.431 514.162L557.78 514.445C563.764 519.234 555.286 527.606 549.361 522.863C536.426 512.511 531.045 494.926 535.172 479.009Z" fill="black"/>
<path fill-rule="evenodd" clip-rule="evenodd" d="M634.574 252.065C630.862 222.444 619.202 190.995 606.939 163.38C579.365 104.994 516.238 96.9553 459.647 84.9173C403.803 76.7873 344.668 69.4463 289.666 85.6673C258.745 93.2423 246.668 130.068 251.548 159.129C254.333 177.238 262.576 194.377 269.605 211.16C283.576 245.626 292.44 282.525 292.455 319.841C291.496 344.227 288.054 372.061 316.078 382.39C342.745 395.651 344.998 431.599 378.389 451.995C391.891 479.344 428.67 481.751 455.141 488.095C471.872 491.297 488.792 493.654 505.758 495.176C554.884 501.471 594.184 487.236 619.9 443.474C637.109 416.841 649.924 386.089 646.758 353.811C643.605 319.821 638.352 286.009 634.574 252.065Z" fill="white"/>
<path fill-rule="evenodd" clip-rule="evenodd" d="M460.071 13.9589C462.875 10.7809 467.195 11.8709 469.817 14.3839C471.524 14.8869 473.178 15.6349 474.74 16.6249C478.27 16.1719 481.971 16.1719 485.433 16.2989C486.273 15.8279 487.173 15.4089 488.153 15.0489C495.153 12.4899 501.352 13.7899 506.465 17.2159C508.928 14.8859 512.035 13.4239 516.007 13.6449C519.552 13.8429 522.078 15.5109 524.243 17.7079C526.402 14.5949 529.892 12.3739 534.24 12.0649C540.317 11.6329 546.159 14.0699 551.001 17.8429C553.822 14.6069 557.668 12.7469 561.954 12.7289C564.774 12.2169 567.75 12.4189 570.439 13.2309C574.343 14.4099 577.771 16.6189 580.501 19.4859C584.82 15.3499 590.107 12.3739 596.203 12.8079C604.093 13.3779 610.633 19.1789 613.673 26.3189C619.013 28.4579 623.943 31.5089 628.063 35.8589C628.283 36.0879 628.493 36.3279 628.713 36.5689C630.933 37.3879 633.023 38.5489 634.863 40.0779C640.693 44.9289 641.993 51.9489 640.063 58.8279C640.333 59.9289 640.563 61.0489 640.773 62.1679C646.233 62.9979 651.193 66.1489 654.013 71.2789C657.873 78.3189 657.113 87.5979 652.933 94.3189C651.136 97.2099 648.855 99.6459 646.293 101.776C649.19 108.356 647.8 116.208 643.129 121.53C641.991 123.365 640.594 125.021 639.022 126.52C640.757 133.323 637.671 140.342 631.511 143.977L630.984 145.296C630.895 145.515 630.805 145.733 630.713 145.949C630.645 146.229 630.561 146.5 630.478 146.773C630.331 149.187 629.536 151.556 627.958 153.788C624.727 158.362 620.723 161.345 618.599 166.685L618.387 167.246C617.474 169.773 614.526 171.556 612.014 170.776C625.961 199.417 633.273 231.286 638.293 262.518C640.796 278.099 642.728 293.734 644.294 309.429L645.831 325.059C647.182 338.951 648.385 352.889 648.393 366.828C648.413 398.359 639.393 428.688 620.033 453.779C601.723 477.498 575.813 494.688 546.543 501.458C516.323 508.438 480.873 505.688 453.773 489.708C445.783 485.009 452.783 473.708 460.913 477.489C476.303 484.649 491.943 489.969 509.003 491.159C525.633 492.328 542.303 490.248 558.073 484.808C584.163 475.799 606.363 456.929 620.633 433.429C627.663 421.848 632.753 409.279 635.463 395.998C638.836 379.445 638.328 362.336 637.088 345.571L637.003 344.429C634.553 312.128 631.323 279.628 626.103 247.649C621.489 219.37 614.394 191.664 605.183 164.571C601.575 161.395 597.539 158.767 593.22 156.771C561.593 155.45 529.909 155.836 498.323 158.018C471.385 159.891 444.577 163.06 417.972 167.679L415.123 168.179C409.233 169.228 402.693 169.828 397.143 172.199C392.383 174.239 390.453 178.159 389.253 182.978C386.233 195.168 385.773 208.509 385.263 221.009C384.763 233.228 385.893 245.549 384.913 257.728C384.083 267.918 381.473 278.348 373.923 285.719C369.973 289.578 365.113 291.688 360.553 294.618C357.603 296.509 356.353 298.458 356.733 301.958C357.553 309.618 363.723 319.268 356.793 325.828C355.573 326.978 353.463 327.128 352.263 325.828C349.403 322.719 345.453 320.348 342.063 317.838C340.643 316.799 341.823 314.779 343.433 315.498C345.553 316.449 347.713 317.569 349.923 318.549C345.043 314.529 338.103 312.558 332.323 311.388C329.413 310.808 326.353 310.638 323.323 310.909C321.083 311.978 318.793 312.969 316.503 313.938C313.593 315.159 310.653 316.268 307.693 317.319C297.423 325.688 292.523 339.299 294.663 352.609C295.833 359.958 299.223 367.949 305.613 372.239C313.183 377.319 323.323 375.138 331.503 378.909C339.163 382.438 343.823 389.569 347.313 396.949L348.768 400.022C352.007 406.824 355.337 413.447 359.763 419.638C364.883 426.808 371.153 433.248 377.993 438.779C381.311 441.456 384.848 443.863 388.503 446.056L389.503 446.649C393.203 448.819 395.853 450.888 396.103 455.478C396.183 457.078 395.173 458.538 393.873 459.368C388.273 462.918 382.703 458.478 378.043 455.378C373.013 452.038 368.203 448.279 363.753 444.179C355.293 436.399 347.973 427.159 342.343 417.128C338.053 409.489 335.613 398.739 328.833 392.819C324.693 389.208 318.843 389.179 313.673 388.518C308.863 387.899 304.313 386.899 300.033 384.529C282.623 374.859 277.703 351.449 281.833 333.359C282.533 330.308 283.513 327.338 284.723 324.478C278.243 325.558 270.963 318.859 273.593 312.098C273.793 311.588 274.023 311.109 274.243 310.618C269.973 307.808 266.603 303.549 265.003 297.978C264.183 295.098 264.063 292.188 264.493 289.378C262.423 287.989 260.713 286.078 259.613 283.728C256.173 282.138 253.123 279.759 251.303 276.359C248.783 271.668 249.103 267.348 251.023 263.458C250.753 262.969 250.493 262.469 250.243 261.958C243.193 257.489 238.273 249.788 238.833 241.248C239.013 238.418 239.713 235.868 240.793 233.569C240.703 233.279 240.613 232.978 240.533 232.688C234.633 229.688 229.753 224.759 228.013 218.179C226.273 211.558 228.323 204.958 232.423 199.878C226.423 195.489 222.813 189.359 225.003 180.088C225.893 176.319 227.683 172.888 230.103 169.998C230.093 169.909 230.073 169.819 230.053 169.728L229.491 169.293C222.084 163.448 217.826 155.999 222.373 146.838C224.413 142.719 227.323 139.848 230.743 137.958L230.913 137.418V137.418C228.463 132.168 227.633 126.338 229.323 120.208C230.703 115.159 233.973 111.138 238.153 108.469C237.873 106.208 237.913 103.799 238.363 101.188C239.113 96.7789 241.303 92.9289 244.503 90.1989C244.623 89.6179 244.773 89.0489 244.943 88.4779C246.023 84.9889 248.043 81.1989 250.383 78.3879C252.313 76.0579 254.473 75.2079 257.113 75.1179C256.953 72.9689 257.063 70.7879 257.503 68.5779C258.853 61.7589 263.193 55.3479 269.623 52.4379C272.263 51.2479 275.043 50.8989 277.723 51.1879C280.003 46.3879 284.453 42.9089 289.923 42.1589C292.053 41.8589 294.033 41.8779 295.853 42.1489C296.883 41.6679 297.953 41.2389 299.073 40.8479C299.813 40.5879 300.563 40.3479 301.313 40.1089C303.843 36.9689 307.173 34.4579 311.063 32.9489C315.553 31.1989 320.123 31.3779 324.173 32.8479L325.463 32.5779V32.5779C327.483 29.0779 330.703 26.3679 335.653 25.1379C341.273 23.7479 347.043 25.6879 351.463 29.2189C351.483 29.2189 351.503 29.2189 351.533 29.2079C353.843 24.0379 357.793 20.4379 364.423 20.6879C368.553 20.8479 372.283 22.8989 375.163 25.8189C376.763 25.6179 378.363 25.4379 379.973 25.2589C381.673 23.2679 383.563 21.4089 385.653 19.7389C389.073 16.9979 393.523 17.2189 396.043 21.0779C396.593 21.9179 397.103 22.7679 397.613 23.6179L399.923 23.4579V23.4579C402.643 19.7879 406.353 17.3079 411.433 17.1089C416.093 16.9179 419.413 19.1989 421.943 22.3879C424.003 22.3379 426.073 22.2989 428.143 22.2679C430.553 19.4779 433.393 17.0179 436.633 14.9779C439.113 13.4179 442.773 13.9489 444.783 16.0289C446.141 17.4429 447.405 18.9189 448.58 20.4469C451.609 17.0509 455.7 14.8139 460.071 13.9589ZM312.893 331.508C317.563 328.848 323.843 331.728 328.363 333.988C333.873 336.738 339.343 340.888 342.713 346.088C347.303 353.168 336.513 358.888 331.683 352.538C328.713 348.628 326.343 344.688 322.743 341.268C319.453 338.128 314.683 336.028 312.793 331.888C312.723 331.748 312.743 331.588 312.893 331.508ZM316.173 159.658L316.261 159.408C317.589 155.775 311.793 154.209 310.476 157.812C308.48 163.273 310.781 169.21 316.175 171.568C317.67 172.222 319.378 171.995 320.279 170.492C321.036 169.227 320.685 167.035 319.203 166.388C316.168 165.061 315.151 162.718 316.173 159.658V159.658ZM266.242 149.499C269.143 146.939 264.886 142.708 261.999 145.257C259.305 147.635 257.307 150.865 257.826 154.58C258.355 158.366 261.21 161.039 264.335 162.928C267.647 164.931 270.666 159.745 267.363 157.747L266.992 157.52C265.605 156.659 263.982 155.475 263.748 153.781C263.499 151.981 265.022 150.576 266.242 149.499ZM282.709 104.327L282.915 104.176C286.031 101.952 283.038 96.7459 279.886 98.9949C276.996 101.058 274.678 103.738 274.434 107.434C274.197 111.026 276.025 114.14 278.415 116.667C281.074 119.478 285.312 115.23 282.658 112.425C280.072 109.691 279.566 106.708 282.709 104.327V104.327Z" fill="black"/>
<path fill-rule="evenodd" clip-rule="evenodd" d="M469.33 392.591C469.54 392.397 469.872 392.329 470.125 392.488C474.452 395.224 474.964 404.425 475.013 409.739C476.803 410.205 478.571 410.735 480.243 411.105C483.793 411.89 487.364 412.575 490.927 413.298L493.597 413.849C502.523 415.73 511.616 417.122 520.712 417.819C529.54 418.495 538.624 418.742 547.427 417.605C551.207 417.116 554.965 416.3 558.618 415.211C562.936 413.923 566.375 411.788 570.391 409.918C580.445 405.235 588.871 418.958 579.195 424.98C570.889 430.147 559.557 432.01 549.969 432.81C540.169 433.627 530.407 432.73 520.725 431.18C510.258 429.503 500.006 426.928 490.079 423.194C485.882 421.615 481.819 419.701 477.853 417.609L476.774 417.034C476.115 416.68 475.428 416.321 474.737 415.957C473.994 422.584 471.853 428.985 469.266 435.138L469.205 435.03C467.79 439.884 462.678 442.887 457.592 440.743C451.622 438.228 451.169 431.626 454.642 426.94L454.808 426.722C458.892 421.468 461.451 414.95 463.675 408.737C464.816 405.552 465.872 402.29 466.788 399.032C467.451 396.675 467.475 394.304 469.33 392.591ZM623.162 339.818C619.624 350.512 611.906 358.747 601.156 362.367C590.502 365.956 578.653 364.648 567.763 362.708C565.38 362.283 562.965 361.814 560.555 361.268C562.528 362.49 564.27 364.21 565.938 366.028C568.403 368.717 570.639 371.55 571.317 374.916C571.99 378.255 570.93 380.795 568.996 382.713C566.021 385.662 561.223 387.251 557.158 388.129C548.057 390.096 538.939 389.79 529.882 387.773C527.57 387.259 526.002 386.018 525.121 384.401C524.052 382.437 523.965 379.993 524.578 377.768C525.191 375.544 526.516 373.494 528.439 372.359C530.022 371.425 532.002 371.169 534.249 371.916C538.76 373.417 543.237 374.411 548.001 374.526C550.018 374.573 552.048 374.513 554.061 374.328C555.199 374.224 556.335 374.079 557.465 373.897C556.799 373.012 556.153 372.109 555.522 371.198C554.776 370.12 554.049 369.029 553.355 367.919C551.349 364.706 549.678 361.404 548.211 357.917C547.74 356.801 547.303 355.679 546.884 354.554C546.824 354.391 546.764 354.229 546.703 354.066C546.574 353.958 546.446 353.849 546.318 353.739C543.447 351.255 541.04 348.195 539.337 344.405C534.727 334.139 535.478 321.397 538.275 310.737C540.517 302.193 545.465 294.29 552.002 288.921C553.144 287.043 553.897 285.904 554.821 284.944C558.578 281.036 563.82 278.399 568.936 276.796C580.363 273.213 592.807 275.783 602.493 282.606C611.436 288.905 618.438 298.352 622.221 308.859C625.804 318.809 626.503 329.723 623.162 339.818ZM467.522 274.831C481.111 274.715 494.937 278.727 505.964 286.756C516.514 294.439 524.796 305.782 524.786 319.293C524.776 332.448 517.744 345.382 509.945 355.567C501.191 367.001 489.751 372.514 475.367 372.641C467.89 372.708 460.359 372.046 452.936 371.136L448.953 370.634C443.469 369.927 437.927 369.09 432.729 367.205C407.985 358.23 407.219 325.842 416.383 305.139C423.459 289.155 441.368 273.567 459.226 275.438C461.917 275.061 464.68 274.856 467.522 274.831ZM490.473 290.062C473.456 282.424 452.78 284.711 436.273 292.862C429.734 299.996 424.955 308.987 423.021 317.241C420.956 326.052 421.258 335.543 424.363 344.083C428.154 354.508 437.489 357.09 447.559 358.692L451.469 359.306L453.109 359.555C463.003 361.031 473.821 362.178 483.33 360.331C493.927 358.27 500.658 349.709 505.955 340.932L506.202 340.52C511.703 331.323 516.308 320.138 511.694 309.6C507.771 300.643 499.202 293.98 490.473 290.062ZM590.914 292.724C585.074 289.488 578.413 288.9 572.107 291.066C569.393 291.997 567.049 293.507 564.776 295.2L563.87 295.887C561.074 298.032 558.463 299.119 556.366 302.017L556.096 302.406C555.038 303.986 553.187 304.618 551.501 304.408C549.536 309.825 548.725 315.683 548.708 321.45L548.71 322.214L548.72 322.993C548.846 329.81 550.035 338.149 555.399 342.718C560.291 346.884 567.698 347.884 574.312 348.464L579.408 348.889L580.763 348.991C587.733 349.476 595.372 349.311 601.214 345.185C606.302 341.591 608.702 335.491 609.324 329.468C610.795 315.239 603.593 299.749 590.914 292.724ZM463.795 294.038C473.166 289.254 484.423 290.453 492.361 296.449C491.656 296.587 490.962 296.763 490.27 297.11C488.469 298.013 487.351 299.821 486.925 301.745C486.445 303.92 487.572 305.979 489.719 306.665C491.587 307.261 493.802 307.534 495.537 306.399C496.446 305.805 497.081 305.022 497.498 304.036L497.557 303.891L497.631 303.785L497.658 303.735C497.665 303.716 497.632 303.752 497.58 303.833C497.633 303.71 497.682 303.587 497.731 303.462C497.804 303.313 497.874 303.163 497.931 303.008C498.032 302.921 498.124 302.824 498.217 302.727C499.659 304.946 500.791 307.452 501.51 310.24C506.124 328.135 487.204 346.706 470.301 348.564C463.913 349.266 458.088 347.745 453.254 344.747C453.298 344.688 453.347 344.635 453.387 344.573C455.329 344.922 457.647 344.053 458.352 341.887C460.151 336.362 458.306 329.899 452.286 328.094C448.412 326.932 444.448 328.216 441.679 330.864C439.585 325.739 438.836 319.969 439.827 314.19C441.225 306.037 446.143 298.69 453.797 295.298C457.524 293.645 460.736 293.298 463.795 294.038ZM562.482 305.079L562.767 304.629C565.663 300.173 571.198 294.707 576.935 296.21C577.741 296.421 578.531 296.761 579.243 297.202C582.395 296.774 585.695 297.49 588.405 299.157L588.331 299.344C588.32 299.375 588.309 299.407 588.301 299.44C588.054 300.524 588.198 301.526 588.704 302.522C589.253 303.601 590.036 304.624 591.096 305.243C591.823 305.667 592.678 305.89 593.516 305.873C594.745 305.851 595.827 305.31 596.715 304.484C597.198 304.036 597.535 303.379 597.721 302.703C598.159 303.123 598.584 303.591 598.989 304.122C605.64 312.868 604.721 326.922 596.918 334.718C596.603 335.032 596.268 335.316 595.937 335.606C592.769 339.967 587.886 342.927 582.021 343.526C576.591 344.081 571.161 342.475 566.997 339.183C567.332 339.005 567.645 338.774 567.915 338.468C568.626 337.663 569.211 336.869 569.643 335.886C569.752 335.638 569.856 335.389 569.956 335.138L570.1 334.759C570.125 334.689 570.347 334.05 570.288 334.162L570.274 334.188L570.353 334.004C571.098 332.143 570.797 330.017 569.028 328.85L568.833 328.729C568.255 328.392 567.539 328.233 566.814 328.231C565.008 326.02 562.32 325.513 559.797 326.159L559.708 325.445C559.695 325.326 559.683 325.206 559.675 325.087C557.72 318.606 558.663 311.241 562.482 305.079ZM475.685 239.829L476.335 239.728C481.243 239.018 484.58 239.835 487.771 244.03C489.292 246.029 488.823 249.048 487.771 251.091C484.373 257.692 475.025 256.327 468.729 257.638C462.582 258.917 456.45 260.658 450.698 263.192C444.829 265.778 439.32 268.837 433.948 272.33C429.089 275.491 424.682 280.242 419.131 282.081C418.881 282.164 418.58 281.94 418.596 281.675C418.991 275.362 424.264 269.567 428.348 265.071C433.072 259.872 438.817 255.256 444.8 251.586C450.974 247.8 457.648 244.683 464.558 242.509C468.197 241.364 471.92 240.454 475.685 239.829ZM550.462 248.401C556.642 239.364 572.005 241.097 581.07 243.512C592.436 246.538 604.752 252.659 612.722 261.519C619.861 269.456 609.18 279.768 601.152 273.089L599.009 271.312L597.638 270.186C591.475 265.152 585.372 260.597 577.862 257.241C569.056 253.308 560.133 251.392 550.826 249.296C550.46 249.214 550.245 248.718 550.462 248.401Z" fill="black"/>
</svg>
