<svg width="1021" height="1184" viewBox="0 0 1021 1184" fill="none" xmlns="http://www.w3.org/2000/svg">
<path fill-rule="evenodd" clip-rule="evenodd" d="M996.235 659.882C981.956 661.284 967.677 662.684 953.397 664.086C885.009 669.311 816.648 680.223 748.784 686.772C747.094 684.022 743.787 684.475 741.779 686.386C735.007 685.793 727.417 680.617 721.283 686.001C721.084 685.973 720.885 685.94 720.683 685.921C709.761 664.958 702.212 642.599 694.884 620.21C690.208 606.445 683.915 593.12 672.288 583.878C652.443 570.103 606.976 542.17 583.674 543.344C583.288 539.172 581.343 534.872 578.15 532.094C585.188 520.095 557.046 512.266 555.061 513.657C556.333 473.569 537.476 438.755 495.897 430.772C458.646 423.01 405.663 421.706 385.629 460.635C383.427 460.387 360.916 460.27 358.738 460.514C355.351 456.225 318.162 496.867 333.404 511.016C197.132 571.298 119.647 564.105 81.9288 733.574C76.8297 749.494 76.4583 766.915 71.0738 782.48C51.9175 827.211 36.3798 874.842 32.5129 923.514C23.1735 925.907 22.0994 942.374 32.9173 944.756C37.0495 945.667 40.505 946.911 43.518 949.27C41.1627 989.156 50.8094 1080.27 56.8875 1079.99C69.281 1119.43 124.563 1130.56 163.7 1116.7C156.953 1129.4 163.7 1137.38 163.7 1144.16C304.527 1149.49 458.507 1146.42 599.295 1153.72C617.304 1153.47 636.246 1158.15 654.009 1155.46C664.842 1152.86 664.86 1135.82 653.872 1133.72L701.885 1123.29C700.812 1122.89 721.676 1109.01 737.445 1083.08C752.123 1054.07 742.133 1019.05 748.784 987.491C800.728 983.243 853.531 981.427 904.907 972.63C911.912 993.589 942.236 968.523 951.875 958.44C951.863 958.424 951.851 958.409 951.839 958.393C956.503 957.117 960.244 952.745 960.369 947.569C963.641 942.895 964.327 936.307 961.19 931.79C975.569 848.822 997.489 764.11 1005.41 680.362C1008.21 679.742 1010.85 678.514 1013.09 676.622L1012.91 676.441C1016.69 672.217 1017.43 664.926 1011.11 661.337C1006.02 658.439 1001.77 659.338 996.235 659.882Z" fill="white"/>
<path fill-rule="evenodd" clip-rule="evenodd" d="M388.225 451.594C392.468 440.931 406.811 445.076 405.212 456.278C404.255 462.988 400.58 470.075 397.279 475.956C394.591 480.743 391.525 485.415 387.368 489.003C394.768 495.907 402.449 502.559 410.325 508.875C418.919 515.766 427.956 522.118 437.297 527.956C445.488 533.076 454.049 537.612 461.77 543.454C468.949 548.885 475.489 555.417 478.817 563.944C482.363 573.024 480.822 582.402 478.211 591.476L477.911 592.502C475.244 601.492 470.627 612.329 477.029 620.799C480.288 625.111 485.026 628.165 489.117 631.612C492.753 634.676 496.166 638.008 499.296 641.587C506.121 649.389 511.672 658.168 515.175 667.95L515.489 668.838C518.491 677.498 520.685 688.106 516.628 696.608C515.464 699.045 511.71 698.253 511.058 695.88C509.584 690.504 509.661 684.874 508.425 679.422C507.139 673.752 504.999 668.37 502.204 663.278C496.797 653.427 489.473 645.013 480.82 637.899L478.23 635.792C471.479 630.253 465.278 624.376 463.907 615.208C462.441 605.399 466.371 596.055 468.898 586.771C470.659 580.301 471.234 574.099 469.331 568.252C467.006 572.047 463.834 575.649 461.325 578.862C456.328 585.263 451.284 591.625 446.253 597.999C441.095 604.535 436.064 611.174 431.273 617.985C429.13 621.032 427.01 624.097 424.897 627.165C423.308 629.471 421.092 631.775 419.36 634.127C419.781 635.385 419.749 636.835 418.986 637.865C409.801 650.275 396.734 624.381 393.326 617.839C386.386 604.516 381.221 590.362 374.258 577.042C367.043 563.234 358.827 549.794 349.67 537.188C344.131 529.563 337.923 522.401 332.856 514.534C320.919 525.358 305.211 532.614 290.783 539.194C274.931 546.422 258.462 552.328 242.209 558.598L237.408 560.463C209.403 571.392 180.714 583.4 157.436 602.813C130.083 625.626 113.901 657.422 101.854 690.348C87.9864 728.253 76.5134 767.181 65.8184 806.084C60.3454 825.989 55.1524 845.984 50.2704 866.043C45.9684 883.715 42.4024 901.563 37.4224 919.053C47.5224 918.696 59.0414 922.606 67.6644 923.735C106.963 928.879 145.733 937.079 182.836 951.276C187.419 953.03 188.745 957.607 187.747 961.317C190.39 960.571 193.031 959.815 195.674 959.073C192.779 954.636 194.161 946.704 194.388 941.786L194.402 941.448C194.636 934.895 195.347 928.335 195.808 921.794C196.686 909.325 197.829 896.947 199.349 884.55L199.736 881.45C201.458 867.962 202.731 854.395 204.61 840.93L204.832 839.389C203.931 835.944 202.882 832.541 201.781 829.153C198.847 820.128 194.706 811.633 191.077 802.892C190.649 801.863 192.115 801.272 192.8 801.889C198.946 807.418 203.828 814.432 207.75 821.768C207.818 821.422 207.878 821.075 207.949 820.729L208.397 818.526C209.501 813.154 210.843 807.502 214.138 803.145C214.489 802.682 215.183 802.585 215.515 803.145C218.669 808.482 219.022 815.241 219.507 821.314C220.056 828.184 220.125 835.141 220.028 842.03C219.839 855.493 218.89 868.994 218.134 882.435C217.393 895.643 215.936 908.683 214.059 921.762L213.702 924.215C212.785 930.44 212.034 936.742 210.823 942.925L210.481 944.608C209.834 947.674 209.436 951.997 208.148 955.588C241.286 946.345 274.475 937.313 307.727 928.44C331.76 922.026 355.818 915.708 379.866 909.35C381.135 907.063 382.715 904.927 384.687 903.018C391.184 896.726 399.794 893.919 407.691 898.762C408.333 899.157 408.387 900.163 407.691 900.544C406.178 901.371 404.662 902.219 403.173 903.103L417.613 899.192C428.406 896.267 439.328 892.612 450.375 890.573C470.722 880.532 492.606 873.264 514.04 866.081L516.566 865.226C527.541 861.485 538.893 857.296 550.231 855.222C558.532 853.704 568.276 855.536 571.614 864.04C575.84 866.825 579.816 870.098 583.653 873.317C586.427 875.643 589.086 878.116 591.79 880.524L592.289 880.961C594.499 882.879 596.251 884.164 596.793 887.217C597.073 888.794 596.071 890.926 594.126 890.717C588.175 890.08 583.336 883.182 579.3 879.063C576.182 875.879 573.039 872.587 570.193 869.088C568.534 869.991 566.26 869.829 565.204 867.829C559.728 857.46 544.727 864.645 536.427 867.104L524.537 870.623C518.593 872.385 512.651 874.156 506.718 875.958C490.414 880.909 474.19 886.45 457.738 890.997C459.21 892.615 459.007 895.493 456.211 896.588C443.333 901.641 429.205 904.254 415.826 907.721C407.379 909.912 398.937 912.116 390.498 914.333C389.051 916.677 388.01 919.329 387.572 922.416C385.962 933.766 389.068 946.862 392.093 957.84L392.549 959.478C395.036 968.305 398.695 979.124 406.31 984.698C408.169 986.057 410.536 987.003 412.922 987.217C427.829 979.544 442.735 971.872 457.65 964.214C460.413 962.795 462.966 964.716 463.586 967C468.845 966.137 474.092 964.777 478.871 963.155C486.901 960.428 493.171 955.227 500.699 951.63C515.265 944.672 530.14 953.219 543.182 959.717L546.188 961.194C552.036 964.031 564.203 969.482 567.009 961.722C569.723 954.214 561.142 946.19 555.6 942.811C548.994 938.782 541.302 936.626 533.836 934.83C529.573 933.804 525.258 932.967 520.917 932.356C515.993 931.663 510.907 931.767 506.166 930.17C503.81 929.378 503.448 925.636 506.166 925.018C513.464 923.357 522.175 925.169 529.791 927.02L533.771 928.001C541.444 929.884 549.191 932.247 556.18 936.003C561.262 938.735 566.626 942.885 570.13 947.965C573.173 945.138 576.961 945.234 580.906 946.282L583.047 946.877C586.583 947.857 589.449 948.532 592.889 947.853C593.349 945.35 593.815 942.846 594.314 940.342C599.217 915.728 604.594 891.208 610.527 866.819C620.761 824.751 632.603 783.145 645.953 741.965L647.293 737.849C650.372 728.43 652.85 718.168 657.814 709.515C662.509 701.333 670.031 696.62 678.968 694.124C689.11 691.292 699.767 689.81 710.113 687.897C712.421 687.471 714.735 687.066 717.045 686.647C715.093 683.122 713.636 679.121 712.324 676.051L712.093 675.519C709.274 669.09 706.741 662.546 704.295 655.966L702.465 651.02C698.049 639.109 693.49 627.394 687.28 616.254C680.744 604.53 672.073 594.945 661.264 587.012C639.226 570.836 612.663 562.585 591.288 545.298C590.412 544.59 591.535 543.379 592.424 543.827C606.857 551.079 622.438 556.01 637.45 561.914L640.412 563.082C652.277 567.786 664.327 572.906 674.597 580.522C686.047 589.014 695.065 599.56 701.843 612.101C708.523 624.463 712.796 638.3 717.509 651.504L718.77 655.022C720.671 660.298 722.634 665.558 724.884 670.692C726.67 674.768 730.003 679.421 731.518 684.077C735.663 683.358 739.807 682.637 743.956 681.944C833.823 666.94 924.694 658.124 1015.77 655.545C1019.33 655.444 1021.17 658.844 1020.65 661.952C1011.91 713.633 1004.14 765.491 995.619 817.211C991.899 839.784 988.105 862.34 984.222 884.885C982.255 896.307 979.981 907.685 978.118 919.124C976.614 928.362 975.522 937.672 972.94 946.696C970.624 954.787 967.07 962.589 961.233 968.762C954.941 975.416 946.159 978.637 937.319 980.159C914.878 984.021 891.86 985.598 869.237 988.171L748.79 1001.87C750.55 1017.87 750.682 1033.62 749.874 1049.81L749.414 1058.64C749.038 1065.75 748.588 1072.87 747.567 1079.9C746.287 1088.72 742.251 1096.19 736.306 1102.78C730.847 1108.84 724.215 1114 717.764 1118.95C711.068 1124.09 704.149 1129.04 696.276 1132.22L695.255 1132.63C688.348 1135.32 675.391 1139.5 665.95 1137.97C667.184 1144.16 669.572 1150.8 667.455 1156.92C666.473 1159.76 662.758 1161.18 660.482 1158.76C655.973 1153.97 655.621 1147.64 654.553 1141.39C653.442 1134.89 652.484 1128.36 651.633 1121.82C649.987 1109.17 648.706 1096.4 648.315 1083.64C647.913 1070.54 648.068 1057.42 648.774 1044.33C649.137 1037.61 649.587 1030.9 650.44 1024.22C650.804 1021.37 651.176 1018.52 651.601 1015.68C651.756 1014.64 651.928 1013.61 652.113 1012.58L641.303 1013.8C624.726 1015.65 608.141 1017.33 591.447 1017.58C589.47 1017.61 587.949 1016.71 586.955 1015.4C585.896 1017.13 584.052 1018.36 581.411 1018.35C558.098 1018.27 536.388 1010.64 515.184 1001.66C504.496 997.129 493.974 992.225 483.27 987.734C473.279 983.542 462.598 980.551 452.848 975.829L427.228 989.267C427.04 989.928 426.799 990.553 426.543 991.076C424.875 994.481 421.586 996.328 418.227 997.719C415.003 999.057 411.664 999.473 408.411 999.135C388.981 1009.32 369.546 1019.49 350.099 1029.64L330.646 1039.78C291.89 1059.96 253.287 1080.47 214.287 1100.17L211.416 1101.62C197.945 1108.37 183.481 1115.22 168.531 1120.33C168.265 1124.11 168.433 1127.79 168.75 1131.8L168.827 1132.67C169.272 1137.4 170.228 1143.33 166.431 1146.7C164.456 1148.45 160.928 1148.46 159.585 1145.82C157.148 1141.03 159.336 1133.47 160.108 1128.27C160.382 1126.42 160.716 1124.52 161.21 1122.67C144.072 1127.77 126.415 1130.25 108.975 1127.38C91.9954 1124.59 78.8444 1113.9 68.2424 1100.81C57.0534 1087.01 49.1024 1070.91 44.8364 1053.67C39.9814 1034.04 39.6644 1013.77 39.7784 993.663C39.8994 972.254 40.6914 950.739 43.2954 929.474C40.4424 928.803 37.2784 928.223 34.3954 928.423C32.9674 930.708 30.1974 931.67 27.6944 931.373C22.2514 937.376 36.0574 943.511 40.4694 945.047C42.0014 945.581 41.8374 948.069 40.0704 947.994L38.9573 947.941C32.14 947.578 25.0967 946.414 21.0884 940.079C17.8764 935.001 18.8414 928.985 22.6704 924.844C25.1994 900.932 31.2454 877.647 36.8724 854.321C42.3944 831.426 48.5354 808.678 55.0444 786.045L57.9624 775.915C68.2107 740.426 78.9227 704.651 93.0594 670.573C100.118 653.557 108.25 636.854 119.273 622.017C129.548 608.186 141.679 596.351 155.623 586.243C181.618 567.397 212.121 556.01 242.091 545.161L243.432 544.676C258.963 539.058 274.456 533.373 289.81 527.286C303.389 521.903 316.398 515.078 329.913 509.614C329.474 508.817 329.05 508.011 328.642 507.196L328.393 507.406C328.35 507.44 328.306 507.473 328.26 507.504C326.901 508.446 324.9 507.983 323.78 506.926C320.618 503.942 321.689 500.629 323.799 497.535L324.074 497.141C326.656 493.524 328.959 489.7 331.342 485.952L332.835 483.608C336.835 477.346 341.038 471.043 346.371 465.868C348.841 463.47 351.545 461.676 354.41 460.339C354.165 459.821 356.313 458.762 356.922 459.295C365.999 455.973 376.442 456.669 386.338 457.585M742.962 1002.54L730.342 1003.97C716.458 1005.55 702.569 1007.08 688.678 1008.59L658.505 1011.87C658.428 1013.59 658.219 1015.27 658.181 1016.57C657.984 1023.27 657.837 1029.97 657.698 1036.67C657.419 1050.09 657.725 1063.54 658.609 1076.94C659.466 1089.92 660.595 1102.91 662.348 1115.81L662.707 1118.39L662.915 1119.74C664.346 1119.88 665.752 1120.56 666.921 1121.96C669.473 1125.01 678.714 1122.04 682.323 1120.76C688.258 1118.65 693.847 1115.08 699.004 1111.5C704.041 1108.01 708.575 1103.94 712.933 1099.64L716.499 1096.12C720.046 1092.59 723.596 1088.84 725.769 1084.4C728.716 1078.39 729.097 1071.01 729.961 1064.46C731.025 1056.41 732.292 1048.36 733.631 1040.34M376.607 917.994L375.298 918.338C327.747 930.973 280.267 943.981 232.57 956.058C208.966 962.036 185.25 967.579 161.617 973.442L157.791 974.399C139.147 979.111 120.279 984.782 106.002 998.305C105.475 998.803 104.71 998.038 105.206 997.509C120.593 981.129 142.477 974.195 163.489 968.184C167.373 967.073 171.262 965.988 175.147 964.883C146.571 954.696 117.544 945.833 87.8474 939.512C80.2004 937.884 72.4644 936.689 64.8234 935.055C59.4945 933.915 54.2903 932.266 49.0177 930.899L44.8704 929.856L44.8153 942.963C44.7463 961.528 44.7792 980.078 45.7264 998.641L45.9057 1002.08C47.0107 1022.74 48.7356 1043.82 56.0664 1063.3C62.0234 1079.13 71.5184 1094.04 83.9354 1105.57C90.2184 1111.4 96.9734 1115.94 105.323 1118.18C113.076 1120.27 121.199 1120.51 129.169 1119.95C167.398 1117.29 201.428 1096.52 234.636 1079.33C288.953 1051.2 343.276 1023.09 397.648 995.08C396.178 994.075 394.794 992.917 393.535 991.616C386.244 984.086 382.398 973.778 379.872 963.795C377.183 953.169 375.575 941.78 375.388 930.81M445.79 1005.94C446.27 1005.68 446.826 1006 446.848 1006.54C447.016 1010.7 444.722 1014.79 443.007 1018.53L442.825 1018.93C440.742 1023.57 438.461 1028.14 436.102 1032.64C431.387 1041.63 426.487 1050.52 421.373 1059.29C411.089 1076.93 399.661 1093.83 386.153 1109.19C383.102 1112.66 378.084 1108.21 380.042 1104.48C389.482 1086.47 400.487 1069.46 411.815 1052.6C417.486 1044.16 423.153 1035.72 428.88 1027.31C431.27 1023.81 433.689 1020.32 436.174 1016.88L437.673 1014.82M1009.75 665.86C962.028 667.301 914.367 670.413 866.877 675.29C822.711 679.825 778.707 685.862 734.951 693.388C725.812 694.959 716.684 696.596 707.568 698.297L702.099 699.325C692.981 701.053 681.842 701.766 673.724 706.637C665.165 711.772 662.852 722.504 660.004 731.354C656.656 741.762 653.393 752.2 650.218 762.663C637.61 804.206 626.093 846.109 615.819 888.289C610.719 909.226 606.194 930.28 601.426 951.293C597.19 969.963 592.516 988.422 587.633 1006.9C588.235 1006.44 588.973 1006.08 589.864 1005.89C614.112 1000.73 638.864 998.489 663.474 995.64L665.855 995.362C691.314 992.368 716.773 989.396 742.247 986.532L910.906 967.565C920.853 966.447 931.509 966.295 941.189 963.626C957.647 959.086 961.505 940.686 964.266 926.033L964.349 925.59C972.674 881.317 979.301 836.659 987.065 792.274M591.558 955.439C585.01 955.007 576.048 949.01 571.08 949.44C573.688 953.816 574.865 958.807 573.362 964.137C569.179 978.969 550.262 971.295 541.15 966.764C533.679 963.047 526.465 958.499 518.194 956.758C508.824 954.788 502.476 958.514 494.56 962.809C488.058 966.336 480.977 968.869 473.695 970.18C469.823 970.878 466.145 970.952 462.474 970.68C462.253 970.86 462.004 971.027 461.72 971.176L459.778 972.195C468.559 972.597 477.503 975.307 485.675 977.788C494.143 980.357 502.457 983.456 510.725 986.624L518.86 989.75C538.925 997.434 559.696 1004.73 581.411 1004.67C582.972 1004.66 584.251 1005.09 585.258 1005.8M554.923 908.965C561.392 908.174 567.363 909.022 572.532 913.233C578.766 918.311 582.954 926.733 591.916 927.286C594.529 927.447 595.136 931.121 592.539 931.889C585.868 933.864 580.467 930.255 575.922 925.569L572.866 922.376C568.374 917.725 564.232 914.13 556.611 914.408C548.449 914.706 540.273 916.592 532.164 917.551C522.978 918.637 513.794 919.563 504.579 920.362C504.151 920.399 504.078 919.725 504.479 919.626L514.8 917.057M548.678 882.519L549.745 882.412C559.139 881.5 567.73 881.464 576.119 886.518L577.728 887.491C585.292 892.088 593.525 897.504 598.255 904.948C599.029 906.167 597.75 907.6 596.455 907.29C587.364 905.108 580.718 898.438 573.073 893.446C564.493 887.844 555.63 888.768 545.847 889.638C536.375 890.481 526.908 891.639 517.529 893.218C508.716 894.7 499.875 897.04 490.973 897.786L490.975 897.768C489.958 897.766 489.378 896.239 490.415 895.721C499.449 891.21 509.912 889.075 519.739 887.014M227.016 627.085C227.004 626.342 228.049 626.064 228.414 626.707C234.526 637.46 237.721 650.641 240.977 662.488C244.387 674.898 247.14 687.434 249.613 700.062C254.622 725.633 257.291 751.057 257.472 777.119C257.497 780.84 251.435 781.83 250.842 778.017C246.905 752.666 243.133 727.289 239.166 701.945C237.17 689.198 234.847 676.5 232.624 663.791M287.524 645.815C287.074 644.332 289.232 643.836 289.784 645.192C302.05 675.301 306.204 709.423 298.329 741.188C297.124 746.047 290.007 743.942 290.916 739.144M445.741 619.061C445.679 617.951 447.12 617.776 447.663 618.54C453.475 626.729 455.886 637.696 466.083 641.928C471.174 644.041 476.903 643.673 481.401 647.242C484.408 649.629 486.714 653.397 484.457 657.012C483.729 658.18 481.691 658.765 480.703 657.496C479.261 655.647 478.498 653.433 476.539 652.047C473.776 650.092 470.05 649.971 466.882 649.052C462.784 647.864 459.172 645.785 456.214 642.696M542.84 482.477C543.439 482.172 544.014 482.367 544.397 482.885C544.944 483.623 544.877 484.341 544.207 484.847C545.102 486.676 546.159 491.258 546.31 491.925C546.922 494.629 547.573 497.317 548.254 500.003C549.628 505.42 550.832 510.879 552.207 516.298C553.665 522.042 555.402 527.725 557.335 533.326C557.459 533.689 557.596 534.059 557.74 534.435L557.961 535.002L558.015 534.916C558.408 534.295 559.226 534.729 559.129 535.385C559.039 535.983 558.918 536.578 558.816 537.176L559.018 537.712C560.283 541.115 561.149 544.699 558.829 547.702C557.961 548.825 557.006 549.49 555.816 549.688C553.908 555.978 551.514 562.151 548.951 568.079L548.199 569.81C544.429 578.461 540.408 586.997 534.406 594.361C527.852 602.401 518.837 607.891 513.128 616.701C510.472 620.799 508.624 625.108 507.124 629.736L506.559 631.493C505.495 634.766 504.266 637.939 501.196 639.859C500.216 640.471 498.748 640.276 497.958 639.441C491.661 632.78 498.253 620.342 502.05 613.893C507.328 604.925 514.967 599.188 522.616 592.422C530.861 585.129 536.12 575.373 541.207 565.762C544.323 559.874 547.331 553.859 550.498 547.945C547.189 545.021 546.13 539.212 545.009 535.174L544.907 534.812C543.054 528.346 541.582 521.712 540.652 515.049C539.757 508.643 539.383 502.328 539.62 495.886L539.688 494.245M555.142 512.969C554.411 511.967 555.621 510.832 556.624 511.041C562.722 512.302 568.684 515.993 574.157 518.978L574.742 519.295C579.111 521.651 583.507 524.537 585.801 529.114C588.296 534.089 588.09 539.818 587.75 545.224L587.718 545.73C587.301 552.213 587.234 558.949 585.862 565.315C585.16 568.573 582.209 569.491 579.686 568.721C576.684 578.2 568.251 585.184 562.091 592.664C554.237 602.2 555.715 615.075 556.536 626.56C556.868 631.21 551.084 632.532 548.105 630.051L541.24 624.349C540.096 623.397 538.955 622.443 537.816 621.486C536.841 620.665 535.874 619.838 534.916 619.001L533.484 617.737C532.849 617.169 530.048 614.04 529.229 613.91C527.245 613.595 522.532 618.823 520.919 620.462L520.715 620.667C517.679 623.644 514.936 626.847 512.381 630.244C511.911 630.868 510.992 630.35 511.328 629.629C513.617 624.725 516.279 620.036 519.44 615.648L520.079 614.774C522.182 611.94 525.005 606.936 528.717 606.099C533.25 605.078 537.775 609.623 541.073 612.146L541.282 612.304C542.851 613.481 544.402 614.679 545.95 615.885C545.788 607.334 546.868 598.694 551.283 591.325C554.396 586.128 559.06 582.279 563.051 577.813C567.494 572.84 569.814 566.728 573.836 561.549C574.354 560.883 575.068 560.524 575.841 560.41C575.996 556.246 576.609 552.041 577.083 547.923L577.22 546.69C577.699 542.215 578.831 536.749 576.64 532.558C574.57 528.599 569.822 525.805 566.305 523.119L563.434 520.892M357.227 465.651C355.391 466.713 353.675 468.034 352.118 469.685C347.217 474.884 343.713 481.354 340.303 487.578C338.467 490.93 336.697 494.319 334.846 497.663C334.041 499.118 333.213 500.557 332.376 501.994C331.989 502.656 330.839 503.972 330.269 504.783C330.903 505.67 331.558 506.544 332.226 507.408C332.48 507.738 350.061 526.889 356.189 534.385C365.573 545.866 373.961 557.993 381.132 570.973C388.154 583.684 393.5 597.142 400.005 610.099C403.261 616.586 406.897 623.027 411.532 628.641C411.711 628.86 411.9 629.067 412.083 629.283C413.852 624.504 418.385 619.387 420.611 616.449L420.819 616.172C425.868 609.366 431.2 602.765 436.648 596.276C441.624 590.35 446.727 584.553 451.953 578.851L453.918 576.718C457.559 572.785 462.184 566.9 467.514 564.09C466.943 563.072 466.282 562.065 465.522 561.071C460.528 554.545 453.469 549.809 446.503 545.536L441.986 542.788C424.958 532.411 408.195 521.553 393.412 508.071C385.591 500.937 377.878 493.464 371.304 485.143L368.979 482.201M385.639 460.514C377.665 461.183 369.054 461.024 361.685 463.622C368.236 469.815 374.463 476.502 380.86 482.799C381.429 478.54 382.593 474.333 383.579 470.18" fill="black"/>
<path fill-rule="evenodd" clip-rule="evenodd" d="M674.559 144.256C674.223 132.298 656.83 127.333 651.805 139.176C651.493 139.493 651.154 139.798 650.836 140.071C652.409 138.722 649.12 140.954 648.585 141.23C648.127 141.466 647.659 141.679 647.192 141.899C643.96 111.605 632.988 78.9466 604.636 63.7406C565.092 44.5646 519.399 40.8216 476.016 42.7266C454.039 44.0306 428.661 47.5446 409.136 36.4266C403.052 32.9626 398.175 27.5096 391.3 25.3686C369.597 19.4976 359.753 41.7836 362.709 60.1106C353.452 60.1836 344.269 65.3086 340.274 73.7466C337.928 78.7406 337.969 84.1296 335.946 89.1416C329.739 101.852 320.858 110.988 325.879 126.398C317.048 136.447 322.083 151.66 329.209 161.281C332.728 166.285 336.919 171.089 339.497 176.69C341.999 182.053 338.222 188.413 336.12 193.497C320.58 230.346 321.468 270.927 329.83 309.363C313.05 316.644 308.014 339.404 318.956 353.735C322.721 358.801 327.314 360.681 332.523 363.798C339.115 367.426 333.731 381.958 335.842 388.976C338.71 406.109 354.31 416.66 369.735 405.534C379.523 404.053 387.418 432.532 394.526 439.68C398.905 445.44 403.767 450.612 409.053 455.385C424.803 495.91 505.509 516.46 545.411 514.114C587.196 509.739 615.385 474.253 638.857 442.759C650.91 425.978 658.749 407.196 661.6 386.711C664.464 366.123 663.211 345.498 661.275 324.885C657.208 281.089 650.792 217.993 646.649 173.724C661.621 172.491 675.013 159.744 674.559 144.256Z" fill="white"/>
<path fill-rule="evenodd" clip-rule="evenodd" d="M348.171 117.924C348.157 117.986 348.178 118.033 348.192 118.099C348.195 118.08 348.198 118.07 348.203 118.047C348.191 117.997 348.182 117.964 348.171 117.924Z" fill="#4F66AF"/>
<path fill-rule="evenodd" clip-rule="evenodd" d="M348.167 118.561C348.112 118.503 348.034 118.46 347.956 118.402C347.954 118.404 347.953 118.406 347.952 118.408C348.025 118.456 348.095 118.511 348.167 118.561Z" fill="#4F66AF"/>
<path fill-rule="evenodd" clip-rule="evenodd" d="M672.178 149.915C677.096 145.829 684.843 149.591 683.177 156.318C681.364 163.644 673.512 168.65 667.03 171.66C660.358 174.757 653.859 175.354 646.58 175.016L646.49 174.996C648.511 183.099 649.657 191.522 651.203 199.674C653.165 210.016 655.095 220.363 656.996 230.715C658.835 240.721 661.16 250.74 662.573 260.796C663.998 270.947 665.366 281.105 666.766 291.259C669.102 308.218 670.988 325.254 672.976 342.262L673.924 350.313C675.915 367.352 677.519 384.413 673.745 401.37C670.208 417.262 662.24 432.086 652.998 445.352C643.947 458.342 633.836 470.832 622.737 482.131C601.328 503.922 574.928 521.375 543.972 524.612C530.643 526.006 516.407 524.455 503.876 519.61L503.044 519.285C490.359 514.276 474.825 505.701 471.524 491.63C469.497 482.998 478.392 476.259 486.191 480.355C489.804 482.253 492.521 484.422 495.487 487.141L496.014 487.627C498.438 489.878 499.371 490.57 502.168 492.331C507.905 495.94 512.205 497.648 518.721 499.288C530.735 502.31 543.701 501.832 555.897 498.258C581.791 490.67 601.879 470.87 619.088 451.017C628.432 440.236 637.301 428.927 644.141 416.362C651.318 403.179 654.631 389.338 654.432 374.338C654.207 357.413 651.868 340.422 650.333 323.577C648.769 306.404 647.323 289.237 646.049 272.04C644.855 255.913 644.74 239.713 644.323 223.536L644.241 220.503C643.996 211.915 643.826 203.324 643.631 194.734C643.438 186.169 642.76 177.495 643.642 168.966C643.705 168.345 644.542 168.188 644.746 168.816C645.266 170.414 645.721 172.037 646.151 173.669C646.217 173.619 646.291 173.574 646.381 173.543C652.085 171.583 657.338 167.67 661.618 163.45C665.702 159.423 667.835 153.524 672.178 149.915ZM360.101 29.9171C363.684 15.2011 379.808 11.9141 391.731 19.0011C397.466 22.4091 402.058 27.3241 407.415 31.2301C412.741 35.1141 418.627 38.2331 424.838 40.4361C437.177 44.8121 450.193 46.4031 463.234 46.4601C494.974 46.5991 526.065 37.6791 557.852 38.6741C582.448 39.4441 608.554 46.7131 626.395 64.4931C636.006 74.0711 642.199 86.3851 645.521 99.4581C647.073 105.568 648.231 111.826 649.144 118.07L649.367 119.63C649.878 123.279 650.698 127.142 650.774 130.83C650.843 134.142 650.005 137.608 649.551 140.886C648.594 147.796 637.891 147.009 636.353 140.886C632.851 126.945 634.317 112.557 630.037 98.6641C626.242 86.3441 618.887 75.5721 608.23 68.2051C563.271 37.1251 505.616 63.1521 456.08 60.7341C443.973 60.1431 431.688 58.2721 420.268 54.1031C414.379 51.9531 408.581 49.3311 403.242 46.0331C398.35 43.0134 394.112 39.2194 389.584 35.728L387.586 34.2097C384.481 31.8741 379.197 28.2226 376.065 31.3121C374.702 32.6569 374.619 35.6976 374.644 38.0196L374.66 39.0691C374.802 48.9271 376.811 58.7671 373.122 68.2911C371.439 72.6352 366.762 75.3741 362.314 72.914L362.084 72.7821C352.675 67.1846 340.313 78.4321 347.541 87.7406L347.766 88.0221C351.832 92.9642 349.664 101.667 342.386 101.646L342.124 101.641C329.156 101.236 323.402 117.443 334.58 124.524L334.924 124.736C343.999 130.167 336.039 143.224 326.738 138.741C327.526 139.121 326.156 139.116 325.372 140.168C324.619 141.178 324.563 142.052 324.742 143.328C325.285 147.194 328.685 150.452 331.439 152.898C337.695 158.455 345.45 162.292 353.441 164.628C385.451 173.986 418.291 162.539 449.479 155.626C481.994 148.419 518.718 145.516 547.074 165.967C547.411 166.209 547.116 166.75 546.743 166.534C526.393 154.716 501.469 155.765 479.224 160.61C450.054 166.964 421.139 178.791 391.264 181.907C399.651 196.713 403.161 214.2 400.921 231.135C399.378 242.793 394.739 252.905 389.259 263.152L388.213 265.105C383.328 274.303 379.543 282.992 379.483 293.648C379.424 304.235 363.685 306.467 361.017 296.148C354.96 272.713 377.026 254.254 386.029 234.929C393.724 218.409 393.961 199.148 387.734 182.233C380.708 182.798 373.627 182.857 366.475 182.219C360.332 181.67 354.012 180.563 347.852 178.811L345.387 189.171C342.123 202.97 339.098 216.76 338.181 231.093C337.506 241.625 337.542 252.209 338.569 262.715C339.457 271.789 341.331 280.54 343.238 289.399C344.874 291.557 345.71 294.86 345.25 297.491C355.87 300.549 364.223 308.929 367.275 320.028C367.461 320.704 366.515 321.084 366.161 320.498C358.92 308.484 340.274 304.063 328.479 312C317.215 319.578 312.772 334.878 319.148 346.99C322.502 353.358 327.474 357.834 333.886 360.916L335.175 361.521C338.535 363.111 341.619 364.844 343.78 368.037C346.583 372.179 346.677 376.557 346.412 381.291L346.298 383.209C346.121 386.381 346.081 389.647 347.026 392.699L347.24 393.377C347.49 394.139 347.752 394.81 348.207 395.537C348.343 395.753 349.619 397.005 350.035 397.458L350.559 397.616L351.145 397.64C351.795 397.65 352.649 397.368 352.369 397.564L352.445 397.52C352.692 397.366 352.919 397.204 353.11 397.06L353.473 396.776C354.322 395.549 355.386 394.535 356.691 393.762L357.938 393.207C361.177 389.787 366.727 391.584 369.049 394.991C370.72 397.441 371.619 399.932 371.693 402.389C371.954 401.97 372.534 401.741 372.903 402.21L375.104 405.016C383.528 415.778 391.806 426.608 401.378 436.419C406.651 441.825 412.323 446.905 418.252 451.584C423.314 455.579 432.916 459.423 433.063 466.7C433.109 469.062 431.432 470.735 429.38 471.537C422.701 474.146 414.448 465.272 409.625 460.954L409.231 460.605C403.327 455.434 397.939 449.758 392.967 443.688C383.31 431.897 375.235 418.326 371.676 403.397C371.509 406.002 370.391 408.555 368.215 410.964C365.318 414.17 361.353 416.418 357.118 417.344C347.523 419.441 338.155 415.988 332.446 407.993C327.62 401.234 326.2 392.309 326.822 384.143L326.899 383.163C326.986 381.854 327.098 379.451 327.437 378.428L324.416 376.769C320.712 374.798 317.279 372.214 314.198 369.374C301.815 357.958 295.602 339.405 301.263 323.17C304.804 313.014 312.245 304.177 321.773 299.584C320.18 295.904 319.648 291.533 319.047 287.666L318.946 287.026C317.927 280.682 317.074 274.258 316.749 267.838C316.141 255.848 316.88 243.746 318.764 231.895C321.824 212.646 328.159 192.232 339.771 176.084C330.912 172.566 322.758 167.473 316.464 160.401C309.887 153.011 305.694 142.431 310.78 133.046C312.076 130.654 313.765 128.643 315.706 127.046C312.34 120.69 311.251 113.178 313.328 105.998C315.81 97.4141 322.549 90.7191 330.69 87.5931C328.713 79.4601 330.329 70.7121 336.37 63.9341C342.362 57.2101 351.667 54.7611 360.279 56.2981C360.746 47.6481 358.023 38.4481 360.101 29.9171ZM335.946 333.617C343.842 329.753 353.2 330.367 361.087 334.029L361.621 334.283C370.232 338.458 381.637 348.214 378.9 358.59C377.298 364.658 370.556 366.73 365.328 364.111C360.961 361.922 359.965 358.009 357.774 354.078C356.225 351.298 354.31 349.125 352.061 346.89C347.32 342.181 341.995 338.683 335.946 335.884C335.074 335.48 335.104 334.03 335.946 333.617ZM534.9 123.888C534.16 123.55 534.697 122.391 535.442 122.603C555.283 128.269 573.782 140.987 584.836 158.64C585.51 159.717 585.613 161.49 584.836 162.556L584.478 163.039C583.971 163.701 583.471 164.19 582.518 164.338C580.726 164.616 579.169 164.149 578.137 162.556C567.247 145.73 553.295 132.302 534.9 123.888ZM667.726 127.219C669.407 124.372 673.864 124.945 674.751 128.137L674.879 128.415C675.358 129.503 675.14 129.726 674.247 129.11C676.459 130.932 677.46 133.646 676.784 136.564C673.132 152.324 655.281 163.578 639.719 162.029C638.361 161.894 638.176 160.225 639.407 159.727C645.394 157.303 650.708 153.366 654.981 148.535C659.134 143.839 660.881 138.466 663.115 132.795C663.953 130.666 665.257 129.133 667.094 128.296C667.337 127.96 667.549 127.602 667.726 127.219ZM579.228 117.091L579.336 117.098C587.332 118.131 594.249 122.077 599.864 127.859C605.272 133.427 612.097 142.615 611.512 150.786C611.125 156.203 603.423 159.3 600.549 153.756C598.834 150.448 598.445 146.822 597.244 143.324C596.142 140.118 594.62 137.074 592.798 134.219C589.047 128.337 583.889 123.354 578.607 118.858C577.989 118.332 578.42 117.094 579.228 117.091ZM374.143 114.691C372.37 113.003 374.214 110.125 376.469 110.695C388.362 113.706 400.14 117.368 412.505 117.732C418.681 117.913 424.822 117.426 430.94 116.627L434.038 116.216C438.809 115.593 443.662 115.104 448.377 116.084C451.521 116.737 452.135 120.787 450.176 122.9C440.925 132.879 423.081 131.925 410.812 130.243C397.489 128.415 384.046 124.125 374.143 114.691ZM588.908 83.5867C588.094 82.4577 589.464 80.6757 590.76 81.1767C602.579 85.7447 614.966 97.6377 618.222 110.081C619.082 113.368 614.937 115.85 612.503 113.41C607.967 108.863 604.765 103.492 600.931 98.3807C597.11 93.2857 592.639 88.7607 588.908 83.5867ZM395.256 89.1437C394.308 88.1967 395.262 86.3107 396.624 86.7927C404.319 89.5177 412.072 91.8757 420.156 93.1127C428.436 94.3787 436.794 93.4167 445.117 93.9297C448.484 94.1367 450.777 99.3747 447.034 101.005C430.402 108.246 407.812 101.68 395.256 89.1437ZM416.502 72.9021C415.18 71.9241 415.932 69.2401 417.731 69.9891C425.059 73.0401 432.47 73.7901 440.334 73.4761C443.239 73.3591 443.85 77.9241 441.019 78.5401C432.326 80.4311 423.606 78.1541 416.502 72.9021Z" fill="black"/>
<path fill-rule="evenodd" clip-rule="evenodd" d="M570.196 435.569C562.829 437.703 554.922 437.894 547.413 435.69C540.602 433.691 533.609 429.293 528.596 423.472C524.143 418.302 521.259 412.018 521.373 405.311C521.385 404.545 521.659 403.906 522.081 403.41C522.534 402.875 523.168 402.508 523.846 402.349C524.544 402.185 525.282 402.243 525.911 402.529C526.479 402.787 526.967 403.226 527.271 403.867C528.042 404.879 528.809 405.876 529.579 406.846C535.773 414.494 541.772 420.21 551.086 422.26C556.139 423.372 561.186 422.879 565.817 421.182C570.774 419.365 575.255 416.17 578.767 412.082C580.354 410.234 582.227 409.48 584.059 409.467C586.135 409.453 588.187 410.418 589.733 411.96C591.253 413.475 592.27 415.535 592.362 417.689C592.443 419.58 591.827 421.555 590.186 423.317C584.78 429.122 577.775 433.374 570.196 435.569ZM569.968 339.777C577.519 344.367 589.025 355.071 580.902 366.45C571.34 376.483 557.572 364.979 550.788 359.776C544.497 355.744 537.429 366.115 543.266 370.823C592.29 407.118 612.184 340.978 573.787 334.381C569.56 333.654 567.99 338.357 569.968 339.777ZM499.329 319.58C496.902 318.028 494.047 317.495 490.882 318.935C488.41 320.059 484.073 323.808 481.055 328.736C478.99 332.107 477.526 336.062 477.831 340.181C477.902 341.138 477.548 341.843 476.99 342.365C476.55 342.777 475.914 343.08 475.167 343.174C474.532 343.255 473.822 343.182 473.245 343.002C472.147 342.659 471.566 341.947 471.347 341.365C469.234 335.753 470.144 329.49 472.512 323.84C475.709 316.215 481.513 309.828 485.316 307.769C491.824 304.244 499.501 304.082 506.018 307.673C511.565 310.729 515.034 315.664 518.484 320.694C519.217 321.763 519.945 322.824 520.697 323.867C522.205 325.957 522.355 328.029 521.771 329.806C521.124 331.774 519.475 333.436 517.413 334.305C515.507 335.109 513.295 335.222 511.337 334.396C509.683 333.699 508.165 332.339 507.205 330.032C505.588 326.147 502.893 321.86 499.329 319.58ZM622.595 328.225C620.932 329.091 619.632 329.352 617.788 328.799C616.768 328.493 615.761 327.906 614.972 327.117C614.19 326.335 613.625 325.363 613.406 324.284C612.867 321.622 611.41 319.13 609.334 317.505C607.56 316.116 605.321 315.38 602.837 315.796C600.156 316.243 597.602 317.962 595.844 319.989C595.256 320.667 594.795 321.437 594.332 322.202C593.465 323.633 592.623 324.963 591.428 326.014C590.975 326.413 590.292 326.69 589.631 326.69C589.362 326.69 589.089 326.647 588.829 326.566C586.161 323.888 585.648 321.857 585.734 319.842C585.825 317.729 586.658 315.59 588.004 313.594C591.161 308.912 597.157 305.073 601.202 304.204C606.743 303.013 612.245 304.442 616.657 307.537C621.196 310.721 624.559 315.664 625.608 321.235C625.86 322.577 625.753 324.025 625.242 325.281C624.743 326.508 623.873 327.559 622.595 328.225ZM511.548 269.663C508.223 272.902 504.288 273.404 500.306 273.851C498.094 274.101 496.328 274.303 494.591 274.695C489.814 275.773 485.093 277.397 480.786 279.735C476.283 282.18 471.376 285.129 467.846 288.906C467.007 289.804 466.215 290.748 465.423 291.693C464.7 292.555 464.004 293.384 463.271 294.184C462.428 295.103 461.628 296.066 460.833 297.027C460.341 297.838 460.243 298.037 460.144 298.245C459.995 298.556 459.822 298.905 459.624 299.28C459.352 299.793 459.034 300.354 458.702 300.863C458.148 301.793 457.851 302.049 457.594 302.164C457.168 302.353 456.764 302.447 456.372 302.396C456.004 302.349 455.658 302.172 455.316 301.883C453.609 300.441 453.106 298.074 453.157 295.562C453.236 291.749 454.642 287.527 455.938 284.932C458.953 278.903 463.133 272.634 468.16 268.134C473.896 262.997 480.171 259.108 487.379 256.428C491.859 254.763 497.045 253.233 501.925 253.427C505.438 253.566 508.791 254.61 511.56 257.217C513.261 258.818 514.077 261.095 514.077 263.37C514.077 265.691 513.229 268.025 511.548 269.663ZM629.357 299.328C629.145 299.674 628.853 299.913 628.527 300.057C628.186 300.207 627.804 300.25 627.439 300.189C627.075 300.127 626.729 299.962 626.454 299.71C626.191 299.468 625.99 299.148 625.901 298.755C623.693 289.059 619.407 281.846 610.258 277.194C605.758 274.906 600.583 273.452 595.683 272.292C594.26 271.956 592.756 271.737 591.241 271.516C586.493 270.823 581.711 270.029 578.615 266.191C576.75 263.879 575.968 260.923 576.41 258.219C576.827 255.673 578.315 253.339 581.019 251.94C587.751 248.459 596.118 251.875 602.916 254.785C603.421 255 603.916 255.212 604.4 255.417C611.049 258.223 617.113 261.928 622.097 267.225C626.052 271.428 629.717 277.642 631.193 284.033C632.421 289.351 632.132 294.779 629.357 299.328Z" fill="black"/>
<path fill-rule="evenodd" clip-rule="evenodd" d="M637.963 266.41C661.435 266.41 674.829 271.458 679.738 271.851L679.885 271.862C681.927 271.992 683.758 272.163 685.68 272.906C692.745 275.627 693.896 283.038 689.773 287.708C689.484 297.371 690.755 308.663 688.574 318.358C685.884 359.229 666.663 366.126 655.737 368.643C650.252 369.908 643.751 370.411 637.925 369.076C627.985 368.706 618.158 365.594 609.75 360.176C598.041 352.624 589.344 341.016 586.522 327.24C585.185 320.674 584.56 313.839 585.288 307.165L585.395 306.245C581.589 304.424 577.179 304.08 572.632 303.919C570.461 303.842 568.32 303.773 566.24 303.865C564.208 304.092 562.199 304.394 560.185 304.806C557.985 305.47 555.907 306.565 553.989 308.3L553.857 310.833C553.496 317.159 552.666 323.504 551.385 329.71C549.493 338.868 546.451 347.614 539.976 354.11C537.784 357.383 535.072 360.305 531.779 362.835C519.819 372.044 503.569 375.425 488.656 374.152C458.379 371.568 440.878 347.534 436.845 337.26L436.604 336.638C433.691 329.001 431.369 319.091 422.163 317.45L420.205 317.098C416.003 316.31 412.127 315.212 409.664 311.113C408.584 309.324 408.028 307.322 407.892 305.282C406.455 305.392 405.02 305.498 403.59 305.6C392.182 308.013 323.754 310.059 318.292 310.059C318.292 310.059 307.793 314.478 303.36 311.054C300.288 308.673 299.277 305.5 300.969 301.905C303.521 296.496 315.294 293.243 320.522 292.213C320.522 292.213 404.887 292.914 410.959 291.762C414.716 287.889 421.436 288.419 427.051 287.806C431.7 284.492 438.203 282.271 443.34 280.785C444.387 280.389 445.424 280.005 446.432 279.644C455.849 276.29 465.638 274.514 475.575 273.56C485.823 272.586 496.101 273.026 506.289 274.422C510.583 275.005 514.836 275.758 519.059 276.743C526.622 277.74 534.14 279.382 541.705 281.33L543.218 281.723C551.185 283.812 559.371 285.618 567.617 284.202C574.331 283.057 580.787 280.474 586.977 277.68L587.783 277.314C601.394 271.1 622.65 266.41 637.963 266.41ZM518.241 289.133C513.219 288.028 511.074 295.771 516.112 296.878C519.68 297.663 522.703 299.462 524.746 302.51L524.961 302.841C527.702 307.203 534.634 303.176 531.873 298.786C528.768 293.846 523.942 290.386 518.241 289.133ZM665.327 284.332C663.557 283.085 660.878 284.011 659.85 285.773C658.719 287.713 659.46 289.874 661.118 291.143L661.287 291.267C662.808 292.339 664.289 294.261 664.475 296.23L664.491 296.476C664.69 301.628 672.698 301.654 672.498 296.476C672.302 291.41 669.369 287.178 665.327 284.332Z" fill="black"/>
</svg>
