<svg width="853" height="1255" viewBox="0 0 853 1255" fill="none" xmlns="http://www.w3.org/2000/svg">
<path fill-rule="evenodd" clip-rule="evenodd" d="M516.683 1253.87C576.868 1252.57 631.655 1256.21 689.61 1244.45L689.684 1242.5C702.115 1242.14 698 1230.52 695.501 1222.4C929.395 1211.99 776.836 641.903 614.751 603.572C606.811 602.218 598.185 601.503 589.439 601.417C578.155 597.971 567.035 597.36 555.239 594.217C554.107 590.087 553.922 587.699 548.918 588.922C530.957 571.77 498.639 555.971 487.734 589.441C473.383 569.494 465.153 546.172 459.157 522.553L458.187 522.712C455.639 516.432 451.467 508.486 446.392 507.175C438.482 504.556 423.566 505.16 414.966 504.097C396.32 502.804 374.661 499.635 356.788 503.912C312.125 514.846 331.481 567.57 295.269 601.894C278.651 595.015 252.604 596.901 236.683 605.092C226.43 613.303 231.571 622.56 233.369 631.24C119.012 620.932 88.5846 753.568 64.9856 841.005C55.5176 870.093 46.1206 889.813 29.9946 912.271C9.04663 938.524 -2.71639 972.904 18.7456 1000.6C-11.8944 1061.74 21.3686 1119.2 56.5626 1165.36C63.4546 1172.75 74.6336 1193.31 84.7346 1194.72C87.4756 1197.22 91.8536 1200.31 94.9426 1202.55L91.2176 1207.43C90.7726 1211.94 90.7436 1216.79 87.6596 1220.81C84.6926 1223.7 81.5206 1226.66 81.4326 1230.98C86.1606 1236.47 92.2666 1230.34 96.7536 1227.61C98.4736 1230.99 98.2266 1239.02 103.738 1238.71C240.39 1248.08 380.341 1254.23 516.683 1253.87" fill="white"/>
<path fill-rule="evenodd" clip-rule="evenodd" d="M461.827 522.75C450.961 536.898 468.666 580.159 476.814 595.165C421.106 618.425 358.939 628.566 299.433 615.357C314.888 600.573 331.965 553.33 319.242 536.724L318.658 539.714C314.345 561.678 309.068 584.464 293.226 601.264C270.792 595.31 216.25 595.844 225.182 631.227C86.6936 631.552 85.5436 799.126 39.3706 892.627C17.2176 928.338 -17.0834 964.971 11.6366 1007.88C5.99257 1021.42 2.05959 1035.77 0.596588 1050.34C-3.91441 1097.9 25.1886 1138.61 51.4276 1175.52C60.6716 1185.66 68.4046 1202.65 81.8416 1206.99C83.2216 1208.18 84.6586 1209.3 86.1316 1210.37C83.4636 1214.26 85.6276 1220.44 82.5026 1223.84L81.2826 1225.02C79.2327 1227.03 76.4167 1230.02 75.8546 1232.68L75.5891 1234.99C75.4746 1235.89 75.4501 1235.84 75.5156 1234.84L75.5534 1234.52C75.5956 1234.09 75.5332 1234.12 75.3667 1234.63L75.2946 1234.86C73.8876 1238.89 76.8536 1243.51 80.9036 1244.58C92.9596 1251.04 105.777 1232.13 101.742 1219.48C168.594 1248.31 307.452 1196.17 374.626 1170.32C387.463 1165.16 399.631 1158.47 412.613 1153.73L413.579 1153.26C428.562 1145.89 443.498 1135.19 461.071 1139.47C535 1171.13 603.745 1223.84 685.699 1234.24C672.879 1258.72 710.608 1262 703.049 1234.65C926.071 1205.72 787.097 726.406 668.626 633.821C630.91 597.899 605.536 606.135 559.71 595.765C558.657 591.905 554.793 588.668 550.702 589.217C534.416 573.729 500.691 558.64 486.775 583.797C478.264 570.498 472.346 555.723 468.208 540.526C466.559 534.491 465.973 527.596 461.827 522.75ZM549.133 1241.04C561.024 1231.62 542.957 1216.77 532.663 1222.76C529.484 1226.65 540.47 1222.77 539.096 1231.38C537.094 1237.11 543.07 1244.73 549.133 1241.04ZM306.429 1229.35C314.89 1213.42 307.462 1206.32 294.753 1218.72C283.15 1227.48 298.715 1241.7 306.429 1229.35ZM424.276 1227.86C436.208 1221.45 439.176 1192.2 419.808 1206.26C402.576 1212.39 407.31 1234.31 424.276 1227.86ZM558.082 604.219C581.939 610.814 608.556 607.972 630.437 621.632C683.964 655.326 714.747 713.409 737.903 770.451L738.603 772.179C785.591 887.864 823.199 1022.36 783.66 1145.28C763.69 1201.2 714.533 1225.18 658.583 1205.76C518.164 1160.27 400.819 1050.92 251.489 1032.3C249.384 1015.01 254.162 997.97 260.261 981.809C351.872 985.624 439.702 1015.28 527.49 1039.16C532.602 1061.55 558.147 1087.63 573.452 1105.01C587.279 1123.52 621.482 1129.09 625.689 1100.63L626.362 1101.39C637.643 1114.05 662.392 1135.97 669.99 1108.66C671.701 1094.34 662.523 1081.95 658.009 1068.92L658.486 1069.27C666.828 1075.51 701.351 1104.93 703.753 1085.34C703.599 1066.88 697.754 1048.71 687.151 1033.58C676.498 1019.62 663.409 1006.47 649.152 996.15C648.4 991.77 647.032 987.536 646.007 983.204C647.572 966.915 641.149 951.625 639.465 935.675C635.581 920.711 634.734 892.694 623.899 882.167C615.582 891.026 623.822 924.81 624.248 937.734C627.218 953.443 625.933 969.496 631.626 984.772C615.568 975.991 598.166 971.535 580.681 970.784C578.9 936.485 530.344 948.463 507.855 951.124C473.528 938.918 329.404 943.194 305.576 968.852C293.681 967.471 282.308 966.384 270.234 965.555C256.191 956.623 217.452 960.279 211.48 977.844C195.865 982.467 182.299 990.351 168.605 999.357C164.366 929.468 182.908 860.623 178.393 790.63C177.986 786.563 176.105 783.037 176.183 778.902C176.192 778.411 175.477 778.43 175.433 778.902C168.688 799.337 167.405 821.15 163.614 842.342C158.62 879.303 149.846 915.837 146.936 953.032C145.669 984.289 150.747 1017.72 138.279 1047.35C136.503 1051.57 139.433 1058.44 143.524 1060.24C177.691 1074.59 217.442 1064.28 248.644 1046.79C315.128 1068.07 380.168 1093.35 441.416 1127.1C429.629 1130.2 419.028 1137.1 408.357 1142.83C393.166 1148.09 378.079 1153.64 362.903 1158.95C287.798 1181.65 209.199 1212.14 129.848 1207.51C105.453 1203.35 94.4806 1192.9 79.9986 1174.23L77.6095 1171.13C51.7363 1137.66 22.1645 1102.22 17.8286 1058.81C16.8406 1044.72 18.1786 1030.7 18.9946 1016.66C22.4806 1020.23 26.2216 1023.56 29.8416 1027.01C34.8656 1031.8 41.2876 1025.76 38.8226 1020.08C33.4916 1003.94 24.0976 988.713 22.4726 971.63C22.1986 955.562 32.7306 941.268 42.0356 929.054C114.44 839.947 82.8576 652.842 226.263 634.675C287.454 763.353 496.104 709.86 556.278 607.385L558.082 604.219V604.219ZM718.794 1146.61C718.19 1129.07 690.272 1151.9 692.85 1161.48C694.414 1174.71 710.459 1168.53 714.092 1159.59C716.347 1155.51 718.246 1151.26 718.794 1146.61ZM165.999 1128.56C161.974 1121.22 138.001 1142.33 150.427 1149.26C158.841 1153.7 162.062 1143.3 163.889 1137.06C164.886 1134.45 166.776 1131.44 165.999 1128.56ZM576.018 1138.19C591.117 1129.23 558.065 1117.16 556.824 1131.78C556.339 1141.69 569.728 1141.17 576.018 1138.19ZM295.411 1099.6C287.827 1089.49 287.647 1125.31 292.144 1127.74C294.22 1131.01 298.873 1130.24 300.112 1126.7C303.299 1117.57 298.501 1108.18 295.411 1099.6ZM654.248 1105.9L654.411 1106.51C655.253 1109.8 653.273 1105.46 654.037 1106.1C654.105 1106.03 654.177 1105.97 654.248 1105.9ZM490.31 1020.24C524.857 980.898 587.173 971.136 633.741 994.474C640.601 996.484 646.62 1002.12 652.796 1005.8C651.245 1005.24 649.674 1004.76 648.088 1004.36C668.544 1021.77 685.957 1045.62 689.101 1072.77C670.452 1061.23 654.069 1046.78 641.146 1028.72C636.897 1021.31 624.693 1026.4 627.291 1034.56C635.676 1057.61 648.506 1079.85 653.878 1103.67C633.78 1089.12 618.948 1067.71 610.609 1044.46C607.103 1034.49 591.497 1038.55 594.609 1048.87C598.726 1062.54 603.121 1076.16 607.028 1089.89L608.081 1093.64C609.391 1098.37 610.16 1102.69 604.545 1103.99C586.45 1105.16 562.193 1065.17 551.41 1051.55C546.119 1045.11 541.44 1031.13 531.45 1033.16C519.014 1025.03 504.018 1024.08 490.31 1020.24ZM91.9812 1083.15C89.9168 1081.36 87.386 1080.12 84.646 1081.03L84.3802 1081.13C76.0982 1084.02 82.5182 1095.36 89.6202 1091.37C92.0332 1089.56 94.6542 1088.04 97.5322 1087.05C99.2572 1085.27 93.0112 1084.47 91.9812 1083.15ZM477.427 1050.07C474.989 1038.64 452.412 1054.18 460.447 1062.23C468.072 1068.06 476.776 1057.38 477.427 1050.07ZM749.405 1051.66C728.21 1037.86 725.656 1071.28 756.996 1061.51C759.574 1057.61 751.996 1053.79 749.405 1051.66ZM206.877 982.891C195.295 996.749 190.723 1014.86 188.671 1032.44C188.204 1035.9 187.384 1039.72 187.553 1043.29C179.646 1044.45 171.504 1044.75 163.766 1043.2C165.675 1036.33 166.856 1029.26 167.574 1022.12C178.02 1006.55 190.029 991.92 206.877 982.891ZM237.776 1026.97C237.741 1028.88 237.804 1030.79 237.958 1032.71C227.716 1033.92 217.627 1036.49 207.603 1038.99L207.668 1035.94C207.69 1034.92 207.715 1033.9 207.749 1032.89C217.657 1035.56 229.83 1032.79 237.776 1026.97ZM211.169 1003.46C222.61 998.827 233.096 995.931 245.4 996.704C241.761 1004.53 239.132 1012.73 238.171 1021.15C233.161 1022.57 227.484 1022.97 222.646 1022.72C217.738 1022.47 213.208 1020.11 208.539 1020C209.07 1014.45 209.858 1008.89 211.169 1003.46ZM320 1007.37C312.762 1004.47 302.104 1012.45 310.043 1018.7C315.823 1022.63 323.73 1017.36 328.422 1013.77C331.008 1010.8 322.261 1007.91 320 1007.37ZM463.464 980.768C466.599 990.41 487.228 986.176 496.679 991.369L495.843 991.851C486.762 997.143 476.902 1004.66 475.213 1014.22C463.19 1009.52 451.069 1005.08 438.88 1000.88C446.103 992.81 454.403 986.164 463.464 980.768ZM323.351 971.315C377.615 951.859 436.757 952.429 493.681 954.241L492.184 954.692C467.643 962.138 438.909 973.705 426.118 996.595C392.587 985.659 358.277 976.604 323.351 971.315ZM217.704 986.676C226.053 971.891 242.308 965.28 258.212 966.391L260.718 966.801V966.801C258.987 967.408 257.359 968.266 255.896 969.485C253.284 971.661 253.328 976.444 255.637 978.835C252.708 983.176 249.958 987.703 247.529 992.379C238.761 986.262 228.246 985.38 217.704 986.676ZM71.1025 987.001C90.0975 998.149 103.847 945.951 79.9065 957.163L78.1998 958.992C71.2649 966.477 60.5427 979.13 71.1025 987.001ZM516.519 962.559C522.586 967.483 529.65 971.054 535.794 975.927C525.693 978.485 515.765 981.88 506.371 986.346C498.717 979.783 489.512 975.605 479.766 972.659C491.455 967.818 503.984 964.587 516.519 962.559ZM765.256 963.659L765.167 963.423C762.226 955.164 744.477 942.914 735.66 946.122C735.248 946.102 734.84 946.505 734.864 946.919L734.72 947.942C734.223 951.573 733.967 955.127 736.364 958.366C740.655 965.282 744.752 973.899 753.005 976.595C761.138 979.174 768.104 971.46 765.256 963.659V963.659ZM536.747 960.215L539.457 960.072C551.907 959.378 569.834 958.245 575.915 970.663C565.415 970.591 554.735 971.742 544.143 973.995C542.558 969.222 539.957 964.424 536.747 960.215ZM468.743 907.457C470.638 903.841 463.61 907.805 461.977 907.249C458.944 907.435 456.205 908.058 454.489 910.786C451.74 915.161 457.081 919.851 461.288 917.585C465.348 915.342 464.372 909.491 468.743 907.457ZM230.216 887.221L229.957 887.195C225.761 886.727 207.783 882.635 207.83 887.082L208.174 887.565C213.828 895.622 221.199 911.481 232.702 905.828C240.092 901.619 238.609 889.043 230.216 887.221ZM355.429 886.564C352.11 880.447 344.999 894.65 342.884 897.177C339.874 903.917 348.558 909.173 352.841 902.997C355.5 898.18 356.683 891.972 355.429 886.564ZM666.837 872.529C662.069 870.114 650.01 869.897 653.312 878.048C659.744 886.577 671.542 882.449 678.747 876.986C682.431 872.747 669.127 874.471 666.837 872.529ZM550.925 840.886C551.357 834.778 544.544 832.594 539.951 834.589C531.755 838.15 525.403 851.249 527.997 859.721C530.085 868.125 542.805 869.985 546.847 862.185C549.171 854.983 549.484 848.107 550.925 840.886ZM128.753 852.288C119.339 850.295 109.468 843.986 99.7988 845.763C96.7848 846.896 95.6898 850.324 97.9388 852.813C99.2098 858.554 134.05 857.276 128.753 852.288ZM400.921 830.374C396.915 823.105 387.708 815.393 378.873 816.024C373.454 815.844 371.337 823.637 376.111 826.224L376.269 826.292C379.267 827.487 401.997 833.32 400.921 830.374ZM275.807 818.658C289.365 816.714 289.285 784.105 281.211 790.473C278.459 798.47 271.471 803.235 267.475 810.326C265.455 815.189 271.29 820.034 275.807 818.658ZM687.448 811.44C681.687 812.322 651.771 794.128 657.253 808.69C660.82 812.772 665.336 812.87 670.398 813.247L670.536 813.234C673.132 813.066 692.002 815.306 687.448 811.44ZM480.54 781.826C486.526 781.132 508.299 735.642 497.65 738.507L496.025 739.572C484.226 747.361 471.216 757.318 465.951 770.611C463.877 778.536 473.133 786.899 480.54 781.826ZM346.614 763.113C345.752 762.722 344.991 763.948 345.857 764.409C349.555 766.372 353.571 770.528 355.895 774.035C363.853 783.988 373.267 766.4 361.036 765.078C356.574 765.399 350.708 764.968 346.614 763.113ZM600.571 708.048C589.529 705.204 584.19 719.764 593.094 725.784C597.547 729.602 639.382 741.554 641.887 736.757C636.639 728.224 610.417 711.042 600.571 708.048ZM185.799 710.087C155.23 707.585 154.409 701.991 176 726.919C188.747 738.107 201.664 715.187 185.799 710.087ZM328.88 635.575C339.482 636.475 350.128 636.745 360.757 636.401C359.119 639.908 360.539 645.011 365.191 644.303C367.379 658.5 368.374 672.925 371.136 687.026C371.861 690.323 372.888 693.525 373.87 696.741C353.63 698.235 333.088 697.397 313.361 692.389C320.689 674.029 323.869 654.598 328.88 635.575ZM414.388 629.521C414.484 631.005 414.905 632.473 415.6 633.713C424.756 649.574 432.794 666.124 442.472 681.649C421.586 689.386 399.638 694.431 377.493 696.425C380.839 676.227 377.87 655.628 378.563 635.26C390.608 634.104 402.58 632.18 414.388 629.521ZM280.268 627.18C290.863 630.031 301.643 632.17 312.505 633.7C312.462 635.408 313.445 637.002 314.964 637.639C312.584 655.37 307.894 672.815 307.826 690.889C285.186 685.342 267.288 669.935 252.439 652.559L255.813 650.099C264.838 643.493 273.944 636.444 280.268 627.18ZM488.951 587.1C502.084 579.041 520.265 582.474 530.901 592.969C535.614 597.172 539.705 602.854 545.072 606.156C545.741 606.567 546.427 606.847 547.116 607.023C543.419 614.013 537.769 620.714 532.993 626.479C507.383 648.841 478.553 667.621 446.867 679.977C445.57 660.967 438.992 642.505 431.474 625.039C438.482 622.927 445.391 620.496 452.176 617.745C453.04 622.316 457.325 625.846 460.035 629.394C466.184 636.595 470.282 645.4 476.137 652.726C482.659 659.561 493.74 650.844 489.053 642.761C481.5 631.733 471.739 621.75 460.399 614.241C467.874 610.887 475.002 606.94 481.896 602.524C482.188 602.828 482.489 603.118 482.794 603.398C483.255 600.552 487.172 601.301 489.255 601.767C490.739 600.51 492.753 602.093 494.406 602.505C494.648 602.065 494.851 601.6 494.995 601.112C503.484 609.497 509.869 622.776 520.822 627.783C525.334 629.028 530.566 624.548 528.846 619.76C525.949 612.408 502.445 596.805 494.681 592.682C496.38 590.21 495.021 588.989 492.267 589.356C491.794 588.764 491.069 588.581 490.314 589.083C489.835 588.439 489.386 587.773 488.951 587.1ZM659.216 660.958C653.893 660.984 647.608 658.765 642.829 661.839C635.801 669.883 653.218 672.648 660.044 662.959C660.708 662.224 660.272 660.953 659.216 660.958ZM266.489 611.402C264.968 613.195 264.452 615.811 265.007 618.161C258.347 628.33 254.688 639.842 251.341 651.278L250.404 650.115C235.23 631.152 226.625 613.958 259.974 612.085C262.142 611.778 264.316 611.55 266.489 611.402ZM584.272 638.086C611.82 617.966 552.544 628.958 569.621 641.257C574.876 643.165 579.914 641.042 584.272 638.086Z" fill="black"/>
<path fill-rule="evenodd" clip-rule="evenodd" d="M492.068 93.2704C429.054 89.8304 373.224 72.1252 328.868 111.75C328.868 111.75 257.111 58.163 245.138 78.5725C237.116 92.2482 248.241 110.607 245.258 127.482C225.806 160.643 226.906 216.771 225.806 229.924C223.034 263.078 205.574 387.835 205.574 417.46C205.574 432.582 218.042 472.187 225.806 494.227C243.089 543.283 276.078 568.284 330.179 568.284C384.28 568.284 472.583 523.067 500.904 482.92C503.386 479.401 519.436 489.666 536.223 471.86C554.41 452.571 564.499 415.779 564.499 393.847C564.499 366.016 582.486 346.716 580.394 311.092C575.721 231.533 559.496 96.9513 492.068 93.2704Z" fill="white"/>
<path fill-rule="evenodd" clip-rule="evenodd" d="M499.108 0.772513C498.288 0.722513 497.458 0.762513 496.628 0.843513C495.718 0.883513 494.808 0.972513 493.898 1.15351C489.268 2.04251 485.138 4.49251 481.938 7.94251C481.848 8.03251 481.778 8.13351 481.698 8.22251C480.198 9.35251 478.808 10.6335 477.558 11.9925C477.338 11.7825 477.128 11.5735 476.898 11.3635C476.238 10.7825 475.548 10.2325 474.828 9.71351C471.815 7.12995 468.281 5.2518 464.478 4.1832L463.958 4.04251C463.858 4.01251 463.758 3.99251 463.658 3.97251C460.958 3.07351 458.118 2.61351 455.258 2.62251C451.838 2.51251 448.408 3.07351 445.208 4.39251C441.418 5.96351 438.118 8.44251 435.348 11.4235C433.528 12.9035 431.938 14.5325 430.258 16.3235C426.788 20.0325 424.048 24.3725 422.318 29.1535C422.078 29.8235 421.868 30.5125 421.678 31.2025C417.448 30.7135 413.198 30.3635 408.948 30.1925C404.178 29.9035 399.408 29.8025 394.628 29.9635C381.458 30.3925 368.578 32.7135 356.108 36.9635C353.608 37.7025 351.178 38.6425 348.838 39.8025C345.168 41.2625 341.698 43.1225 338.428 45.3725L335.643 47.0245C334.243 47.8561 332.844 48.6985 331.488 49.5625C328.258 51.6335 325.198 53.9525 322.298 56.4525C319.238 58.9235 316.348 61.6135 313.598 64.4325C312.851 65.1955 312.13 65.9685 311.419 66.7465C305.08 70.1675 299.449 74.5475 294.197 79.7715C290.032 77.3755 285.719 75.2035 281.268 73.2725C276.678 71.2825 270.848 69.2325 266.038 67.8835C261.718 66.6735 257.448 65.8435 253.118 65.2325C251.148 64.8925 249.168 64.6225 247.178 64.3925L247.258 64.4235V64.4235C245.858 64.2725 244.468 64.1425 243.058 64.0225L243.098 64.0125V64.0125C242.498 63.9635 241.888 63.9125 241.288 63.8725L239.828 63.7535V63.7535C239.388 63.7135 238.748 64.7425 238.708 65.1025L238.658 65.4725V65.4725C238.328 65.8435 238.028 66.2535 237.818 66.5035C237.558 66.4825 237.298 66.4635 237.038 66.4525C236.258 66.3835 235.358 67.7725 234.898 68.3025L234.482 68.7912C234.009 69.3609 233.535 70.0171 233.458 70.7325C232.948 74.8835 232.468 79.0425 232.028 83.2025C231.858 86.3525 232.028 89.4725 232.548 92.5625C232.938 95.5625 233.338 98.5625 233.738 101.553C234.378 103.654 235.008 105.754 235.638 107.853C235.888 108.654 236.168 109.443 236.438 110.233C238.037 115.509 239.912 120.645 242.145 125.622C240.516 127.424 238.997 129.292 237.584 131.221C237.246 131.568 236.906 131.913 236.588 132.273C236.498 132.134 236.368 132.004 236.228 131.933C235.748 131.723 235.398 131.973 235.098 132.384C231.948 135.393 229.658 138.904 228.238 142.913L227.354 145.003C227.207 145.353 227.062 145.703 226.918 146.053C225.788 149.094 224.918 152.214 224.198 155.373C223.554 157.859 223.092 160.379 222.794 162.926C220.634 170.179 218.926 177.599 217.315 184.919C217.061 186.071 217.181 187.099 217.55 187.975L216.608 188.893V188.893L214.999 190.495C212.295 193.191 209.537 196.025 207.528 199.233C205.448 202.563 203.918 206.123 202.218 209.654L201.852 210.404V210.404L201.103 211.908C200.294 213.55 199.906 214.457 199.188 216.443C197.998 219.754 197.358 223.083 197.058 226.594C196.618 231.703 196.678 237.273 198.918 242.023C198.928 242.063 198.948 242.094 198.968 242.123C199.988 246.714 202.508 250.973 206.338 253.693C207.158 254.464 208.038 255.154 208.978 255.703C211.234 257.027 213.306 257.146 215.768 256.533L216.078 256.453C216.388 256.373 216.668 256.303 216.938 256.243C216.538 256.573 216.338 256.964 216.938 257.243C217.518 257.523 218.038 257.683 218.528 257.743C218.318 258.013 218.298 258.303 218.738 258.543C219.698 259.053 220.478 259.214 221.278 259.073L221.11 260.463C219.798 270.983 218.625 273.063 217.598 284.364C216.918 295.933 215.838 307.473 214.348 318.964L213.835 323.139C212.19 336.372 210.34 349.703 207.508 362.723C206.078 368.413 204.848 374.143 203.808 379.913C202.338 384.303 201.308 388.793 200.738 393.373C199.908 398.033 199.338 402.733 199.008 407.473C197.858 410.504 197.298 413.583 197.328 416.723C197.178 420.943 197.318 425.154 197.768 429.344C198.018 433.703 198.618 438.023 199.568 442.303C200.418 448.174 201.968 453.844 204.188 459.344C205.968 465.483 208.148 471.504 210.628 477.393C214.478 486.513 219.128 494.983 224.418 503.333C229.378 511.163 234.698 518.703 240.778 525.714C248.638 534.773 257.598 543.073 267.418 550.073C273.018 554.214 278.928 557.933 285.108 561.114C292.668 565.013 300.348 568.523 308.538 570.893C313.648 572.373 318.848 573.393 324.108 574.174C334.438 575.703 345.138 575.472 355.528 573.682C362.228 572.782 368.818 571.222 375.048 568.992C380.168 567.153 385.048 565.043 389.928 562.663C392.438 561.453 394.858 560.052 397.178 558.482C401.078 555.952 404.728 553.093 408.128 549.932C409.238 548.982 410.318 548.012 411.378 546.992C411.888 546.542 411.608 545.873 411.018 545.714L410.838 545.693V545.693C411.068 545.483 411.308 545.272 411.538 545.052C411.588 545.012 411.628 544.964 411.668 544.913C411.778 544.813 411.898 544.714 411.998 544.614C412.388 544.273 411.998 543.513 411.658 543.333C411.528 543.263 411.358 543.254 411.168 543.273C411.208 543.233 411.238 543.203 411.278 543.174C411.318 543.143 411.328 543.062 411.318 542.982L411.468 542.864V542.864C411.978 542.413 411.718 541.754 411.118 541.583C410.825 541.494 410.342 541.539 409.838 541.649L409.648 541.693L409.988 541.372C410.588 540.852 410.398 540.273 409.658 540.094C409.106 540.126 408.561 540.202 408.021 540.333L407.618 540.443C407.418 540.493 407.228 540.553 407.028 540.614C407.368 540.303 407.708 540.004 408.038 539.693C408.368 539.404 408.018 538.573 407.718 538.404C407.308 538.174 406.508 538.493 406.138 538.763C405.228 538.864 404.028 539.263 403.588 539.643C402.378 540.803 401.128 541.912 399.858 542.992C399.088 543.232 398.358 543.553 397.798 544.033C396.358 545.413 394.858 546.714 393.328 547.973L392.165 548.774C391.97 548.906 391.775 549.036 391.578 549.163C389.378 550.453 387.178 551.733 384.988 553.023C376.958 555.743 368.928 558.464 360.908 561.174L359.848 561.492V561.492L352.058 562.453V562.453C346.938 562.993 341.808 562.963 336.688 562.372C332.848 562.423 329.038 562.043 325.288 561.263C318.918 560.183 312.668 558.593 306.588 556.372C299.588 553.822 292.918 550.464 286.408 546.844C284.068 545.533 281.768 544.143 279.508 542.674C278.778 542.154 278.048 541.623 277.318 541.083C272.508 537.473 267.908 533.622 263.478 529.552C261.398 527.642 259.398 525.654 257.468 523.594C257.188 523.293 256.918 523.004 256.648 522.703C254.798 520.683 253.008 518.593 251.298 516.432L249.668 514.594V514.594C243.088 506.404 237.238 497.594 231.978 488.523C226.758 479.533 222.458 470.073 219.038 460.283C217.938 456.793 216.978 453.254 216.178 449.674C214.698 445.373 213.728 440.964 213.278 436.464C213.128 435.583 213.008 434.703 212.888 433.823L212.819 432.435C212.809 432.204 212.802 431.973 212.798 431.743C212.598 430.344 212.428 428.943 212.298 427.543C212.218 426.134 212.168 424.722 212.158 423.312L212.268 414.663V414.663C212.298 414.393 212.328 414.114 212.348 413.833L212.568 411.924C213.048 407.983 213.418 404.033 213.898 400.094C213.898 400.073 213.898 400.043 213.908 400.013C214.088 398.543 214.278 397.063 214.498 395.583C214.608 394.703 214.748 393.823 214.878 392.943L215.128 391.404V391.404C215.592 388.726 216.155 386.071 216.838 383.439L217.138 382.312L218.878 373.562L220.838 364.953C222.108 359.183 223.168 353.373 224.008 347.513C225.528 338.174 226.828 328.823 227.958 319.433C228.018 318.983 228.078 318.523 228.128 318.073C229.278 309.364 230.108 300.623 230.648 291.853C231.378 283.214 231.798 274.553 231.908 265.884C231.918 265.493 231.658 265.174 231.348 264.993L231.376 263.326C231.413 261.851 231.439 263.62 231.452 261.939L231.471 257.315C231.47 256.93 231.466 256.662 231.458 256.643C236.801 257.012 240.394 256.709 245.553 256.437L246.428 256.393C251.158 256.174 255.858 255.654 260.528 254.873C260.548 255.114 260.708 255.283 260.978 255.333C261.458 255.353 261.908 255.353 262.368 255.364L262.198 256.013V256.013C262.188 256.344 262.338 256.553 262.658 256.643L263.992 256.702C265.773 256.777 267.56 256.813 269.328 256.573C270.918 256.364 272.468 255.993 274.008 255.553C274.958 255.393 275.928 255.174 276.918 254.893C279.458 254.163 281.978 253.183 284.528 252.404C287.128 251.853 289.768 251.674 292.528 252.333C295.448 253.023 297.918 254.273 300.978 253.513C301.588 253.364 302.178 253.134 302.768 252.893L303.314 252.854C303.407 252.846 303.502 252.836 303.598 252.823C306.788 252.364 309.628 250.344 312.668 249.263C313.73 249.004 314.783 249.069 315.812 249.499L316.068 249.614L317.078 250.364C317.485 250.843 317.887 251.327 318.285 251.813L318.878 252.543C319.968 253.893 321.128 255.103 322.538 255.983C324.238 257.553 326.258 258.473 328.668 258.533C330.038 258.573 331.398 258.283 332.718 257.864C337.698 259.404 343.028 259.714 347.998 258.214C349.968 257.913 351.898 257.384 353.748 256.553C354.618 256.163 355.488 255.703 356.328 255.193C359.838 256.674 363.158 258.643 366.548 260.344L367.312 260.727C370.776 262.452 374.609 264.135 378.528 263.884C383.468 263.563 388.318 262.904 393.158 262.073C393.198 262.073 393.248 262.063 393.288 262.053L393.954 261.942V261.942L396.376 261.517V261.517L398.328 261.154V261.154L399.326 261.536C407.341 264.568 416.124 266.934 424.178 264.812C427.688 264.384 430.978 263.203 433.948 261.193C434.048 261.123 434.148 261.053 434.248 260.973C434.718 260.733 435.158 260.464 435.548 260.174L435.632 260.108V260.108L435.708 260.043L435.748 260.023C440.138 258.004 442.658 253.703 442.218 248.884C442.488 247.353 442.478 245.853 442.178 244.254C443.608 245.943 445.068 247.614 446.548 249.273C451.962 255.791 457.263 262.44 462.172 269.361L463.298 270.964C465.998 274.773 468.508 278.714 470.828 282.773C473.178 286.783 475.588 290.754 478.078 294.674C481.316 298.251 484.446 301.915 487.462 305.668L488.748 307.283L493.088 312.993C496.158 316.634 498.708 320.614 500.718 324.933C502.368 328.004 503.888 331.134 505.258 334.344C505.698 335.313 506.118 336.293 506.528 337.273C507.938 341.103 509.128 345.004 510.058 349.033C510.805 351.949 511.342 354.905 511.66 357.903L511.758 358.904C511.878 360.083 511.968 361.263 512.018 362.443C511.728 362.614 511.488 362.783 511.308 362.953L510.578 363.214V363.214L509.988 363.388C509.068 363.674 507.479 364.264 507.858 364.993L509.788 368.674V368.674C509.588 368.884 509.498 369.103 509.628 369.344C510.918 371.813 512.218 374.283 513.518 376.754C513.558 376.844 513.628 376.913 513.698 376.964C512.588 377.473 511.508 378.033 510.478 378.643C508.468 379.844 506.988 381.233 505.618 382.853C504.178 383.714 502.818 384.654 501.538 385.733C499.958 387.393 498.578 389.214 497.408 391.183C496.328 393.043 495.448 394.983 494.768 397.013C494.468 398.083 494.328 399.193 494.338 400.323C495.548 408.864 505.318 403.013 505.508 402.263C506.848 397.103 508.388 393.844 511.848 390.004L511.938 389.943V389.943C513.938 389.063 515.918 388.193 517.988 387.513C518.298 387.573 518.618 387.614 518.938 387.663C518.578 388.174 518.758 388.674 519.488 388.763C522.638 389.384 525.818 389.553 529.018 389.283L533.878 388.594V388.594C535.894 389.367 537.821 390.359 539.637 391.541L540.238 391.943L540.348 392.023C545.038 395.793 548.658 400.803 551.138 406.263C551.358 406.749 551.569 407.24 551.772 407.736L552.068 408.483L552.088 408.523C555.328 421.254 552.438 435.233 546.518 446.783C543.288 451.953 539.918 457.023 536.398 461.993L532.978 466.464V466.464C530.958 468.364 528.978 470.312 527.048 472.312C526.748 472.613 526.428 472.913 526.108 473.203C525.088 473.873 524.048 474.464 522.988 474.964C522.578 475.103 522.158 475.233 521.738 475.344C519.698 476.323 517.558 476.844 515.308 476.904C512.336 477.1 509.452 476.751 506.665 475.867L506.108 475.683L505.698 475.533C504.178 474.563 502.768 473.353 501.428 471.933C501.128 471.623 500.568 471.623 499.928 471.793C499.578 471.433 499.228 471.053 498.898 470.643C498.668 470.393 498.308 470.384 498.028 470.573C497.078 470.464 494.508 471.924 495.178 472.693C495.288 472.873 495.428 473.033 495.548 473.203C495.098 473.433 494.648 473.693 494.248 473.964C492.148 474.546 489.046 476.642 489.298 477.272L489.328 477.323C489.814 478.241 490.446 479.013 491.224 479.625L491.488 479.823L492.078 480.233C491.248 480.754 490.548 481.353 490.898 481.773C491.058 482.083 491.228 482.384 491.428 482.654C489.728 484.754 488.038 486.873 486.358 488.993C484.678 492.634 482.598 496.033 480.118 499.183C478.048 502.603 475.558 505.674 472.648 508.413C472.408 508.654 472.158 508.884 471.918 509.114C469.774 510.697 467.531 512.181 465.195 513.606L464.188 514.214C463.658 514.533 462.768 514.933 463.188 515.703C463.238 515.803 463.298 515.884 463.368 515.943C461.898 516.904 460.378 517.813 458.808 518.654L458.659 518.745C458.066 519.124 457.262 519.811 458.108 520.372C458.828 520.852 460.738 519.553 461.638 518.953C461.808 518.953 462.008 518.904 462.208 518.844C461.908 519.003 461.613 519.176 461.313 519.345L460.858 519.594C460.508 519.803 458.788 520.943 459.988 521.424C460.578 521.473 461.118 521.322 461.618 520.982C462.208 520.692 462.788 520.384 463.358 520.062C463.158 520.373 463.158 520.682 463.658 520.883C463.828 520.892 463.998 520.884 464.168 520.864C462.988 521.614 461.778 522.313 460.528 522.973L460.326 523.099C459.798 523.441 458.956 524.093 459.568 524.654C460.258 525.273 462.158 523.953 462.648 523.654L464.108 522.783V522.783C464.218 522.833 464.338 522.853 464.468 522.864C464.028 523.134 463.618 523.423 463.168 523.682L462.556 524.016C461.789 524.44 460.706 525.136 461.098 525.833C461.491 526.521 462.657 525.954 463.41 525.508L464.22 525.006C464.256 524.984 464.292 524.963 464.328 524.943L464.359 525.063C464.366 525.083 464.375 525.102 464.388 525.122C464.763 525.775 465.706 525.348 466.357 524.971L466.878 524.654C467.765 524.12 468.643 523.59 469.515 523.057L470.818 522.254H470.838C475.348 519.543 479.518 516.844 483.448 513.364C485.798 511.283 487.988 509.083 490.068 506.733C494.248 502.023 497.358 496.634 500.358 491.134C500.408 491.043 500.338 490.812 500.218 490.562C500.548 489.883 500.868 489.193 501.188 488.483C504.268 489.344 507.708 489.594 510.878 489.384C512.578 489.273 514.258 488.973 515.928 488.523C521.258 487.783 526.398 485.353 530.838 482.443C531.118 482.263 531.368 482.063 531.628 481.884C533.458 480.853 535.198 479.654 536.848 478.283C540.068 475.623 543.138 472.663 545.928 469.573C547.948 467.174 549.858 464.683 551.648 462.103C553.468 459.553 555.308 457.004 557.148 454.453C562.258 446.453 565.528 437.243 566.798 427.833C567.418 424.364 567.738 420.853 567.668 417.353C567.618 414.823 567.338 412.263 566.848 409.714C567.138 409.433 567.428 409.154 567.718 408.864C567.878 409.143 568.038 409.344 568.138 409.243L570.43 406.948C572.056 405.309 573.147 404.103 575.018 401.453C577.998 397.223 580.218 392.573 581.868 387.674C583.058 384.174 583.848 380.193 584.158 376.344C584.258 375.703 584.358 375.053 584.438 374.393C585.078 369.183 584.488 364.193 583.698 359.053C583.648 358.714 583.478 358.504 583.248 358.393C583.19 357.986 583.121 357.568 583.053 357.151C589.677 350.139 594.444 341.688 594.055 331.482C593.933 328.266 593.273 325.095 592.013 322.135L591.86 321.802V321.802C597.389 320.952 601.775 317.068 605.07 312.254C605.362 312.023 605.645 311.79 605.917 311.558C611.809 306.526 615.894 299.401 618.691 291.875C620.694 287.505 622.021 282.835 622.584 277.991C622.624 277.645 622.648 277.302 622.679 276.958C624.047 269.299 624.395 261.563 623.763 253.942C625.136 249.225 626.253 244.425 627.018 239.513C627.378 237.174 627.628 234.833 627.818 232.493L627.838 232.364L627.868 231.943L627.953 230.893C627.966 230.719 627.978 230.546 627.988 230.373C629.678 208.953 624.888 187.873 616.968 168.033C616.278 166.248 615.566 164.469 614.831 162.703L614.051 160.859V160.859C606.101 148.039 594.163 137.67 584.052 126.719C580.563 122.941 586.206 117.269 589.708 121.062C596.426 128.338 603.633 135.307 610.14 142.786C611.289 142.87 612.44 142.901 613.588 142.844C615.588 142.743 617.528 142.424 619.408 141.913C624.098 141.223 628.368 139.333 632.248 136.553C637.438 134.134 641.868 129.573 642.308 123.623C642.358 123.023 642.348 122.433 642.308 121.844C642.788 118.933 642.358 115.884 641.138 113.073C640.928 112.303 640.658 111.543 640.318 110.793C639.328 108.563 637.698 106.424 635.708 104.973C635.658 104.943 635.618 104.924 635.578 104.893C635.368 104.674 635.168 104.453 634.938 104.254C634.598 103.943 634.238 103.654 633.858 103.384C635.208 101.163 636.428 98.8835 637.468 96.4525C638.598 93.8125 639.178 91.1335 639.498 88.3025C639.628 87.1825 639.678 86.0725 639.698 84.9635C639.758 84.4525 639.798 83.9325 639.838 83.4125C640.088 79.4525 639.628 75.3435 638.148 71.6425C638.038 71.3635 637.898 71.0825 637.768 70.7925C637.488 69.9525 637.178 69.1135 636.798 68.2925C635.318 65.1425 633.218 62.4725 630.628 60.2825C629.228 58.8725 627.658 57.6225 625.948 56.5625C624.938 55.9325 623.788 55.3725 622.578 54.9125C620.418 53.7725 617.648 52.7325 615.398 52.6535C615.128 52.6425 614.888 52.6735 614.628 52.6735C614.418 46.9325 613.678 40.6825 611.408 35.4825C610.088 31.7135 608.108 28.3635 605.128 25.9525C603.4 24.1486 601.27 22.6837 598.613 21.7262L598.138 21.5625L597.958 21.5125C595.568 20.3525 592.988 19.8925 590.338 19.9035C587.248 19.7425 584.098 20.3235 581.408 21.7425C580.848 22.0425 580.248 22.4125 579.678 22.8125C579.248 21.9525 578.768 21.0825 578.218 20.2135C576.288 17.1225 573.958 14.4325 571.258 11.9825C570.938 11.6925 570.588 11.4325 570.248 11.1535C568.938 9.96351 567.548 8.86351 566.108 7.86351C562.998 5.70251 559.588 4.09351 556.008 3.05251C551.875 1.52524 547.514 0.816164 543.151 0.965357L542.248 1.00351V1.00351C542.048 1.02251 541.848 1.03251 541.658 1.04251C537.328 1.32351 533.058 2.38351 528.978 3.98251C524.748 5.65351 521.168 8.18251 517.838 11.0825C517.058 10.0035 516.168 8.98251 515.078 8.02251C514.768 7.75351 514.438 7.51251 514.128 7.26251C513.888 7.02251 513.638 6.79251 513.378 6.56251C512.188 5.51251 510.928 4.60251 509.548 3.79251C507.998 2.88351 506.328 2.25351 504.598 1.86351C502.838 1.26251 500.988 0.892513 499.108 0.772513ZM519.658 413.023C519.481 413.013 510.219 416.486 505.605 418.731L505.378 418.843C500.058 421.483 497.498 423.383 492.718 426.773C492.398 427.003 492.068 427.353 492.068 427.693C492.068 432.63 493.268 438.667 497.418 435.993C498.018 435.606 498.623 435.228 499.231 434.856L500.148 434.303L500.178 434.313C500.168 434.313 500.158 434.303 500.148 434.293C509.188 428.783 518.738 424.463 528.818 421.373C529.508 421.123 524.398 413.403 522.988 413.833C523.798 413.513 519.793 413.03 519.658 413.023ZM424.675 194.938C430.686 195.581 436.697 196.214 442.708 196.833C446.538 197.273 450.378 197.663 454.218 197.993C459.988 198.424 465.758 198.493 471.508 197.703C473.548 197.424 475.548 197.023 477.528 196.533C478.878 197.523 480.278 198.453 481.708 199.344L497.588 211.493V211.493C508.238 219.864 518.658 228.733 528.038 238.523C544.42 255.627 557.763 275.637 566.152 297.802C566.913 298.251 567.501 299.034 567.697 300.235C569.179 309.32 573.513 317.606 575.079 326.654C576.621 335.566 574.57 343.142 568.972 350.206C567.777 351.715 565.329 351.635 563.827 350.616C563.478 351.302 561.966 351.273 561.435 348.243C558.946 345.548 556.817 342.723 555.375 339.225C554.313 336.649 556.098 334.863 558.264 334.512C557.364 331.272 556.349 328.061 555.208 324.884C551.828 315.443 547.528 306.424 542.118 297.964C537.358 290.523 531.848 284.043 525.928 277.543C525.858 277.453 525.738 277.424 525.608 277.404L524.378 276.043V276.043C524.208 275.853 523.858 275.873 523.468 275.973C523.098 275.583 522.738 275.183 522.358 274.793C521.988 274.393 521.578 274.513 521.348 274.833C520.718 274.693 519.568 275.373 519.218 275.594C518.618 275.993 518.428 276.443 518.938 277.013C519.028 277.114 519.118 277.214 519.208 277.303C518.518 277.594 517.838 277.983 517.308 278.364C515.458 278.773 512.858 280.493 513.308 281.004C514.258 281.993 515.178 283.004 516.088 284.033C515.288 284.594 514.768 285.143 514.978 285.384C518.878 289.493 522.478 293.844 525.778 298.453C528.288 301.893 530.558 305.473 532.588 309.203C535.608 314.483 538.168 319.913 540.438 325.493C540.758 326.344 541.068 327.193 541.368 328.043C544.688 337.333 547.168 346.973 548.218 356.793L548.262 357.455C548.458 360.992 548.534 370.464 548.898 372.723C546.688 373.813 544.388 374.743 541.998 375.504C541.548 375.634 541.088 375.754 540.628 375.864C540.368 375.754 540.098 375.663 539.828 375.583C537.628 374.693 535.328 374.053 532.978 373.743C531.394 373.533 529.818 373.461 528.243 373.506L527.568 373.533C526.868 373.553 526.178 373.603 525.478 373.674C525.518 373.273 525.538 372.884 525.568 372.483C525.768 372.353 525.918 372.174 525.928 371.933C526.398 367.433 526.408 362.933 525.958 358.433C525.658 356.083 525.308 353.743 524.928 351.404C524.538 349.483 524.088 347.594 523.598 345.703C522.298 340.404 520.568 335.233 518.468 330.174C512.488 315.743 503.918 302.733 495.298 289.793C489.008 280.344 483.058 270.683 476.548 261.393C471.008 253.483 465.188 245.693 458.978 238.293C452.778 230.904 446.228 223.793 439.158 217.214C438.018 216.163 436.868 215.143 435.698 214.134C428.998 208.134 421.718 203.203 414.138 198.364C413.848 198.174 413.328 198.384 412.898 198.743L411.675 197.991C411.47 197.866 411.265 197.743 411.058 197.623C410.868 197.504 410.658 197.703 410.548 197.873C410.028 197.603 409.508 197.344 408.988 197.083C408.609 196.777 408.218 196.487 407.836 196.185C413.457 195.902 419.07 195.482 424.675 194.938ZM354.178 128.273C358.718 127.364 363.278 127.233 367.858 127.913C369.777 128.194 371.687 128.532 373.581 128.941C369.28 132.691 365.821 137.49 363.576 143.013C361.15 148.983 370.827 151.556 373.219 145.672C375.526 139.996 379.893 135.642 385.168 133.032C386.308 133.669 387.413 134.359 388.468 135.123C389.848 136.243 391.148 137.453 392.368 138.783C395.028 141.674 397.468 145.533 399.068 149.353C399.688 151.433 400.148 153.573 400.438 155.773C400.498 156.273 400.558 156.783 400.608 157.293C401.594 167.642 398.635 177.711 393.544 186.621L393.344 186.624V186.624C388.8 184.16 384.043 182.084 379.148 180.393C375.228 177.754 371.158 175.313 366.968 173.103C358.061 168.403 348.653 164.781 338.958 162.303L337.838 162.023C335.555 161.439 333.251 160.925 330.937 160.476L329.548 160.214H329.528L329.678 158.723V158.723C330.458 152.873 332.748 147.443 335.708 142.424C337.928 138.634 341.278 134.754 344.998 131.654L345.018 131.643C346.707 130.683 348.483 129.888 350.311 129.232L350.998 128.993L354.178 128.273ZM476.078 119.384C485.518 118.493 494.958 118.583 504.398 119.353C510.568 119.964 516.698 120.813 522.798 121.893C526.928 122.603 530.978 123.603 534.958 124.844L532.682 129.447C528.877 137.114 524.98 144.731 520.388 151.973C518.018 155.703 515.448 159.254 512.648 162.663C510.758 165.103 508.678 167.364 506.398 169.443C505.798 170.174 505.158 170.864 504.508 171.533C502.428 173.313 500.188 174.873 497.738 176.163C495.774 177.594 493.722 178.844 491.584 179.94L490.778 180.344L483.278 183.223C482.878 183.336 482.474 183.449 482.068 183.557L481.458 183.714L480.318 183.953L479.463 183.488C479.319 183.411 479.175 183.336 479.028 183.263C478.788 183.134 478.618 183.384 478.568 183.563C478.548 183.634 478.578 183.733 478.628 183.833L477.535 183.242V183.242C475.656 184.005 473.662 184.615 471.523 185.017C470.555 185.198 469.585 185.337 468.614 185.456L468.484 185.542C468.462 185.558 468.441 185.574 468.418 185.594H467.356V185.594C459.88 186.315 452.298 185.362 444.834 184.021C434.272 182.959 423.712 181.788 413.158 180.693C412.958 180.674 412.878 180.763 412.878 180.904L412.228 180.844V180.844C411.288 180.743 410.188 182.313 410.898 182.884C410.328 183.223 409.778 183.714 409.368 184.094L409.128 184.073C410.578 181.233 411.698 178.263 412.498 175.174L413.518 169.993V169.993C413.798 168.063 413.958 166.004 413.988 163.973C414.058 163.043 414.108 162.174 414.108 161.413C414.108 160.693 414.098 159.973 414.068 159.254C416.058 158.433 418.078 157.714 420.138 157.103C425.988 156.384 431.828 155.663 437.678 154.953C441.188 155.083 444.698 155.333 448.198 155.723C452.168 156.073 456.128 156.523 460.078 157.063C460.448 157.103 461.108 156.603 461.508 156.023L463.198 156.254V156.254C464.078 156.364 464.998 154.603 463.838 154.243C463.418 154.076 462.998 153.918 462.578 153.766L461.948 153.543L462.308 153.583C462.428 153.594 462.578 153.563 462.748 153.504C463.678 153.623 464.608 153.743 465.528 153.853C466.695 153.998 466.43 152.46 465.611 152.098L465.218 151.953C465.909 151.521 466.518 150.342 465.663 149.956L465.548 149.913C465.148 149.754 464.758 149.623 464.358 149.473C464.388 149.344 464.388 149.223 464.348 149.114L465.998 149.323V149.323C466.149 149.342 465.431 148.289 465.088 148.081L465.028 148.053L464.238 147.813C464.118 147.473 463.478 146.723 463.258 146.654C460.358 145.743 457.658 144.924 454.838 144.293C454.698 144.123 454.538 143.993 454.358 143.953C452.598 143.533 450.818 143.203 449.038 142.924C448.918 142.743 448.798 142.614 448.658 142.603C444.248 142.043 439.828 141.913 435.388 142.214C434.538 142.293 433.688 142.384 432.838 142.493C431.208 142.674 429.578 142.904 427.958 143.214C423.9 143.91 419.937 144.969 416.077 146.396L415.188 146.733C414.218 147.094 413.258 147.473 412.308 147.884C411.828 146.174 411.228 144.493 410.518 142.844C410.408 142.523 410.288 142.214 410.158 141.904L411.128 141.323V141.323C411.338 141.723 411.768 142.033 412.048 141.864C418.998 137.174 426.348 133.263 434.098 130.143C438.438 128.223 442.878 126.594 447.428 125.233C449.698 124.504 451.988 123.844 454.288 123.214C455.438 122.973 456.588 122.733 457.758 122.533C463.768 120.913 469.878 119.864 476.078 119.384ZM247.065 135.257C247.909 136.715 248.787 138.159 249.718 139.583C254.239 146.502 259.659 152.995 265.805 158.656C264.202 158.652 262.603 158.713 261.024 158.861C258.301 159.118 255.634 159.57 253.034 160.203C252.823 160.034 252.587 159.949 252.398 160.083L251.72 160.552V160.552C246.143 162.057 240.907 164.423 236.164 167.593L236.249 166.967C236.264 166.862 236.28 166.758 236.298 166.654C236.218 165.424 236.198 164.193 236.238 162.973C237.218 155.763 239.668 149.123 242.468 142.404C242.521 142.274 242.483 142.105 242.402 141.933C243.815 139.625 245.362 137.393 247.065 135.257ZM245.778 78.5725C247.868 78.9525 249.938 79.4425 251.998 80.0525C255.868 80.6335 259.618 81.6535 263.238 83.1025C268.228 84.8725 273.068 86.9325 277.888 89.1135C287.248 93.3525 296.028 98.7135 304.018 105.174C304.528 105.563 305.018 105.964 305.508 106.364C307.298 107.913 309.038 109.533 310.688 111.243C312.418 113.123 314.158 115.004 315.888 116.893C318.008 119.114 320.448 121.123 322.368 123.523C322.758 124.013 323.098 124.553 323.408 125.094L322.278 125.483V125.483C321.328 125.803 321.488 127.583 322.428 127.323C322.748 127.233 323.048 127.123 323.348 127.004C323.218 127.174 323.128 127.344 323.108 127.493C323.048 127.973 323.418 128.634 324.008 128.464C324.278 128.393 324.548 128.293 324.818 128.183C324.898 128.493 324.958 128.803 324.958 129.103C324.908 129.123 324.858 129.143 324.798 129.154C324.138 129.384 322.898 130.413 322.718 131.114C322.578 131.654 323.038 132.233 323.628 132.073C324.068 131.953 324.498 131.773 324.918 131.573C324.638 131.844 324.418 132.134 324.398 132.384C324.358 132.844 324.758 133.493 325.308 133.344C326.328 133.063 327.148 132.634 327.828 132.094C328.008 132.333 328.268 132.523 328.478 132.464L328.868 132.344V132.344C328.762 132.443 328.664 132.548 328.569 132.65L328.428 132.803C325.668 135.783 323.258 139.083 321.328 142.634C321.238 142.533 321.128 142.443 320.988 142.333C320.088 141.573 319.158 140.833 318.228 140.114L317.947 139.868V139.868L317.658 139.623L319.748 140.313L319.702 140.258C319.554 140.069 319.094 139.439 318.88 139.229L318.828 139.183C315.958 136.614 312.828 134.433 309.448 132.654C307.258 131.233 304.958 130.033 302.548 129.043C296.798 126.373 290.938 124.344 284.918 122.464C284.018 122.174 283.118 121.864 282.218 121.583C281.958 121.493 281.908 121.603 281.948 121.783L281.478 121.643V121.643C280.638 121.373 279.208 122.853 279.778 123.543C279.434 123.823 279.097 124.135 278.801 124.427L278.588 124.643L278.348 124.573C277.634 124.352 276.428 125.466 275.663 126.255L275.098 126.853C274.668 127.313 273.828 128.263 274.858 128.634L276.148 129.073V129.073C276.108 129.333 276.218 129.553 276.618 129.703C277.068 129.853 277.508 130.013 277.948 130.174C277.682 130.406 277.419 130.648 277.162 130.893L276.778 131.263C276.326 131.725 275.252 132.743 276.2 133.193L276.318 133.243L277.548 133.683C277.388 134.043 277.428 134.384 277.968 134.583C285.148 137.023 292.158 139.884 299.008 143.134C304.138 145.973 309.558 148.094 315.268 149.483C315.738 149.634 316.758 148.924 317.178 148.214L318.031 148.464C318.173 148.506 318.315 148.546 318.458 148.583L318.598 148.614V148.614C317.528 151.464 316.738 154.553 316.298 157.543C316.248 157.813 316.208 158.094 316.178 158.364C315.058 158.273 313.948 158.193 312.828 158.134C305.078 157.723 297.238 157.973 289.468 158.893C286.328 157.023 283.308 154.973 280.418 152.754C279.538 152.073 278.668 151.373 277.808 150.663C272.648 146.183 267.978 141.154 263.838 135.723C260.008 130.693 256.678 125.293 253.878 119.634C251.398 114.323 249.348 108.803 247.798 103.103C246.378 97.8925 245.888 92.8225 245.528 87.4325C245.408 86.5525 245.328 85.6735 245.258 84.7925L245.266 84.4155V84.4155L245.278 84.2325C245.378 82.3435 245.568 80.4525 245.778 78.5725ZM319.048 145.543C319.278 145.623 319.518 145.703 319.758 145.773C319.618 146.083 319.488 146.384 319.358 146.693L319.343 146.686V146.686L318.398 145.943V145.943C318.598 145.853 318.828 145.714 319.048 145.543ZM247.178 64.3928C245.378 63.7228 244.018 63.5928 243.098 64.0128C244.458 64.1128 245.818 64.2428 247.178 64.3928Z" fill="black"/>
<path fill-rule="evenodd" clip-rule="evenodd" d="M302.967 481.088C299.536 475.034 289.298 476.018 287.733 483.079C284.558 497.393 301.627 510.611 314.591 510.941C327.474 511.268 341.929 500.303 340.064 486.453C339.603 483.027 335.027 483.443 333.467 485.591L332.861 486.415C328.624 492.107 323.033 497.998 315.17 496.611C311.911 496.037 308.951 494.001 306.981 491.38C304.605 488.217 304.866 484.44 302.967 481.088ZM384.885 376.367C383.139 375.886 381.377 376.072 379.83 376.73C376.376 377.363 373.491 380.243 372.477 383.531C372.397 383.816 372.308 384.097 372.21 384.375L372.055 384.79L372.469 383.736C372.278 384.774 371.433 385.865 371.129 386.907C370.755 388.188 370.664 389.643 370.79 391.053C369.692 391.064 368.594 391.101 367.498 391.196L366.439 391.291C360.516 391.841 354.014 392.851 350.502 397.969C348.53 400.845 350.381 406.023 354.004 406.577C359.581 407.43 364.385 404.344 369.943 403.726C375.197 403.141 380.695 403.476 385.881 404.425C396.588 406.382 406.427 410.722 416.861 413.445L418.281 413.806V413.806L418.279 413.799C420.067 414.231 422.097 411.745 420.328 410.291C411.969 403.424 401.267 397.859 390.724 394.47C392.26 392.027 392.735 388.809 391.685 386.186C391.523 385.642 391.321 385.114 391.108 384.587L390.664 383.503V383.503C390.621 382.992 390.523 382.487 390.381 381.992L390.358 381.841V381.841L390.345 381.85V381.85C389.56 379.299 387.51 377.091 384.885 376.367ZM278.24 376.762C275.954 374.475 272.742 374.813 270.356 376.613L270.039 376.861V376.861C267.79 377.86 265.929 380.043 264.707 382.066C263.438 384.167 262.595 386.307 262.562 388.62C257.028 388.638 251.727 390.298 247.664 394.766C246.352 396.208 245.456 398.432 246.178 400.387L246.608 401.55V401.55C247.973 405.242 254.106 407.368 256.191 403.026L256.287 402.814C258.502 397.658 267.005 398.199 271.524 398.726C274.674 399.095 277.785 399.878 280.827 400.755C281.899 401.064 282.961 401.399 284.022 401.742L285.083 402.086C285.649 402.269 288.597 403.87 286.763 403.491C286.27 403.389 285.899 404.107 286.402 404.348C288.588 405.393 290.92 403.312 290.774 400.964C290.521 396.888 284.049 394.653 280.935 393.248L280.748 393.163C279.554 392.611 278.303 392.082 277.012 391.591C277.738 390.511 278.338 389.311 278.837 388.023C279.309 386.807 279.624 385.625 279.797 384.332C279.967 383.7 279.967 383.068 279.797 382.435L279.771 382.254V382.254C279.859 381.836 279.901 381.404 279.895 380.969L279.913 380.8H279.895C279.834 379.277 279.229 377.751 278.24 376.762ZM314.768 420.167C305.985 422.881 291.495 430.274 296.072 441.685C302.463 452.165 319.412 444.463 327.625 441.077C335.004 438.633 338.846 448.974 331.711 452.091C272.752 475.416 272.969 413.857 312.63 414.761C316.997 414.86 317.134 419.265 314.768 420.167ZM392.773 339.899L391.275 339.462C383.49 337.207 375.543 333.313 368.631 339.389C365.917 341.775 365.358 346.733 367.3 349.709C371.724 356.49 378.285 355.454 385.43 356.032C390.87 356.472 396.229 358.07 401.307 360.067C405.457 361.7 409.306 363.999 412.94 366.563C416.51 369.084 418.949 373.025 422.611 375.294C423.953 376.126 425.503 375.27 425.985 373.921C427.693 369.136 424.807 363.175 422.365 359.098C419.384 354.124 414.856 350.056 409.987 346.978C404.655 343.607 398.76 341.661 392.773 339.899V339.899ZM279.336 334.751C266.177 334.747 253.515 342.066 246.155 352.795C243.654 356.44 245.487 361.84 249.077 363.939C253.104 366.295 257.41 364.598 260.064 361.222L260.222 361.018C264.443 355.397 269.884 350.97 276.334 348.088C279.481 346.681 282.961 345.54 286.365 344.961L287.465 344.772C289.007 344.514 290.795 344.267 292.19 344.509C292.937 344.607 293.623 344.854 294.255 345.23C293.951 345.894 294.736 346.694 295.461 346.296C298.731 344.5 298.33 341.296 295.629 338.806C291.808 335.283 284.271 334.752 279.336 334.751Z" fill="black"/>
</svg>
