<svg width="496" height="526" viewBox="0 0 496 526" fill="none" xmlns="http://www.w3.org/2000/svg">
<path fill-rule="evenodd" clip-rule="evenodd" d="M225.181 253.147C221.545 250.141 217.407 248.06 212.419 248.623C193.793 250.727 176.303 245.075 158.461 241.956C128.948 234.182 56.3522 229.242 44.5815 200.87C35.8385 191.402 38.3546 180.073 52.3083 177.992C66.2316 176.597 77.5918 169.778 89.9915 165.294C113.174 157.033 135.667 147.151 158.752 138.654C173.318 133.107 183.89 147.528 181.254 158.353C182.612 167.129 186.266 169.58 198.151 169.996L198.079 169.896C191.234 178.848 226.869 186.694 233.872 184.781C235.201 196.163 246.675 186.149 253.359 187.61C258.006 197.647 268.439 190.98 276.847 190.57C285.583 189.914 289.134 199.924 297.699 195.496C316.356 190.91 317.929 189.018 312.052 171.921C320.513 147.092 381.62 188.491 394.988 198.438C412.766 210.125 403.17 222.807 386.306 225.257C344.623 231.905 303.681 241.282 263.424 253.277C250.886 258.879 238.645 251.573 225.181 253.147Z" fill="#FF3E02"/>
<path fill-rule="evenodd" clip-rule="evenodd" d="M427.731 356.426C389.871 352.147 422.15 313.451 450.5 344.204C444.608 349.003 434.503 355.271 427.731 356.426Z" fill="#460AA7"/>
<path fill-rule="evenodd" clip-rule="evenodd" d="M287.768 363.39C269.61 364.211 257.057 350.844 279.66 343.604C304.919 341.35 325.52 361.187 287.768 363.39Z" fill="#460AA7"/>
<path fill-rule="evenodd" clip-rule="evenodd" d="M428.634 323.155C388.812 323.54 439.23 283.93 447.5 313.235C446.593 319.215 435.99 324.943 428.634 323.061V323.155Z" fill="#460AA7"/>
<path fill-rule="evenodd" clip-rule="evenodd" d="M254.143 129.124C278.904 127.703 247.471 105.174 244.524 122.592C244.32 126.9 250.158 129.312 254.143 129.124ZM183.18 350.208C175.692 327.229 170.386 292.071 145.122 280.962C139.603 283.259 121.037 281.831 124.484 289.865C150.79 312.943 165.786 352.569 144.258 382.368C142.462 385.023 138.579 388.397 141.663 391.136C167.062 399.367 181.263 369.145 183.18 350.208ZM90.7161 386.483C140.935 388.468 137.847 349.644 115.845 320.165C109.28 305.952 91.1107 308.354 77.8575 303.682C53.5232 296.92 38.2376 324.626 39.3396 343.484C45.0158 364.503 64.6472 387.963 90.7161 386.483ZM300.223 126.238C300.058 126.238 299.892 126.237 299.727 126.237C312.636 -30.8994 200.069 10.4101 196.185 134.02C196.867 167.782 189.984 158.675 225.627 171.19C230.602 172.791 234.597 172.398 233.531 166.93C231.832 134.676 209.994 103.651 232.192 73.5167C234.869 67.4837 247.828 66.9791 248.438 74.6726C247.944 83.7157 230.092 107.668 250.39 104.644C265.944 102.419 290.046 120.999 276.101 133.27C267.273 141.219 244.347 133.144 243.947 147.461C244.905 156.705 243.989 173.323 255.935 176.1C312.725 176.043 298.855 170.887 300.223 126.238ZM329.546 159.314C336.349 223.961 220.378 199.938 183.473 180.837C149.387 142.428 198.652 131.79 109.387 162.125C99.8451 167.591 40.8417 176.939 47.4151 186.178C107.99 205.271 172.664 219.189 229.008 247.362C234.965 251.312 240.982 255.766 248.678 252.031C273.058 242.04 298.153 233.809 324.534 229.625C334.95 226.762 450.712 208.15 425.868 196.747C393.849 183.813 365.632 164.289 335.141 148.656C328.599 146.088 330.041 158.455 329.546 159.314ZM31.1784 306.864C67.2402 283.265 118.355 258.191 162.401 265.563C191.419 284.332 202.638 320.799 202.944 352.091C193.277 414.214 141.693 404.338 91.0941 405.218C63.0274 413.544 40.0858 379.269 36.5085 388.548C35.8841 398.102 33.3395 409.505 46.1026 412.787C76.3817 428.93 106.777 444.89 136.883 461.304C162.755 476.471 188.954 491.116 216.2 504.119C223.248 490.108 216.251 471.679 220.37 456.249C227.901 407.603 225.307 358.391 227.438 309.426C224.234 296.732 237.321 278.925 226.837 269.605C165.988 238.384 95.9285 224.265 30.1913 203.565C25.181 202.179 23.4158 207.081 24.0402 210.923C31.3999 242.552 20.6829 276.218 31.1784 306.864ZM461.262 317.441C461.075 317.443 460.889 317.446 460.702 317.447C458.81 287.18 460.511 256.906 461.163 226.625C462.305 213.932 445.698 221.212 438.155 222.464C402.696 234.288 365.562 240.065 328.907 247.772C306.016 252.551 283.217 257.707 260.321 262.466C246.806 264.953 250.278 280 249.003 289.415C267.687 568.901 139.907 507.468 414.197 462.4C428.932 456.114 457.924 458.382 463.303 442.721C462.35 400.952 460.364 359.246 461.262 317.441ZM491.017 331.344C488.836 362.173 490.053 402.782 486.867 435.04C485.208 441.905 497.416 438.332 495.239 444.301C490.018 451.419 489.355 469.903 478.522 469.428C409.644 483.337 338.064 502.126 267.838 516.459C255.009 517.562 241.852 529.441 229.386 524.012C221.946 522.052 212.567 524.986 205.519 519.968C165.24 500.677 124.967 481.29 85.4553 460.704C66.8941 446.87 19.4826 433.106 15.2587 411.937C15.6339 359.154 -26.7285 194.283 30.4128 168.934C72.5163 149.579 117.74 137.151 161.799 122.269C176.177 116.411 170.64 95.4872 178.636 83.9502C190.239 52.8716 209 21.6132 241.965 6.34857C276.81 -13.2236 312.205 19.4468 320.152 49.9366C325.205 68.1974 327.384 86.8367 328.511 105.602C328.923 111.071 327.148 118.342 334.059 120.888C478.882 198.031 483.469 168.86 491.017 331.344Z" fill="black"/>
<path fill-rule="evenodd" clip-rule="evenodd" d="M333.638 431.152C323.129 429.521 298.868 439.364 296.609 427.417C294.986 423.47 294.501 418.17 299.724 416.351C340.849 408.408 383.52 409.244 424.411 398.426C466.386 426.766 350.296 431.956 333.638 431.152Z" fill="black"/>
<path fill-rule="evenodd" clip-rule="evenodd" d="M422.5 309.575C420.196 326.069 421.323 381.281 392.5 353.956C394.016 342.326 389.493 272.444 408.073 279.995C425.847 286.466 420.444 295.611 422.5 309.575Z" fill="black"/>
<path fill-rule="evenodd" clip-rule="evenodd" d="M331.493 336.67C338.356 364.506 308.215 376.766 299.136 347.861C297.452 336.223 297.978 291.792 315.241 294.549C328.447 304.993 331.511 322.19 331.493 336.67Z" fill="black"/>
</svg>
