<svg width="598" height="689" viewBox="0 0 598 689" fill="none" xmlns="http://www.w3.org/2000/svg">
<path fill-rule="evenodd" clip-rule="evenodd" d="M164.415 461.018C179.676 470.477 186.534 489.589 198.374 502.816C222.464 531.192 231.324 569.771 254.322 598.151C267.774 605.892 272.254 622.343 283.008 633.038C289.013 640.111 322.076 682.597 306.486 686.29C290.425 695.286 276.923 677.835 261.841 675.065C221.537 675.735 181.451 669.96 141.138 670.539C106.227 670.048 72.2153 678.096 37.5623 681.537C-12.2747 682.983 61.3513 633.07 46.3603 614.524C28.5513 579.662 103.11 548.135 117.912 521.467C124.445 504.337 144.891 493.177 147.711 475.704C146.376 466.456 158.787 465.594 164.415 461.018" fill="#460AA7"/>
<path fill-rule="evenodd" clip-rule="evenodd" d="M268.163 139.398C266.226 136.002 262.19 132.261 258.432 133.78C255.03 137.131 266.285 149.171 268.163 139.398M163.126 252.02C139.723 240.274 129.735 208.906 115.757 187.422C101.755 160.044 79.5796 138.488 59.9506 114.91C58.0476 112.171 56.2336 109.587 52.3116 109.62C42.2286 104.365 52.7206 86.3075 61.5616 83.3765C98.9636 66.1595 124.5 29.3525 168.003 24.7455C201.995 8.35947 237.558 112.773 251.881 111.375C279.94 109.328 296.934 133.175 279.166 157.121C271.435 166.739 288.946 180.029 275.634 187.565C233.192 200.61 204.323 238.238 163.126 252.02" fill="#FF3E02"/>
<path fill-rule="evenodd" clip-rule="evenodd" d="M457.246 494.372C441.083 486.903 419.909 478.831 415.077 459.774C414.847 458.583 412.639 457.027 411.286 456.965C402.362 457.649 393.304 459.317 384.303 459.319C367.74 456.615 377.891 436.218 388.183 431.642C407.547 422.935 423.752 407.008 445.518 405.526C453.459 403.331 462.173 415.785 457.991 422.779C456.724 424.762 456.172 426.522 459.579 427.415C467.728 430.68 475.195 442.626 465.533 448.451C448.958 459.889 502.073 483.528 457.246 494.372" fill="#FF3E02"/>
<path fill-rule="evenodd" clip-rule="evenodd" d="M159.704 16.1963C138.704 32.5973 116.548 47.1223 94.0356 61.4223C78.8786 71.9453 61.5576 79.7103 47.9766 92.3113C40.4586 99.6453 54.0616 105.183 57.6066 110.8C95.0386 155.196 132.145 199.794 169.537 244.138C171.876 247.207 174.631 244.748 176.529 242.328C205.099 208.409 239.675 179.938 267.25 145.315C278.63 138.336 232.744 103.38 226.874 94.5633C199.546 72.7513 183.162 41.2613 159.704 16.1963M154.497 268.247C72.6756 261.952 44.5296 352.13 90.2296 410.17C96.6096 421.833 150.527 447.228 162.508 442.334C172.561 438.357 177.587 453.473 187.714 451.747C315.936 448.028 291.209 263.924 154.497 268.247M167.199 668.923C199.726 669.106 253.889 669.336 291.825 666.865C294.629 666.746 295.663 664.793 294.199 662.437C278.105 638.277 265.625 611.68 248.128 588.464C220.823 549.017 190.586 511.851 165.219 471.118C159.479 463.838 141.477 495.789 135.142 499.838C92.0566 550.81 57.9556 608.903 21.8346 664.888C18.7426 668.939 23.0196 671.166 26.8946 670.683C76.4686 671.625 111.315 670.079 167.199 668.923M281.335 154.487C252.474 185.24 222.186 214.598 193.012 245.217C187.532 250.217 184.884 254.687 194.233 256.448C310.078 281.689 316.366 456.115 190.778 466.383C208.216 502.612 237.936 531.661 257.163 567.161C281.379 598.285 294.236 638.036 318.706 668.021C321.347 668.712 321.095 672.439 320.382 674.684C324.215 682.13 315.972 686.402 309.612 685.337C275.005 685.525 240.064 684.961 205.482 687.373C149.804 686.416 93.7516 689.858 37.9396 685.536C28.3276 682.762 -2.70541 688.07 0.189594 673.245C33.8966 594.403 91.0576 528.744 143.039 461.891C150.771 449.498 84.6646 445.581 70.0586 406.613C30.3146 334.804 59.9386 253.426 148.896 252.061C161.228 250.219 112.058 206.26 107.179 200.866C81.6206 173.569 61.1036 141.959 34.8506 115.194C9.93759 92.2623 47.2026 70.9653 65.6116 60.2563C95.9406 41.6943 127.23 24.6513 156.819 4.93533C160.228 2.64033 170.326 -4.03967 170.273 3.46633C169.286 6.26633 169.497 8.35033 171.728 10.2383C184.056 20.6723 192.619 34.3483 202.723 46.6673C224.862 72.1813 251.15 93.4533 272.974 119.211C283.636 129.589 297.186 143.248 298.605 158.208C295.091 169.569 285.329 161.001 281.335 154.487" fill="black"/>
<path fill-rule="evenodd" clip-rule="evenodd" d="M575.892 588.883C566.346 579.268 538.33 536.494 526.359 541.618C516.489 544.772 446.218 567.423 454.513 576.691C478.019 595.28 499.947 616.409 525.63 631.961C528.836 633.353 531.579 630.29 533.699 628.186C547.266 614.758 564.377 603.881 575.892 588.883M597.806 586.932C584.444 604.348 563.259 615.988 547.23 631.432C538.605 635.886 536.45 654.326 523.937 646.212C494.708 629.871 469.735 607.363 446.222 583.768C439.674 575.649 435.253 583.587 429.083 581.615C434.249 561.064 484.055 537.138 503.556 527.955C513.487 524.445 527.593 516.573 537.328 523.314C560.176 541.855 578.92 564.539 597.806 586.932" fill="black"/>
<path fill-rule="evenodd" clip-rule="evenodd" d="M382.621 217.639C321.686 216.263 324.546 314.85 399.083 303.32C454.688 301.521 428.095 212.23 382.621 217.639M389.804 316.902C350.039 321.121 316.696 285.598 331.263 245.634C331.646 244.362 331.965 241.899 331.564 241.726C315.371 233.435 361.064 201.137 371.022 205.733C444.264 175.979 487.883 321.309 389.804 316.902" fill="black"/>
<path fill-rule="evenodd" clip-rule="evenodd" d="M455.159 404.333C458.1 390.762 396.301 430.779 388.02 432.569C384.003 434.673 383.933 436.455 387.68 438.443C398.971 444.432 409.135 452.022 418.877 460.198C483.081 508.573 439.293 464.09 455.159 404.333M471.707 393.808C448.534 460.209 506.923 537.008 400.234 462.486C390.42 454.74 379.01 450.178 367.766 445.028C349.691 431.265 380.429 416.591 391.858 411.786C404.861 410.237 477.369 366.278 471.707 393.808" fill="black"/>
</svg>
