<svg width="405" height="736" viewBox="0 0 405 736" fill="none" xmlns="http://www.w3.org/2000/svg">
<path fill-rule="evenodd" clip-rule="evenodd" d="M99.6135 561.918V671.576C77.4595 638.667 91.7545 597.393 99.6135 561.918" fill="#4CAF50"/>
<path fill-rule="evenodd" clip-rule="evenodd" d="M104.936 481.373H104.957C105.327 487.427 101.873 499.379 113.705 496.494C135.688 493.139 157.791 495.237 179.843 495.57C213.112 496.577 246.098 500.931 279.438 501.093C285.67 500.132 299.345 506.325 300.6 498.711C298.764 491.372 305.169 477.612 295.868 473.997C271.916 470.379 247.337 471.681 223.112 470.411C186.836 469.328 150.562 468.208 114.291 467.028C102.334 464.563 105 474.794 104.936 481.373M271.271 204.321L271.93 204.31C271.287 173.882 277.312 142.593 269.633 112.618C243.534 116.819 233.345 214.842 234.996 236.464C236.705 252.838 215.719 254.979 212.064 239.336C204.321 206.481 202.923 172.965 196.363 139.962C183.322 80.408 168.204 144.216 166.489 166.911C157.729 183.861 176.484 263.815 151.444 260.647C132.364 254.622 135.506 196.391 128.124 178.13C123.056 164.088 115.836 77.164 100.291 132.331C80.4035 229.584 99.7545 328.324 102.518 426.097C102.519 432.54 102.52 438.991 102.901 445.422C103.576 456.799 103.701 456.24 116.163 455.443C146.956 453.399 177.829 453.105 208.66 454.552C319.854 453.138 295.169 481.147 298.863 402.612C298.16 359.278 390.565 377.403 361.155 361.092C336.506 348.353 309.202 338.445 287.278 322.371C262.928 288.103 276.204 242.835 271.271 204.321M147.556 173.964C157.994 151.435 152.048 124.664 174.212 106.733C187.061 100.828 190.588 98.4095 200.972 109.689C216.027 126.131 214.347 148.58 221.986 166.864C235.335 144.176 235.76 112.628 263.88 96.333C310.282 70.2695 292.056 251.118 296.754 272.387C297.174 302.047 294.303 309.005 325.99 324.39C386.673 346.194 421.9 385.383 330.942 394.787C319.275 397.585 317.883 399.579 319.011 409.815C327.799 480.34 329.768 551.283 329.789 622.139C331.034 652.805 331.971 683.453 333.512 714.108C334.902 720.584 323.654 727.935 319.589 720.221C311.878 665.429 305.113 609.005 304.52 553.701C301.636 544.888 308.636 513.485 294.498 514.13C272.457 506.565 288.977 546.176 287.167 555.74C288.991 569.537 288.419 583.262 286.623 597.026C282.223 627.51 282.509 658.251 281.549 688.903C278.953 698.684 288.458 726.107 272.482 726.712C258.655 720.95 269.019 659.006 265.564 642.834C264.723 615.175 272.545 587.802 269.71 560.199C269.099 545.489 267.443 530.732 272.11 516.337C272.436 514.846 271.591 513.616 270.163 513.598C261.273 514.838 243.137 509.739 239.137 517.834C242.748 549.584 246.565 581.417 243.17 613.309C242.149 636.891 241.446 660.514 240.848 684.112C237.602 694.739 250.371 739.025 231.916 735.425C225.874 733.064 227.152 724.628 225.02 719.866C219.492 691.721 219.847 662.967 220.024 634.534C222.365 595.972 215.923 557.159 222.209 518.818C223.124 509.359 204.488 514.855 197.386 513.381C193.61 513.423 192.79 514.603 192.826 518.249C193.096 545.535 193.753 572.823 193.496 600.105C193.124 638.46 190.053 676.79 192.299 715.141C191.095 721.452 195.524 731.173 187.335 734.524C181.847 736.459 181.437 730.507 181.234 727.342C177.551 695.881 174.325 664.487 174.362 632.811C173.536 594.198 168.751 555.427 173.932 516.907C174.374 513.94 173.324 512.71 170.062 512.639C162.86 514.087 146.491 508.492 144.549 516.009C147.642 536.415 149.583 556.908 148.244 577.486C145.017 586.98 161.325 736.295 143.749 711.789C140.737 706.898 138.569 701.63 138.797 696.047C137.332 652.513 126.567 609.608 129.032 565.923C126.475 556.692 134.464 511.152 123.635 511.415C116.072 510.985 103.265 507.453 105.519 517.795C106.703 580.622 102.951 643.705 108.196 706.378C106.846 783.771 90.7795 673.289 93.6005 655.071C96.0845 503.329 80.7265 352.083 79.3345 200.47C84.3795 174.095 78.7745 109.791 113.688 101.318C133.806 101.213 139.828 159.344 147.556 173.964" fill="black"/>
<path fill-rule="evenodd" clip-rule="evenodd" d="M354.897 207.589C355.918 215.272 344.807 223.264 338.1 215.486C331.894 208.311 334.162 198.806 329.65 191.046C324.963 182.452 292.378 193.493 280.827 190.799C262.064 181.74 312.822 176.648 319.22 174.661C329.805 173.072 305.424 141.853 331.716 153.021C339.037 158.59 338.056 172.328 350.507 170.474C359.876 171.365 378.222 164.983 382.444 174.146C385.224 185.522 364.53 182.519 356.099 184.811C345.888 186.732 356.202 200.994 354.897 207.589" fill="#FF3E02"/>
<path fill-rule="evenodd" clip-rule="evenodd" d="M373.729 63.2671C374.292 67.2715 366.66 79.929 376.501 80.6986C384.661 80.2771 417.177 95.7156 399.809 100.044C361.622 88.2967 369.099 87.2382 358.164 118.715C356.499 122.748 352.363 123.985 347.794 124.162C331.831 122.425 342.516 104.131 343.651 95.6852C347.903 86.7752 340.604 85.6753 332.083 84.245C328.072 84.0051 318.653 78.1085 325.321 75.776C339.214 73.789 349.578 82.3113 355.698 67.7716C360.35 59.5011 376.452 42.2487 373.729 63.2671" fill="#FF3E02"/>
<path fill-rule="evenodd" clip-rule="evenodd" d="M139.915 66.785C158.008 71.0005 156.827 59.916 163.319 49.3789C179.384 27.813 176.853 56.8206 174.622 66.654C173.251 77.9903 194.669 73.8905 199.456 82.4601C200.525 92.8544 182.958 85.6053 176.391 84.9016C168.498 81.2022 158.053 124.661 147.389 109.555C139.632 100.737 146.924 91.7968 149.946 82.6569C150.602 73.4563 130.637 77.4986 124.314 71.7093C117.938 64.2464 135.3 67.0012 139.918 66.5704C139.917 66.6422 139.916 66.7132 139.915 66.785" fill="#FF3E02"/>
<path fill-rule="evenodd" clip-rule="evenodd" d="M57.5635 222.274C41.6765 217.304 44.0685 192.521 22.9435 201.498C18.4165 202.176 -2.59854 208.561 0.888459 200.649C25.8145 185.664 33.6335 196.755 19.9745 169.914C19.5325 168.112 19.2305 166.035 21.4915 164.956C37.0475 159.296 39.3045 188.552 55.2155 181.078C84.3085 167.776 93.9415 189.732 59.8455 193.462C46.6455 199.509 85.7345 222.331 57.5635 222.274" fill="#FF3E02"/>
<path fill-rule="evenodd" clip-rule="evenodd" d="M10.8027 0.0927734C19.6097 1.86937 78.6307 10.6958 75.9397 17.8056C71.5777 28.5209 61.9947 25.6883 51.7237 22.8422C44.4417 21.0141 -23.2983 3.89941 10.8027 0.0927734" fill="#FF3E02"/>
</svg>
